<?xml version="1.0" encoding="UTF-8" standalone="no" ?>
<svg xmlns="http://www.w3.org/2000/svg" xmlns:xlink="http://www.w3.org/1999/xlink">
    <defs>
        <style>.cls-1{fill:#00008f;}</style>
        <symbol id="blue_svg_2px" viewBox="0 0 96 96">
            <title>house</title>
            <path class="cls-1" d="M86.3,31.58,51.46,5.16a5.74,5.74,0,0,0-6.92,0L9.67,31.61A4.18,4.18,0,0,0,8,35a4.3,4.3,0,0,0,4.73,4.28V81a1,1,0,0,0,1,1H82.27a1,1,0,0,0,1-1V39.28a4.24,4.24,0,0,0,.42,0A4.31,4.31,0,0,0,88,35,4.21,4.21,0,0,0,86.3,31.58ZM57.64,80H38.36V48.88H57.64Zm23.64,0H59.64V47.88a1,1,0,0,0-1-1H37.36a1,1,0,0,0-1,1V80H14.73V38.54l.17-.11,33-25a.18.18,0,0,1,.22,0l33,25,.17.11Zm3.45-42.93a2.25,2.25,0,0,1-2.41-.23l-33-25a2.19,2.19,0,0,0-2.64,0l-33,25A2.3,2.3,0,0,1,10,35a2.18,2.18,0,0,1,.91-1.83L45.75,6.76a3.74,3.74,0,0,1,4.5,0L85.06,33.15A2.19,2.19,0,0,1,86,35,2.26,2.26,0,0,1,84.72,37.07Z"/>
            <path class="cls-1" d="M48,26.45a5.73,5.73,0,1,0,5.73,5.73A5.74,5.74,0,0,0,48,26.45Zm0,9.46a3.73,3.73,0,1,1,3.73-3.73A3.73,3.73,0,0,1,48,35.92Z"/>
            <path class="cls-1" d="M43.27,65.44h2.36a1,1,0,0,0,0-2H43.27a1,1,0,0,0,0,2Z"/>
        </symbol>
        <symbol id="blue_svg__2px" data-name="blue_svg _2px"
    xmlns="http://www.w3.org/2000/svg" viewBox="0 0 140 140">
            <title>house</title>
            <path class="cls-1" d="M108.3,53.58,73.46,27.16a5.74,5.74,0,0,0-6.92,0L31.67,53.61A4.18,4.18,0,0,0,30,57a4.3,4.3,0,0,0,4.73,4.28V103a1,1,0,0,0,1,1h68.55a1,1,0,0,0,1-1V61.28a4.24,4.24,0,0,0,.42,0A4.31,4.31,0,0,0,110,57,4.21,4.21,0,0,0,108.3,53.58ZM79.64,102H60.36V70.88H79.64Zm23.64,0H81.64V69.88a1,1,0,0,0-1-1H59.36a1,1,0,0,0-1,1V102H36.73V60.54l.17-.11,33-25a.18.18,0,0,1,.22,0l33,25,.17.11Zm3.45-42.93a2.25,2.25,0,0,1-2.41-.23l-33-25a2.19,2.19,0,0,0-2.64,0l-33,25A2.3,2.3,0,0,1,32,57a2.18,2.18,0,0,1,.91-1.83L67.75,28.76a3.74,3.74,0,0,1,4.5,0l34.81,26.39A2.19,2.19,0,0,1,108,57,2.26,2.26,0,0,1,106.72,59.07Z"/>
            <path class="cls-1" d="M70,48.45a5.73,5.73,0,1,0,5.73,5.73A5.74,5.74,0,0,0,70,48.45Zm0,9.46a3.73,3.73,0,1,1,3.73-3.73A3.73,3.73,0,0,1,70,57.92Z"/>
            <path class="cls-1" d="M65.27,87.44h2.36a1,1,0,1,0,0-2H65.27a1,1,0,0,0,0,2Z"/>
            <path class="cls-1" d="M70,140a70,70,0,1,1,70-70A70.08,70.08,0,0,1,70,140ZM70,2a68,68,0,1,0,68,68A68.08,68.08,0,0,0,70,2Z"/>
        </symbol>
        <symbol id="white_svg_1px"
    xmlns="http://www.w3.org/2000/svg" viewBox="0 0 96 96">
            <title>house</title>
            <path class="cls-1" d="M86,32,51.16,5.56a5.24,5.24,0,0,0-6.31,0L10,32A3.67,3.67,0,0,0,8.5,35a3.8,3.8,0,0,0,4.73,3.68V81a.5.5,0,0,0,.5.5H82.27a.5.5,0,0,0,.5-.5V38.68a3.75,3.75,0,0,0,.93.13A3.81,3.81,0,0,0,87.5,35,3.73,3.73,0,0,0,86,32ZM58.14,80.5H37.86V48.38H58.14Zm23.64,0H59.14V47.88a.5.5,0,0,0-.5-.5H37.36a.5.5,0,0,0-.5.5V80.5H14.23V38.28a3.87,3.87,0,0,0,.36-.24l33-25a.68.68,0,0,1,.82,0l33,25a3.84,3.84,0,0,0,.36.23Zm3.17-43A2.74,2.74,0,0,1,82,37.24l-33-25a1.69,1.69,0,0,0-2,0l-33,25A2.8,2.8,0,0,1,9.5,35a2.67,2.67,0,0,1,1.11-2.23L45.45,6.36a4.24,4.24,0,0,1,5.1,0L85.38,32.76A2.69,2.69,0,0,1,86.5,35,2.75,2.75,0,0,1,84.95,37.52Z"/>
            <path class="cls-1" d="M48,27a5.23,5.23,0,1,0,5.23,5.23A5.24,5.24,0,0,0,48,27Zm0,9.46a4.23,4.23,0,1,1,4.23-4.23A4.23,4.23,0,0,1,48,36.42Z"/>
            <path class="cls-1" d="M43.27,64.94h2.36a.5.5,0,0,0,0-1H43.27a.5.5,0,0,0,0,1Z"/>
        </symbol>
        <symbol id="white_svg_1px"
    xmlns="http://www.w3.org/2000/svg" viewBox="0 0 140 140">
            <title>house</title>
            <path class="cls-1" d="M108,54,73.16,27.56a5.24,5.24,0,0,0-6.31,0L32,54a3.67,3.67,0,0,0-1.49,3,3.8,3.8,0,0,0,4.73,3.68V103a.5.5,0,0,0,.5.5h68.55a.5.5,0,0,0,.5-.5V60.68a3.75,3.75,0,0,0,.93.13,3.81,3.81,0,0,0,3.8-3.8A3.73,3.73,0,0,0,108,54ZM80.14,102.5H59.86V70.38H80.14Zm23.64,0H81.14V69.88a.5.5,0,0,0-.5-.5H59.36a.5.5,0,0,0-.5.5V102.5H36.23V60.28a3.87,3.87,0,0,0,.36-.24l33-25a.68.68,0,0,1,.82,0l33,25a3.84,3.84,0,0,0,.36.23Zm3.17-43a2.74,2.74,0,0,1-2.93-.28l-33-25a1.69,1.69,0,0,0-2,0l-33,25A2.8,2.8,0,0,1,31.5,57a2.67,2.67,0,0,1,1.11-2.23L67.45,28.36a4.24,4.24,0,0,1,5.1,0l34.82,26.41A2.69,2.69,0,0,1,108.5,57,2.75,2.75,0,0,1,106.95,59.52Z"/>
            <path class="cls-1" d="M70,49a5.23,5.23,0,1,0,5.23,5.23A5.24,5.24,0,0,0,70,49Zm0,9.46a4.23,4.23,0,1,1,4.23-4.23A4.23,4.23,0,0,1,70,58.42Z"/>
            <path class="cls-1" d="M65.27,86.94h2.36a.5.5,0,1,0,0-1H65.27a.5.5,0,0,0,0,1Z"/>
            <path class="cls-1" d="M70,139.5A69.5,69.5,0,1,1,139.5,70,69.58,69.58,0,0,1,70,139.5Zm0-138A68.5,68.5,0,1,0,138.5,70,68.58,68.58,0,0,0,70,1.5Z"/>
        </symbol>
    </defs>
</svg>