<?xml version="1.0" encoding="utf-8"?>
<!-- Generator: Adobe Illustrator 23.1.1, SVG Export Plug-In . SVG Version: 6.00 Build 0)  -->
<svg version="1.1" id="Livello_1" xmlns="http://www.w3.org/2000/svg" xmlns:xlink="http://www.w3.org/1999/xlink" x="0px" y="0px"
	 viewBox="0 0 96 96" style="enable-background:new 0 0 96 96;" xml:space="preserve">
<style type="text/css">
	.st0{fill:#333333;}
</style>
<path id="Path_68" class="st0" d="M84,13H12c-2.8,0-5,2.2-5,5v46.9c0,2.8,2.2,5,5,5h26.5c-0.9,3.9-3.3,11.1-7,11.1h-4.7
	c-0.6,0-1,0.4-1,1s0.4,1,1,1h42.4c0.6,0,1-0.4,1-1s-0.4-1-1-1h-4.7c-3.7,0-6.1-7.2-7-11.1H84c2.8,0,5-2.2,5-5V18
	C89,15.2,86.8,13,84,13z M12,15h72c1.7,0,3,1.3,3,3v37.9H9V18C9,16.3,10.3,15,12,15z M57.2,75.8c0.7,1.9,1.7,3.7,3.1,5.2H35.7
	c1.3-1.5,2.4-3.3,3.1-5.2c0.8-1.9,1.4-3.9,1.8-5.9h14.8C55.9,71.9,56.5,73.9,57.2,75.8z M84,67.9H12c-1.7,0-3-1.3-3-3V58h78v6.9
	C87,66.5,85.7,67.9,84,67.9z"/>
<path id="Path_69" class="st0" d="M51.5,61.9h-7.1c-0.6,0-1,0.4-1,1s0.4,1,1,1h7.1c0.6,0,1-0.4,1-1S52.1,61.9,51.5,61.9z"/>
</svg>
