<?xml version="1.0" encoding="utf-8"?>
<!-- Generator: Adobe Illustrator 23.0.6, SVG Export Plug-In . SVG Version: 6.00 Build 0)  -->
<svg version="1.1" id="Livello_1" xmlns="http://www.w3.org/2000/svg" xmlns:xlink="http://www.w3.org/1999/xlink" x="0px" y="0px"
	 viewBox="0 0 42 42" style="enable-background:new 0 0 42 42;" xml:space="preserve">
<style type="text/css">
	.st0{fill:#00008E;}
	.st1{fill:#00008F;}
</style>
<g>
	<path class="st1" d="M21.1,9.8c0.3,0,0.6-0.3,0.6-0.6l0-4.1c0-0.3-0.3-0.6-0.6-0.6c0,0,0,0,0,0c-0.3,0-0.6,0.3-0.6,0.6l0,4.1
		C20.5,9.6,20.7,9.8,21.1,9.8C21.1,9.8,21.1,9.8,21.1,9.8z"/>
	<path class="st1" d="M29.1,13c-0.2-0.2-0.6-0.2-0.8,0l-5.6,5.6c-0.5-0.3-1-0.5-1.6-0.5c0,0,0,0,0,0c-0.6,0-1.1,0.2-1.6,0.5
		l-3.8-3.9c-0.2-0.2-0.6-0.2-0.8,0c-0.2,0.2-0.2,0.6,0,0.8l3.8,3.9c-0.3,0.5-0.5,1-0.5,1.6c0,0.8,0.3,1.5,0.9,2.1
		c0.6,0.6,1.3,0.9,2.1,0.9c0,0,0,0,0,0c0.8,0,1.5-0.3,2.1-0.9c0.6-0.6,0.9-1.3,0.9-2.1c0-0.6-0.2-1.1-0.5-1.6l5.6-5.6
		C29.3,13.6,29.3,13.2,29.1,13z M22.2,22.3c-0.3,0.3-0.8,0.5-1.2,0.5c0,0,0,0,0,0c-0.5,0-0.9-0.2-1.2-0.5c-0.3-0.3-0.5-0.8-0.5-1.2
		c0-0.5,0.2-0.9,0.5-1.2c0,0,0,0,0,0c0,0,0,0,0,0c0.3-0.3,0.8-0.5,1.2-0.5c0,0,0,0,0,0c0.5,0,0.9,0.2,1.2,0.5
		c0.3,0.3,0.5,0.8,0.5,1.2S22.6,21.9,22.2,22.3z"/>
	<path class="st1" d="M20.9,32.2c-0.3,0-0.6,0.3-0.6,0.6l0,4.1c0,0.3,0.3,0.6,0.6,0.6c0,0,0,0,0,0c0.3,0,0.6-0.3,0.6-0.6l0-4.1
		C21.5,32.4,21.3,32.2,20.9,32.2C20.9,32.2,20.9,32.2,20.9,32.2z"/>
	<path class="st1" d="M9.2,21.5c0.3,0,0.6-0.3,0.6-0.6c0-0.3-0.3-0.6-0.6-0.6l-4.1,0c0,0,0,0,0,0c-0.3,0-0.6,0.3-0.6,0.6
		c0,0.3,0.3,0.6,0.6,0.6L9.2,21.5C9.2,21.5,9.2,21.5,9.2,21.5z"/>
	<path class="st1" d="M32.8,20.5c-0.3,0-0.6,0.3-0.6,0.6c0,0.3,0.3,0.6,0.6,0.6l4.1,0c0,0,0,0,0,0c0.3,0,0.6-0.3,0.6-0.6
		c0-0.3-0.3-0.6-0.6-0.6L32.8,20.5C32.8,20.5,32.8,20.5,32.8,20.5z"/>
	<path class="st1" d="M38.9,12c-0.1-0.3-0.5-0.4-0.8-0.3c-0.3,0.1-0.4,0.5-0.3,0.8c1.4,2.7,2,5.6,2,8.6c0,5-2,9.7-5.6,13.3
		c-3.6,3.5-8.3,5.5-13.3,5.5c-5,0-9.7-2-13.3-5.6c-3.5-3.6-5.5-8.3-5.5-13.3C2.2,10.6,10.7,2.2,21,2.2c0,0,0.1,0,0.1,0
		c4.9,0,9.6,2,13.1,5.4l-3.7,0c0,0,0,0,0,0c-0.3,0-0.6,0.3-0.6,0.6c0,0.3,0.3,0.6,0.6,0.6l5.3,0c0,0,0,0,0,0c0.3,0,0.6-0.3,0.6-0.6
		l0-5.3c0-0.3-0.3-0.6-0.6-0.6c0,0,0,0,0,0c-0.3,0-0.6,0.3-0.6,0.6l0,4.1C31.5,3.2,26.4,1,21.1,1c0,0-0.1,0-0.1,0C10,1,1,9.9,1,20.9
		c0,5.3,2,10.4,5.8,14.2c3.8,3.8,8.8,5.9,14.1,5.9c0,0,0.1,0,0.1,0c5.3,0,10.3-2.1,14.1-5.8c3.8-3.8,5.9-8.8,5.9-14.1
		C41,17.9,40.3,14.8,38.9,12z"/>
	<path class="st1" d="M10.9,10l-0.6-0.6c-0.2-0.2-0.6-0.2-0.8,0c-0.2,0.2-0.2,0.6,0,0.8l0.6,0.6c0.1,0.1,0.3,0.2,0.4,0.2
		c0.1,0,0.3-0.1,0.4-0.2C11.1,10.6,11.1,10.2,10.9,10z"/>
	<path class="st1" d="M9.8,32.7c0.1,0,0.3-0.1,0.4-0.2l0.6-0.6c0.2-0.2,0.2-0.6,0-0.8c-0.2-0.2-0.6-0.2-0.8,0l-0.6,0.6
		c-0.2,0.2-0.2,0.6,0,0.8C9.5,32.7,9.6,32.7,9.8,32.7z"/>
	<path class="st1" d="M31.1,31.2c-0.2,0.2-0.2,0.6,0,0.8l0.6,0.6c0.1,0.1,0.3,0.2,0.4,0.2c0.1,0,0.3-0.1,0.4-0.2
		c0.2-0.2,0.2-0.6,0-0.8L32,31.2C31.7,31,31.4,31,31.1,31.2z"/>
	<path class="st1" d="M7,15.8c0.1,0,0.2,0,0.2,0c0.2,0,0.4-0.1,0.5-0.4c0.1-0.3,0-0.6-0.3-0.8l-0.8-0.3c-0.3-0.1-0.6,0-0.8,0.3
		c-0.1,0.3,0,0.6,0.3,0.8L7,15.8z"/>
	<path class="st1" d="M14.7,36.1c0.1,0,0.2,0,0.2,0c0.2,0,0.4-0.1,0.5-0.4l0.3-0.8c0.1-0.3,0-0.6-0.3-0.8c-0.3-0.1-0.6,0-0.8,0.3
		l-0.3,0.8C14.2,35.6,14.4,36,14.7,36.1z"/>
	<path class="st1" d="M35,26.2c-0.3-0.1-0.6,0-0.8,0.3c-0.1,0.3,0,0.6,0.3,0.8l0.8,0.3c0.1,0,0.2,0,0.2,0c0.2,0,0.4-0.1,0.5-0.4
		c0.1-0.3,0-0.6-0.3-0.8L35,26.2z"/>
	<path class="st1" d="M15.3,7.7c0.1,0,0.1,0,0.2,0c0.3-0.1,0.4-0.5,0.3-0.8l-0.3-0.8c-0.1-0.3-0.5-0.4-0.8-0.3
		c-0.3,0.1-0.4,0.5-0.3,0.8l0.3,0.8C14.9,7.6,15.1,7.7,15.3,7.7z"/>
	<path class="st1" d="M6.9,26.1l-0.8,0.3c-0.3,0.1-0.4,0.5-0.3,0.8c0.1,0.2,0.3,0.4,0.5,0.4c0.1,0,0.1,0,0.2,0l0.8-0.3
		c0.3-0.1,0.4-0.5,0.3-0.8S7.2,26,6.9,26.1z"/>
	<path class="st1" d="M26.4,34.3c-0.3,0.1-0.4,0.5-0.3,0.8l0.3,0.8c0.1,0.2,0.3,0.4,0.5,0.4c0.1,0,0.1,0,0.2,0
		c0.3-0.1,0.4-0.5,0.3-0.8l-0.3-0.8C27.1,34.3,26.7,34.2,26.4,34.3z"/>
</g>
</svg>
