<svg xmlns="http://www.w3.org/2000/svg" 
    xmlns:xlink="http://www.w3.org/1999/xlink" width="18" height="18" viewBox="0 0 18 18">
    <defs>
        <style>
            .a {
                fill: none;
            }

            .b {
                clip-path: url(#a);
            }

            .c {
                fill: #f6a473;
            }
        </style>
        <clipPath id="a">
            <path class="a" d="M9.424-15A8.812,8.812,0,0,1,18-5.976,8.807,8.807,0,0,1,9.378,3L0,2.976,3.073.1A9.217,9.217,0,0,1,.8-6.024,8.792,8.792,0,0,1,9.424-15ZM9.643-2.143a.643.643,0,0,0,.643-.643.643.643,0,0,0-.643-.643A.643.643,0,0,0,9-2.786.643.643,0,0,0,9.643-2.143Zm0-7.714A.643.643,0,0,0,9-9.214v3.857a.643.643,0,0,0,.643.643.643.643,0,0,0,.643-.643V-9.214A.643.643,0,0,0,9.643-9.857Z" transform="translate(0 15)" />
        </clipPath>
    </defs>
    <g transform="translate(0 15)">
        <g class="b" transform="translate(0 -15)">
            <path class="c" d="M-5-20H25.857V10.857H-5Z" transform="translate(-1.428 13.572)" />
        </g>
    </g>
</svg>