<?xml version="1.0" encoding="utf-8"?>
<!-- Generator: Adobe Illustrator 23.0.6, SVG Export Plug-In . SVG Version: 6.00 Build 0)  -->
<svg version="1.1" id="Livello_1" xmlns="http://www.w3.org/2000/svg" xmlns:xlink="http://www.w3.org/1999/xlink" x="0px" y="0px"
	 viewBox="0 0 18 18" style="enable-background:new 0 0 18 18;" xml:space="preserve">
<style type="text/css">
	.st0{stroke:#F6A473; fill:#FFFFFF}
	.st1{fill:#F6A473;}
</style>
<path class="st0" d="M9.4,0c4.9,0.1,8.7,4.2,8.6,9c0.1,4.9-3.8,8.9-8.6,9H0l3.1-2.9C1.6,13.4,0.8,11.2,0.8,9C0.7,4.1,4.5,0.1,9.4,0
	L9.4,0z"/>
<path class="st1" d="M9.6,10.3L9.6,10.3C9.3,10.3,9,10,9,9.7v-4c0-0.3,0.3-0.6,0.6-0.6h0c0.3,0,0.6,0.3,0.6,0.6v4
	C10.2,10,9.9,10.3,9.6,10.3z"/>
<path class="st1" d="M9.6,12.9L9.6,12.9c-0.3,0-0.6-0.3-0.6-0.6v0c0-0.3,0.3-0.6,0.6-0.6h0c0.3,0,0.6,0.3,0.6,0.6v0
	C10.2,12.6,9.9,12.9,9.6,12.9z"/>
</svg>
