<?xml version="1.0" encoding="utf-8"?>
<!-- Generator: Adobe Illustrator 23.1.1, SVG Export Plug-In . SVG Version: 6.00 Build 0)  -->
<svg version="1.1" id="Livello_1" xmlns="http://www.w3.org/2000/svg" xmlns:xlink="http://www.w3.org/1999/xlink" x="0px" y="0px"
	 viewBox="0 0 96 96" style="enable-background:new 0 0 96 96;" xml:space="preserve">
<style type="text/css">
	.st0{fill:#333333;}
</style>
<path id="Path_70" class="st0" d="M80.5,16.5h-11V14c0-2.2-1.8-4-4-4H65c-2.2,0-4,1.8-4,4v2.5H34.7V14c0-2.2-1.8-4-4-4h-0.5
	c-2.2,0-4,1.8-4,4v2.5h-11c-1.8,0-3.2,1.4-3.2,3.2v63.1c0,1.8,1.4,3.2,3.2,3.2l0,0h55.5c0.3,0,0.5-0.1,0.7-0.3l12-12l0,0
	c0.1-0.1,0.1-0.2,0.2-0.3v-0.1c0-0.1,0-0.2,0-0.3V19.7C83.7,18,82.3,16.5,80.5,16.5z M63,14c0-1.1,0.9-2,2-2h0.5c1.1,0,2,0.9,2,2
	v7.1c0,1.1-0.9,2-2,2H65c-1.1,0-2-0.9-2-2V14z M28.2,14c0-1.1,0.9-2,2-2h0.5c1.1,0,2,0.9,2,2v7.1c0,1.1-0.9,2-2,2h-0.5
	c-1.1,0-2-0.9-2-2V14z M15.2,18.5h11V21c0,2.2,1.8,4,4,4h0.5c2.2,0,4-1.8,4-4v-2.5H61V21c0,2.2,1.8,4,4,4h0.5c2.2,0,4-1.8,4-4v-2.5
	h11c0.7,0,1.2,0.5,1.2,1.2l0,0v9.9H14v-9.9C14,19.1,14.6,18.5,15.2,18.5L15.2,18.5z M14,82.8V31.6h67.6V72h-8.8
	c-1.8,0-3.2,1.4-3.2,3.2l0,0V84H15.2C14.6,84,14,83.5,14,82.8z M71.7,82.6v-7.4c0-0.6,0.5-1.2,1.1-1.2h7.4L71.7,82.6z"/>
<path id="Path_71" class="st0" d="M40.2,25.1h15.2c0.6,0,1-0.4,1-1s-0.4-1-1-1H40.2c-0.6,0-1,0.4-1,1S39.7,25.1,40.2,25.1z"/>
<path id="Path_72" class="st0" d="M25.4,37.2h-0.7c-2.8,0-5,2.2-5,5v0.7c0,2.8,2.2,5,5,5h0.7c2.8,0,5-2.2,5-5v-0.7
	C30.4,39.4,28.1,37.2,25.4,37.2z M28.4,42.9c0,1.7-1.3,3-3,3h-0.7c-1.7,0-3-1.3-3-3v-0.7c0-1.7,1.3-3,3-3h0.7c1.7,0,3,1.3,3,3V42.9z
	"/>
<path id="Path_73" class="st0" d="M40.6,37.2h-0.7c-2.8,0-5,2.2-5,5v0.7c0,2.8,2.2,5,5,5h0.7c2.8,0,5-2.2,5-5v-0.7
	C45.6,39.5,43.3,37.2,40.6,37.2z M43.6,42.9c0,1.7-1.3,3-3,3h-0.7c-1.7,0-3-1.3-3-3v-0.7c0-1.7,1.3-3,3-3h0.7c1.7,0,3,1.3,3,3V42.9z
	"/>
<path id="Path_74" class="st0" d="M55.9,37.2h-0.7c-2.8,0-5,2.2-5,5v0.7c0,2.8,2.2,5,5,5h0.7c2.8,0,5-2.2,5-5v-0.7
	C60.9,39.4,58.6,37.2,55.9,37.2z M58.9,42.9c0,1.7-1.3,3-3,3h-0.7c-1.7,0-3-1.3-3-3v-0.7c0-1.7,1.3-3,3-3h0.7c1.7,0,3,1.3,3,3V42.9z
	"/>
<path id="Path_75" class="st0" d="M70.4,47.9h0.7c2.8,0,5-2.2,5-5v-0.7c0-2.8-2.2-5-5-5h-0.7c-2.8,0-5,2.2-5,5v0.7
	C65.4,45.7,67.6,47.9,70.4,47.9z M67.4,42.2c0-1.7,1.3-3,3-3h0.7c1.7,0,3,1.3,3,3v0.7c0,1.7-1.3,3-3,3h-0.7c-1.7,0-3-1.3-3-3V42.2z"
	/>
<path id="Path_76" class="st0" d="M25.4,52.4h-0.7c-2.8,0-5,2.2-5,5v0.7c0,2.8,2.2,5,5,5h0.7c2.8,0,5-2.2,5-5v-0.7
	C30.4,54.7,28.1,52.4,25.4,52.4L25.4,52.4z M28.4,58.2c0,1.7-1.3,3-3,3h-0.7c-1.7,0-3-1.3-3-3v-0.7c0-1.7,1.3-3,3-3h0.7
	c1.7,0,3,1.3,3,3V58.2z"/>
<path id="Path_77" class="st0" d="M40.6,52.4h-0.7c-2.8,0-5,2.2-5,5v0.7c0,2.8,2.2,5,5,5h0.7c2.8,0,5-2.2,5-5v-0.7
	C45.6,54.7,43.3,52.5,40.6,52.4z M43.6,58.2c0,1.7-1.3,3-3,3h-0.7c-1.7,0-3-1.3-3-3v-0.7c0-1.7,1.3-3,3-3h0.7c1.7,0,3,1.3,3,3V58.2z
	"/>
<path id="Path_78" class="st0" d="M55.9,52.4h-0.7c-2.8,0-5,2.2-5,5v0.7c0,2.8,2.2,5,5,5h0.7c2.8,0,5-2.2,5-5v-0.7
	C60.9,54.7,58.6,52.4,55.9,52.4L55.9,52.4z M58.9,58.2c0,1.7-1.3,3-3,3h-0.7c-1.7,0-3-1.3-3-3v-0.7c0-1.7,1.3-3,3-3h0.7
	c1.7,0,3,1.3,3,3V58.2z"/>
<path id="Path_79" class="st0" d="M70.4,63.1h0.7c2.8,0,5-2.2,5-5v-0.7c0-2.8-2.2-5-5-5h-0.7c-2.8,0-5,2.2-5,5v0.7
	C65.4,60.9,67.6,63.1,70.4,63.1z M67.4,57.4c0-1.7,1.3-3,3-3h0.7c1.7,0,3,1.3,3,3v0.7c0,1.7-1.3,3-3,3h-0.7c-1.7,0-3-1.3-3-3V57.4z"
	/>
<path id="Path_80" class="st0" d="M25.4,67.7h-0.7c-2.8,0-5,2.2-5,5v0.7c0,2.8,2.2,5,5,5h0.7c2.8,0,5-2.2,5-5v-0.7
	C30.4,69.9,28.1,67.7,25.4,67.7z M28.4,73.4c0,1.7-1.3,3-3,3h-0.7c-1.7,0-3-1.3-3-3v-0.7c0-1.7,1.3-3,3-3h0.7c1.7,0,3,1.3,3,3V73.4z
	"/>
<path id="Path_81" class="st0" d="M40.6,67.7h-0.7c-2.8,0-5,2.2-5,5v0.7c0,2.8,2.2,5,5,5h0.7c2.8,0,5-2.2,5-5v-0.7
	C45.6,69.9,43.3,67.7,40.6,67.7z M43.6,73.4c0,1.7-1.3,3-3,3h-0.7c-1.7,0-3-1.3-3-3v-0.7c0-1.7,1.3-3,3-3h0.7c1.7,0,3,1.3,3,3V73.4z
	"/>
<path id="Path_82" class="st0" d="M55.9,67.7h-0.7c-2.8,0-5,2.2-5,5v0.7c0,2.8,2.2,5,5,5h0.7c2.8,0,5-2.2,5-5v-0.7
	C60.9,69.9,58.6,67.7,55.9,67.7z M58.9,73.4c0,1.7-1.3,3-3,3h-0.7c-1.7,0-3-1.3-3-3v-0.7c0-1.7,1.3-3,3-3h0.7c1.7,0,3,1.3,3,3V73.4z
	"/>
</svg>
