<?xml version="1.0" encoding="utf-8"?>
<!-- Generator: Adobe Illustrator 23.0.6, SVG Export Plug-In . SVG Version: 6.00 Build 0)  -->
<svg version="1.1"
	 id="svg8" xmlns:cc="http://creativecommons.org/ns#" xmlns:dc="http://purl.org/dc/elements/1.1/" xmlns:inkscape="http://www.inkscape.org/namespaces/inkscape" xmlns:rdf="http://www.w3.org/1999/02/22-rdf-syntax-ns#" xmlns:sodipodi="http://sodipodi.sourceforge.net/DTD/sodipodi-0.dtd" xmlns:svg="http://www.w3.org/2000/svg"
	 xmlns="http://www.w3.org/2000/svg" xmlns:xlink="http://www.w3.org/1999/xlink" x="0px" y="0px" viewBox="0 0 79.7 79.7"
	 style="enable-background:new 0 0 79.7 79.7;" xml:space="preserve">
<style type="text/css">
	.st0{fill:#FF1721;}
	.st1{fill:#00008F;}
</style>
<sodipodi:namedview  bordercolor="#666666" borderopacity="1.0" fit-margin-bottom="0" fit-margin-left="0" fit-margin-right="0" fit-margin-top="0" id="base" inkscape:current-layer="layer1" inkscape:cx="131.46973" inkscape:cy="-389.58457" inkscape:document-units="mm" inkscape:pageopacity="0" inkscape:pageshadow="2" inkscape:window-height="1001" inkscape:window-maximized="1" inkscape:window-width="1920" inkscape:window-x="-9" inkscape:window-y="-9" inkscape:zoom="0.7" pagecolor="#00ffff" showgrid="false">
	</sodipodi:namedview>
<g id="layer1" transform="translate(-84.585989,-14.571111)" inkscape:groupmode="layer" inkscape:label="Layer 1">
	<g id="g76" transform="matrix(0.09924117,0,0,0.09924117,84.585989,14.571111)">
		<polygon id="switch" class="st0" points="449.2,388.8 492.9,388.8 782.4,12.8 739.7,12.8 		"/>
		<path id="axa" inkscape:connector-curvature="0" class="st1" d="M602.8,556.6c13.3,37.1,40.6,133.7,51.5,141.4h-71.8
			c-0.2-8.5-1.3-17-3.4-25.3c-3.1-11-29.1-94.6-29.1-94.6h-114l-17.9,25.4c0,0,21.5,67.4,22.9,70.7c2.3,6,12.6,23.8,12.6,23.8h-68.8
			c0,0-1.8-10.3-2.5-14.6c-0.5-3.5-6.5-22.4-6.5-22.4s-15.6,17.1-19.8,25c-4.3,7.9-6.2,12-6.2,12H296c0,0-1.8-10.3-2.5-14.6
			c-0.5-3.5-7.1-23.9-7.1-23.9s-15.1,18.3-19.4,26.2c-4.3,7.9-6.1,12.3-6.1,12.3h-53.2c0,0,15-14.3,20.3-20.5
			c8.9-10.4,41.9-53.6,41.9-53.6l-13.2-45.8H143.5c0,0-64.5,84.8-67.1,87.4c-2.6,2.6-21.4,29.6-21.8,32.5H21.1v-21.3
			c0.4-0.5,0.9-0.9,1.3-1.3c1-0.8,48.9-60.2,92.9-118.8c39.5-51.1,76.6-100.8,79.9-105.5c7.9-11.4,19.2-36.2,19.2-36.2h58.5
			c0,0,1.8,22.7,3.5,28.3c1.5,4.9,37.2,121.8,38,123.1l19.7-25.2l-33.7-103.7c0,0-7.9-19.5-10.5-22.4h68.3
			c-0.2,6.3,0.5,12.5,2.2,18.6c2.8,8.6,17.4,61.4,17.4,61.4s46.6-58.4,49.3-62.6c3.3-5.2,5.3-11.2,5.8-17.4H490
			c0,0-10.4,7.6-28.7,30.7c-6.1,7.8-66.3,84.2-66.3,84.2s5.2,17.9,7.8,26.8c0.7,2.6,1.2,4.3,1.2,4.5c0,0.1,1.3-1.5,3.6-4.5
			c15.5-19.7,86.1-112.2,90.4-120.1c3.4-6.4,8.5-13.7,11.5-21.6h55.6c0,0,1.3,16.6,3,21.2L602.8,556.6z M518.3,469
			c-8.2,17.5-56.2,76-56.2,76h76c0,0-14.7-45.4-17.3-55.6c-1.3-6.5-1.8-13.2-1.5-19.9C519.4,468.5,519.2,467,518.3,469z M226.2,469
			c-8.2,17.5-56.2,76-56.2,76h76c0,0-14.7-45.4-17.3-55.6c-1.3-6.5-1.8-13.2-1.5-19.9C227.2,468.5,227,467,226.2,469z M340.6,646.2
			l20.9-28.7c-1.9-2.1-13.7-37.8-13.7-37.8l-20.2,26.3L340.6,646.2z"/>
	</g>
</g>
<path class="st1" d="M77.7,2v75.7H2V2H77.7 M79.7,0H0v79.7h79.7V0L79.7,0z"/>
</svg>
