<?xml version="1.0" encoding="utf-8"?>
<!-- Generator: Adobe Illustrator 23.1.1, SVG Export Plug-In . SVG Version: 6.00 Build 0)  -->
<svg version="1.1" id="Livello_1" xmlns="http://www.w3.org/2000/svg" xmlns:xlink="http://www.w3.org/1999/xlink" x="0px" y="0px"
	 viewBox="0 0 96 96" style="enable-background:new 0 0 96 96;" xml:space="preserve">
<style type="text/css">
	.st0{fill:#333333;}
</style>
<path id="Path_83" class="st0" d="M66.2,7H29.8C26.7,7,24,9.5,24,12.7v70.6c0,3.2,2.7,5.7,5.8,5.7h36.3c3.2,0,5.8-2.5,5.8-5.7V12.7
	C72,9.5,69.3,7,66.2,7z M26,18.4h44v56.8H26V18.4z M29.8,9h36.3c2.1,0,3.8,1.6,3.8,3.7v3.7H26v-3.7C26,10.6,27.8,9,29.8,9L29.8,9z
	 M66.2,87H29.8c-2.1,0-3.8-1.6-3.8-3.7v-6.1h44v6.1C70,85.4,68.2,87,66.2,87L66.2,87z"/>
<path id="Path_84" class="st0" d="M50.4,81.1h-4.8c-0.6,0-1,0.4-1,1s0.4,1,1,1h4.8c0.6,0,1-0.4,1-1S51,81.1,50.4,81.1z"/>
<path id="Path_85" class="st0" d="M46.8,13.7h2.4c0.6,0,1-0.4,1-1s-0.4-1-1-1h-2.4c-0.6,0-1,0.4-1,1S46.2,13.7,46.8,13.7z"/>
</svg>
