<?xml version="1.0" encoding="utf-8"?>
<!-- Generator: Adobe Illustrator 23.0.6, SVG Export Plug-In . SVG Version: 6.00 Build 0)  -->
<svg version="1.1" id="Livello_1" xmlns="http://www.w3.org/2000/svg" xmlns:xlink="http://www.w3.org/1999/xlink" x="0px" y="0px"
	 viewBox="0 0 16 16" style="enable-background:new 0 0 16 16;" xml:space="preserve">
<style type="text/css">
	.st0{fill:#FFFFFF;}
</style>
<g>
	<path class="st0" d="M12.9,2.4h-0.7V1h-1.4v1.4H5.2V1H3.8v1.4H3.1C2.3,2.4,1.7,3,1.7,3.8c0,0,0,0,0,0l0,9.8c0,0.8,0.6,1.4,1.4,1.4
		h9.8c0.8,0,1.4-0.6,1.4-1.4V3.8C14.3,3,13.7,2.4,12.9,2.4z M12.9,13.6H3.1V5.9h9.8V13.6z"/>
	<rect x="4.5" y="7.3" class="st0" width="1.4" height="1.4"/>
	<rect x="7.3" y="7.3" class="st0" width="1.4" height="1.4"/>
	<rect x="10.1" y="7.3" class="st0" width="1.4" height="1.4"/>
</g>
</svg>
