<?xml version="1.0" encoding="utf-8"?>
<!-- Generator: Adobe Illustrator 23.0.6, SVG Export Plug-In . SVG Version: 6.00 Build 0)  -->
<svg version="1.1" id="Livello_1" xmlns="http://www.w3.org/2000/svg" xmlns:xlink="http://www.w3.org/1999/xlink" x="0px" y="0px"
	 viewBox="0 0 20 20" style="enable-background:new 0 0 20 20;" xml:space="preserve">
<style type="text/css">
	.st0{fill:#00008F;}
</style>
<g id="Group_4975" transform="translate(-408.001 -485.599)">
	<g id="Group_4924" transform="translate(408.001 485.599)">
		<path class="st0" d="M12.7,0H8C7.2,0,6.6,0.6,6.6,1.4v2.2h2.5l5,5.2V16h2.4c0.8,0,1.4-0.6,1.4-1.4V5.1L12.7,0z M12.2,5.7V1.1
			l4.6,4.6H12.2z"/>
		<path class="st0" d="M8.5,4H3.6C2.9,4,2.3,4.6,2.2,5.4v13.2c0,0.8,0.6,1.4,1.4,1.4h8.6c0.8,0,1.4-0.6,1.4-1.4V9.1L8.5,4z
			 M12.4,17.6H3.4v-1.1h9.1V17.6z M12.4,15.3H3.4v-1.1h9.1V15.3z M12.4,13.1H3.4V12h9.1V13.1z M7.9,9.7V5.1l4.6,4.6H7.9z"/>
	</g>
</g>
</svg>
