<?xml version="1.0" encoding="utf-8"?>
<!-- Generator: Adobe Illustrator 23.0.6, SVG Export Plug-In . SVG Version: 6.00 Build 0)  -->
<svg version="1.1" id="Livello_1" xmlns="http://www.w3.org/2000/svg" xmlns:xlink="http://www.w3.org/1999/xlink" x="0px" y="0px"
	 viewBox="0 0 32 32" style="enable-background:new 0 0 32 32;" xml:space="preserve">
<style type="text/css">
	.st0{fill:#00008E;}
	.st1{fill:#00008F;}
</style>
<g>
	<path class="st1" d="M26.7,6.4c0-0.1-0.1-0.1-0.1-0.1l-5.1-5.1c0,0-0.1-0.1-0.1-0.1c-0.1,0-0.1,0-0.2,0H6.6C5.9,1,5.3,1.6,5.3,2.3
		v27.4c0,0.7,0.6,1.3,1.3,1.3h18.9c0.7,0,1.3-0.6,1.3-1.3V6.6C26.7,6.5,26.7,6.5,26.7,6.4z M21.6,2.5l3.7,3.7H22
		c-0.2,0-0.4-0.2-0.4-0.4V2.5z M25.9,29.7c0,0.2-0.2,0.4-0.4,0.4H6.6c-0.2,0-0.4-0.2-0.4-0.4V2.3c0-0.2,0.2-0.4,0.4-0.4h14.1v3.9
		C20.7,6.4,21.3,7,22,7h3.9V29.7z"/>
	<path class="st1" d="M9.1,5.7h6c0.2,0,0.4-0.2,0.4-0.4c0-0.2-0.2-0.4-0.4-0.4h-6C8.9,4.9,8.7,5,8.7,5.3C8.7,5.5,8.9,5.7,9.1,5.7z"
		/>
	<path class="st1" d="M9.1,8.3h3.4c0.2,0,0.4-0.2,0.4-0.4c0-0.2-0.2-0.4-0.4-0.4H9.1c-0.2,0-0.4,0.2-0.4,0.4
		C8.7,8.1,8.9,8.3,9.1,8.3z"/>
	<path class="st1" d="M8.7,13.9c0,0.2,0.2,0.4,0.4,0.4h13.7c0.2,0,0.4-0.2,0.4-0.4c0-0.2-0.2-0.4-0.4-0.4H9.1
		C8.9,13.4,8.7,13.6,8.7,13.9z"/>
	<path class="st1" d="M22.9,16H9.1c-0.2,0-0.4,0.2-0.4,0.4s0.2,0.4,0.4,0.4h13.7c0.2,0,0.4-0.2,0.4-0.4S23.1,16,22.9,16z"/>
	<path class="st1" d="M22.9,18.6H9.1c-0.2,0-0.4,0.2-0.4,0.4s0.2,0.4,0.4,0.4h13.7c0.2,0,0.4-0.2,0.4-0.4S23.1,18.6,22.9,18.6z"/>
	<path class="st1" d="M16,21.1H9.1c-0.2,0-0.4,0.2-0.4,0.4S8.9,22,9.1,22H16c0.2,0,0.4-0.2,0.4-0.4S16.2,21.1,16,21.1z"/>
</g>
</svg>
