<svg id="email_blue" data-name="svg 2px" xmlns="http://www.w3.org/2000/svg" viewBox="0 0 96 96"><defs><style>.cls-1{fill:#00008f;}</style></defs><title>email</title><path class="cls-1" d="M84,21H12a5,5,0,0,0-5,5V70a5,5,0,0,0,5,5H84a5,5,0,0,0,5-5V26A5,5,0,0,0,84,21Zm3,49a3,3,0,0,1-.32,1.31L62.9,48,87,28.81ZM12,23H84a3,3,0,0,1,3,3v.25L48,57.36,9,26.25V26A3,3,0,0,1,12,23ZM9.32,71.31A3,3,0,0,1,9,70V28.81L33.1,48ZM12,73a3,3,0,0,1-1.26-.29L34.67,49.29l12.7,10.13a1,1,0,0,0,1.25,0l12.7-10.13L85.26,72.71A3,3,0,0,1,84,73Z"/></svg>