<?xml version="1.0" encoding="utf-8"?>
<!-- Generator: Adobe Illustrator 23.1.1, SVG Export Plug-In . SVG Version: 6.00 Build 0)  -->
<svg version="1.1" id="Livello_1" xmlns="http://www.w3.org/2000/svg" xmlns:xlink="http://www.w3.org/1999/xlink" x="0px" y="0px"
	 viewBox="0 0 96 96" style="enable-background:new 0 0 96 96;" xml:space="preserve">
<style type="text/css">
	.st0{fill:#333333;}
</style>
<path id="Path_67" class="st0" d="M84,21H12c-2.8,0-5,2.2-5,5v44c0,2.8,2.2,5,5,5h72c2.8,0,5-2.2,5-5V26C89,23.2,86.8,21,84,21z
	 M87,70c0,0.5-0.1,0.9-0.3,1.3L62.9,48L87,28.8V70z M12,23h72c1.7,0,3,1.3,3,3v0.2L48,57.4L9,26.2V26C9,24.3,10.3,23,12,23z
	 M9.3,71.3C9.1,70.9,9,70.5,9,70V28.8L33.1,48L9.3,71.3z M12,73c-0.4,0-0.9-0.1-1.3-0.3l23.9-23.4l12.7,10.1c0.4,0.3,0.9,0.3,1.2,0
	l12.7-10.1l23.9,23.4C84.9,72.9,84.4,73,84,73H12z"/>
</svg>
