<?xml version="1.0" encoding="utf-8"?>
<!-- Generator: Adobe Illustrator 23.0.6, SVG Export Plug-In . SVG Version: 6.00 Build 0)  -->
<svg version="1.1" id="Livello_1" xmlns="http://www.w3.org/2000/svg" xmlns:xlink="http://www.w3.org/1999/xlink" x="0px" y="0px"
	 viewBox="0 0 42 42" style="enable-background:new 0 0 42 42;" xml:space="preserve">
<style type="text/css">
	.st0{fill:#00008F;}
</style>
<g>
	<path class="st0" d="M38.1,4.4h-5.7V3.3c0-1.3-1-2.3-2.3-2.3s-2.3,1-2.3,2.3v1.1H14.1V3.3c0-1.3-1-2.3-2.3-2.3S9.6,2,9.6,3.3v1.1
		H3.9c-0.9,0-1.7,0.8-1.7,1.7v33.1c0,0.9,0.8,1.7,1.7,1.7H33c0.1,0,0.1,0,0.2,0c0.1,0,0.1-0.1,0.2-0.1l6.3-6.3c0,0,0,0,0,0
		c0,0,0.1-0.1,0.1-0.2c0,0,0,0,0-0.1c0,0,0-0.1,0-0.2c0,0,0,0,0,0v-28C39.9,5.2,39.1,4.4,38.1,4.4z M29,3.3c0-0.6,0.5-1.1,1.1-1.1
		s1.1,0.5,1.1,1.1v3.4c0,0.6-0.5,1.1-1.1,1.1S29,7.3,29,6.7V3.3z M10.7,3.3c0-0.6,0.5-1.1,1.1-1.1c0.6,0,1.1,0.5,1.1,1.1v3.4
		c0,0.6-0.5,1.1-1.1,1.1c-0.6,0-1.1-0.5-1.1-1.1V3.3z M3.9,5.6h5.7v1.1c0,1.3,1,2.3,2.3,2.3s2.3-1,2.3-2.3V5.6h13.7v1.1
		c0,1.3,1,2.3,2.3,2.3s2.3-1,2.3-2.3V5.6h5.7c0.3,0,0.6,0.3,0.6,0.6v5.1H3.3V6.1C3.3,5.8,3.5,5.6,3.9,5.6z M3.3,39.3V12.4h35.4v21.1
		h-4.6c-0.9,0-1.7,0.8-1.7,1.7v4.6H3.9C3.5,39.9,3.3,39.6,3.3,39.3z M33.6,39v-3.8c0-0.3,0.3-0.6,0.6-0.6h3.8L33.6,39z"/>
	<path class="st0" d="M17,9h8c0.3,0,0.6-0.3,0.6-0.6S25.3,7.9,25,7.9h-8c-0.3,0-0.6,0.3-0.6,0.6S16.7,9,17,9z"/>
	<path class="st0" d="M9,15.3c-1.6,0-2.9,1.3-2.9,2.9S7.4,21,9,21s2.9-1.3,2.9-2.9S10.6,15.3,9,15.3z M9,19.9
		c-0.9,0-1.7-0.8-1.7-1.7s0.8-1.7,1.7-1.7s1.7,0.8,1.7,1.7S9.9,19.9,9,19.9z"/>
	<path class="st0" d="M17,15.3c-1.6,0-2.9,1.3-2.9,2.9S15.4,21,17,21s2.9-1.3,2.9-2.9S18.6,15.3,17,15.3z M17,19.9
		c-0.9,0-1.7-0.8-1.7-1.7s0.8-1.7,1.7-1.7s1.7,0.8,1.7,1.7S17.9,19.9,17,19.9z"/>
	<path class="st0" d="M25,15.3c-1.6,0-2.9,1.3-2.9,2.9S23.4,21,25,21s2.9-1.3,2.9-2.9S26.6,15.3,25,15.3z M25,19.9
		c-0.9,0-1.7-0.8-1.7-1.7s0.8-1.7,1.7-1.7s1.7,0.8,1.7,1.7S25.9,19.9,25,19.9z"/>
	<path class="st0" d="M33,21c1.6,0,2.9-1.3,2.9-2.9s-1.3-2.9-2.9-2.9c-1.6,0-2.9,1.3-2.9,2.9S31.4,21,33,21z M33,16.4
		c0.9,0,1.7,0.8,1.7,1.7s-0.8,1.7-1.7,1.7s-1.7-0.8-1.7-1.7S32.1,16.4,33,16.4z"/>
	<path class="st0" d="M9,23.3c-1.6,0-2.9,1.3-2.9,2.9S7.4,29,9,29s2.9-1.3,2.9-2.9S10.6,23.3,9,23.3z M9,27.9
		c-0.9,0-1.7-0.8-1.7-1.7s0.8-1.7,1.7-1.7s1.7,0.8,1.7,1.7S9.9,27.9,9,27.9z"/>
	<path class="st0" d="M17,23.3c-1.6,0-2.9,1.3-2.9,2.9S15.4,29,17,29s2.9-1.3,2.9-2.9S18.6,23.3,17,23.3z M17,27.9
		c-0.9,0-1.7-0.8-1.7-1.7s0.8-1.7,1.7-1.7s1.7,0.8,1.7,1.7S17.9,27.9,17,27.9z"/>
	<path class="st0" d="M25,23.3c-1.6,0-2.9,1.3-2.9,2.9S23.4,29,25,29s2.9-1.3,2.9-2.9S26.6,23.3,25,23.3z M25,27.9
		c-0.9,0-1.7-0.8-1.7-1.7s0.8-1.7,1.7-1.7s1.7,0.8,1.7,1.7S25.9,27.9,25,27.9z"/>
	<path class="st0" d="M33,29c1.6,0,2.9-1.3,2.9-2.9s-1.3-2.9-2.9-2.9c-1.6,0-2.9,1.3-2.9,2.9S31.4,29,33,29z M33,24.4
		c0.9,0,1.7,0.8,1.7,1.7s-0.8,1.7-1.7,1.7s-1.7-0.8-1.7-1.7S32.1,24.4,33,24.4z"/>
	<path class="st0" d="M9,31.3c-1.6,0-2.9,1.3-2.9,2.9C6.1,35.7,7.4,37,9,37s2.9-1.3,2.9-2.9C11.9,32.6,10.6,31.3,9,31.3z M9,35.9
		c-0.9,0-1.7-0.8-1.7-1.7s0.8-1.7,1.7-1.7s1.7,0.8,1.7,1.7S9.9,35.9,9,35.9z"/>
	<path class="st0" d="M17,31.3c-1.6,0-2.9,1.3-2.9,2.9c0,1.6,1.3,2.9,2.9,2.9s2.9-1.3,2.9-2.9C19.9,32.6,18.6,31.3,17,31.3z
		 M17,35.9c-0.9,0-1.7-0.8-1.7-1.7s0.8-1.7,1.7-1.7s1.7,0.8,1.7,1.7S17.9,35.9,17,35.9z"/>
	<path class="st0" d="M25,31.3c-1.6,0-2.9,1.3-2.9,2.9c0,1.6,1.3,2.9,2.9,2.9s2.9-1.3,2.9-2.9C27.9,32.6,26.6,31.3,25,31.3z
		 M25,35.9c-0.9,0-1.7-0.8-1.7-1.7s0.8-1.7,1.7-1.7s1.7,0.8,1.7,1.7S25.9,35.9,25,35.9z"/>
</g>
</svg>
