<svg version="1.2" xmlns="http://www.w3.org/2000/svg" viewBox="0 0 96 96" width="96" height="96"><style>.s0{fill:#00008f}</style><path fill-rule="evenodd" class="s0" d="m70.2 88.8c-0.6 0-1.2-0.1-1.8-0.4l-20.8-10.4l-20.8 10.4c-0.7 0.3-1.5 0.5-2.2 0.4c-2.2-0.2-3.8-2.2-3.6-4.5l3-24.1l-16-17.6c-1.5-1.7-1.4-4.2 0.3-5.7c0.5-0.5 1.2-0.8 1.9-1l22.7-4.4l11-21.3c1-2 3.5-2.8 5.5-1.8q1.2 0.6 1.8 1.8l11.1 21.3l22.7 4.4c2.2 0.4 3.6 2.6 3.2 4.8c-0.1 0.7-0.5 1.4-1 1.9l-16 17.6l3 24.1c0.2 2.2-1.4 4.2-3.6 4.5c-0.1 0-0.3 0-0.4 0zm-22.6-13l21.7 10.8c1 0.5 2.2 0.1 2.8-0.9c0.2-0.3 0.2-0.7 0.2-1.1l-3.1-25l16.6-18.3c0.8-0.8 0.7-2.1-0.2-2.9c-0.3-0.2-0.6-0.4-0.9-0.5h-0.1l-23.6-4.6l-11.5-22.1c-0.5-1-1.7-1.4-2.8-0.9q-0.6 0.3-0.9 0.9l-11.5 22.1l-23.6 4.6c-1.1 0.2-1.8 1.3-1.6 2.4c0.1 0.4 0.2 0.7 0.5 1l16.6 18.3l-3.1 25c-0.1 1.1 0.7 2.1 1.8 2.2c0.4 0 0.8 0 1.1-0.2z" /></svg>