<svg id="mobile_blue" data-name="svg 2px" xmlns="http://www.w3.org/2000/svg" viewBox="0 0 96 96"><defs><style>.cls-1{fill:#00008f;}</style></defs><title>mobile</title><path class="cls-1" d="M66.16,7H29.84A5.78,5.78,0,0,0,24,12.71V83.29A5.78,5.78,0,0,0,29.84,89H66.16A5.78,5.78,0,0,0,72,83.29V12.71A5.78,5.78,0,0,0,66.16,7ZM26,18.41H70V75.24H26ZM29.84,9H66.16A3.78,3.78,0,0,1,70,12.71v3.71H26V12.71A3.78,3.78,0,0,1,29.84,9ZM66.16,87H29.84A3.78,3.78,0,0,1,26,83.29V77.24H70v6.06A3.78,3.78,0,0,1,66.16,87Z"/><path class="cls-1" d="M50.42,81.12H45.58a1,1,0,0,0,0,2h4.84a1,1,0,0,0,0-2Z"/><path class="cls-1" d="M46.79,13.71h2.42a1,1,0,0,0,0-2H46.79a1,1,0,0,0,0,2Z"/></svg>