<svg id="note_pen_blue" data-name="blue_svg 2px" xmlns="http://www.w3.org/2000/svg" viewBox="0 0 96 96"><defs><style>.cls-1{fill:#00008f;}</style></defs><title>note_pen_blue</title><path class="cls-1" d="M19,48.19H43a1,1,0,0,0,0-2H19a1,1,0,1,0,0,2Z"/><path class="cls-1" d="M50.67,36.57H19a1,1,0,1,0,0,2H50.67a1,1,0,0,0,0-2Z"/><path class="cls-1" d="M19,57.81H43a1,1,0,0,0,0-2H19a1,1,0,1,0,0,2Z"/><path class="cls-1" d="M47.64,65.43H19a1,1,0,1,0,0,2H47.64a1,1,0,0,0,0-2Z"/><path class="cls-1" d="M72.49,32.76l-7.35-3.63a1,1,0,0,0-.76-.05,1,1,0,0,0-.58.5l-1.45,2.92V21.2a3.2,3.2,0,0,0-3.2-3.2H14.06a3.2,3.2,0,0,0-3.2,3.2V82.8a3.2,3.2,0,0,0,3.2,3.2h45.1a3.2,3.2,0,0,0,3.2-3.2V55.53L72.94,34.1A1,1,0,0,0,72.49,32.76ZM59.16,84H14.06a1.2,1.2,0,0,1-1.2-1.2V21.2a1.2,1.2,0,0,1,1.2-1.2h45.1a1.2,1.2,0,0,1,1.2,1.2V36.56L52.2,53.06a1.21,1.21,0,0,0-.22.46,1,1,0,0,0-.07.38L52,63a1,1,0,0,0,.56.89A1,1,0,0,0,53,64a1,1,0,0,0,.61-.21l6.77-5.16V82.8A1.2,1.2,0,0,1,59.16,84Zm.37-27.26L54,61l-.05-6.87h0L65.15,31.37l5.56,2.75Z"/><path class="cls-1" d="M85.09,20.25a1,1,0,0,0-.52-.58l-3.71-1.74a6.2,6.2,0,0,0,.43-4.67,4.69,4.69,0,0,0-2.36-2.8c-2.52-1.25-5.71.07-7.25,3L66.12,24.88a1,1,0,0,0,.46,1.33l7.35,3.63a1,1,0,0,0,1.34-.45L80,19.76l2.77,1.3L77,32.69a1,1,0,0,0,1.79.89L85,21A1,1,0,0,0,85.09,20.25ZM79,17.18l-.35.84-4.74,9.59-5.56-2.75,5.11-10.47c1-1.93,3.07-2.88,4.58-2.13a2.69,2.69,0,0,1,1.35,1.63A4.29,4.29,0,0,1,79,17.18Z"/></svg>