<?xml version="1.0" encoding="utf-8"?>
<!-- Generator: Adobe Illustrator 23.0.6, SVG Export Plug-In . SVG Version: 6.00 Build 0)  -->
<svg version="1.1" id="Livello_1" xmlns="http://www.w3.org/2000/svg" xmlns:xlink="http://www.w3.org/1999/xlink" x="0px" y="0px"
	 viewBox="0 0 42 42" style="enable-background:new 0 0 42 42;" xml:space="preserve">
<style type="text/css">
	.st0{fill:#00008E;}
	.st1{fill:#00008F;}
</style>
<g>
	<path class="st1" d="M24.8,11h-7.5c-0.3,0-0.6,0.3-0.6,0.6s0.3,0.6,0.6,0.6h7.5c0.3,0,0.6-0.3,0.6-0.6S25.1,11,24.8,11z"/>
	<path class="st1" d="M7.9,36c-0.3,0-0.6,0.3-0.6,0.6s0.3,0.6,0.6,0.6h26.2c0.3,0,0.6-0.3,0.6-0.6S34.5,36,34.1,36H7.9z"/>
	<path class="st1" d="M37.9,7.2h-4.7l-2.3-2.9l-1.3-1.6C28.5,1.5,27.8,1,25.8,1h-9.5c-2,0-2.8,0.5-3.9,1.8l-1.2,1.6L8.8,7.2H4.1
		C2.4,7.2,1,8.7,1,10.4v10c0,1.3,0.8,2.4,1.9,2.9v14.6C2.9,39.6,4.3,41,6,41h30c1.7,0,3.1-1.4,3.1-3.1V23.2c1.1-0.5,1.9-1.6,1.9-2.9
		v-10C41,8.7,39.6,7.2,37.9,7.2z M16.2,2.2h9.5c1.6,0,2,0.3,2.9,1.3l0.4,0.5H12.9l0.4-0.5C14.3,2.5,14.7,2.2,16.2,2.2z M11.9,5.4
		h18.1l1.5,1.9H10.4L11.9,5.4z M37.9,37.9c0,1-0.8,1.9-1.9,1.9H6c-1,0-1.9-0.8-1.9-1.9V23.5h12.5v0.6c0,1,0.8,1.9,1.9,1.9h5
		c1,0,1.9-0.8,1.9-1.9v-0.6h12.5V37.9z M24.1,24.1c0,0.3-0.3,0.6-0.6,0.6h-5c-0.3,0-0.6-0.3-0.6-0.6v-2.5c0-0.3,0.3-0.6,0.6-0.6h5
		c0.3,0,0.6,0.3,0.6,0.6V24.1z M39.8,20.4c0,1-0.8,1.9-1.9,1.9H25.4v-0.6c0-1-0.8-1.9-1.9-1.9h-5c-1,0-1.9,0.8-1.9,1.9v0.6H4.1
		c-1,0-1.9-0.8-1.9-1.9v-10c0-1,0.8-1.9,1.9-1.9h33.8c1,0,1.9,0.8,1.9,1.9V20.4z"/>
</g>
</svg>
