<svg id="phone_blue" data-name="svg 2px" xmlns="http://www.w3.org/2000/svg" viewBox="0 0 96 96"><defs><style>.cls-1{fill:#00008f;}</style></defs><title>phone</title><path class="cls-1" d="M83.62,71.64,69.68,57.7a4.7,4.7,0,0,0-6.64,0l-2.61,2.61a1,1,0,0,0-.19.27,13.71,13.71,0,0,0-3.32,9.49,38.34,38.34,0,0,1-31-31,13.73,13.73,0,0,0,9.49-3.32,1,1,0,0,0,.27-.19L38.3,33a4.7,4.7,0,0,0,0-6.64L24.36,12.38a4.7,4.7,0,0,0-6.64,0L15.1,15a1,1,0,0,0-.18.25,13.63,13.63,0,0,0-3.34,9.23A52.79,52.79,0,0,0,71.52,84.42a13.6,13.6,0,0,0,9.23-3.34A1,1,0,0,0,81,80.9l2.62-2.61a4.7,4.7,0,0,0,0-6.64ZM19.13,13.79a2.76,2.76,0,0,1,3.82,0L36.89,27.74a2.7,2.7,0,0,1,0,3.82L35,33.46,17.22,15.7ZM71.48,82.42h-.17A50.7,50.7,0,0,1,13.57,24.69a1.12,1.12,0,0,0,0-.17,11.66,11.66,0,0,1,2.32-7.31L33.47,34.78A11.8,11.8,0,0,1,24.86,37a1,1,0,0,0-.84.29,1,1,0,0,0-.28.85A40.34,40.34,0,0,0,57.87,72.25,1,1,0,0,0,59,71.14a11.82,11.82,0,0,1,2.22-8.61L78.79,80.1A11.63,11.63,0,0,1,71.48,82.42Zm10.73-5.55L80.3,78.78,62.54,61l1.91-1.91a2.7,2.7,0,0,1,3.82,0L82.21,73.06a2.7,2.7,0,0,1,0,3.82Z"/></svg>