<?xml version="1.0" encoding="utf-8"?>
<!-- Generator: Adobe Illustrator 23.1.1, SVG Export Plug-In . SVG Version: 6.00 Build 0)  -->
<svg version="1.1" id="Livello_1" xmlns="http://www.w3.org/2000/svg" xmlns:xlink="http://www.w3.org/1999/xlink" x="0px" y="0px"
	 viewBox="0 0 96 96" style="enable-background:new 0 0 96 96;" xml:space="preserve">
<style type="text/css">
	.st0{fill:#333333;}
</style>
<path id="Path_86" class="st0" d="M48,17.2c-2.5,0-4.6,2-4.6,4.5s2,4.6,4.5,4.6s4.6-2,4.6-4.5l0,0C52.5,19.2,50.5,17.2,48,17.2z
	 M48,24.3c-1.4,0-2.6-1.1-2.6-2.6c0-1.4,1.1-2.6,2.6-2.6c1.4,0,2.6,1.1,2.6,2.6l0,0C50.6,23.1,49.4,24.3,48,24.3L48,24.3z"/>
<path id="Path_87" class="st0" d="M87,78h-3.7v-5c0-0.6-0.4-1-1-1h-4.9l-1.1-33.7h6.1c0.6,0,1-0.4,1-1v-6c0-0.1,0-0.2-0.1-0.4v-0.1
	c0-0.1-0.1-0.2-0.2-0.2L83,30.5l-0.1-0.1L48.5,10.1c-0.3-0.2-0.7-0.2-1,0L13.2,30.4l-0.1,0.1L13,30.6c-0.1,0.1-0.1,0.2-0.2,0.2v0.1
	c0,0.1-0.1,0.2-0.1,0.4v6c0,0.6,0.4,1,1,1h6.1l-1.2,33.8h-4.9c-0.6,0-1,0.4-1,1v5H9c-0.6,0-1,0.4-1,1v6c0,0.6,0.4,1,1,1h78
	c0.6,0,1-0.4,1-1V79C88,78.4,87.6,78,87,78z M75.3,72h-7.4L69,38.2h5.2L75.3,72z M53.7,72l-1.1-33.7h14.5L66,72.1L53.7,72z M30,72
	l-1.1-33.7h14.5l-1.1,33.8L30,72z M45.4,38.3h5.2l1.1,33.8h-7.4L45.4,38.3z M48,12.2l30.6,18.1H17.4L48,12.2z M14.7,32.3h66.5v4
	H14.7V32.3z M21.8,38.3H27l1.1,33.8h-7.4L21.8,38.3z M14.7,74.1h66.5v4H14.7V74.1z M86,84H10v-4h76V84z"/>
</svg>
