<?xml version="1.0" encoding="utf-8"?>
<!-- Generator: Adobe Illustrator 23.0.6, SVG Export Plug-In . SVG Version: 6.00 Build 0)  -->
<svg version="1.1" id="Livello_1" xmlns="http://www.w3.org/2000/svg" xmlns:xlink="http://www.w3.org/1999/xlink" x="0px" y="0px"
	 viewBox="0 0 16 16" style="enable-background:new 0 0 16 16;" xml:space="preserve">
<style type="text/css">
	.st0{fill-rule:evenodd;clip-rule:evenodd;fill:#00008F;}
	.st1{fill:#00008F;}
</style>
<g id="CTA_Desktop_Tablet_Link_RightArrow_Blue" transform="translate(-146.831 -3.101)">
	<g id="Group_42" transform="translate(146.831 3.101)">
		<path id="Path_5135" class="st0" d="M15,12.3l-0.4-1.9l-0.4-1.9L12.3,9l-1.9,0.6l1.7,1c-1.5,2.4-4.6,3.2-7.1,1.8
			C4,11.8,3.2,10.7,2.8,9.5L1.9,9.8L1.5,10c1.1,3.5,4.8,5.4,8.2,4.3c1.5-0.5,2.9-1.5,3.7-2.9L15,12.3z"/>
		<path id="Path_5135_2_" class="st0" d="M1,3.7l0.4,1.9l0.4,1.9L3.7,7l1.9-0.6l-1.7-1c1.5-2.4,4.6-3.2,7.1-1.8
			c1.1,0.6,1.9,1.7,2.3,2.9l0.9-0.3L14.5,6c-1.1-3.5-4.8-5.4-8.2-4.3C4.8,2.2,3.4,3.3,2.6,4.7L1,3.7z"/>
	</g>
</g>
</svg>
