<?xml version="1.0" encoding="utf-8"?>
<!-- Generator: Adobe Illustrator 23.0.6, SVG Export Plug-In . SVG Version: 6.00 Build 0)  -->
<svg version="1.1" id="Livello_1" xmlns="http://www.w3.org/2000/svg" xmlns:xlink="http://www.w3.org/1999/xlink" x="0px" y="0px"
	 viewBox="0 0 16 16" style="enable-background:new 0 0 16 16;" xml:space="preserve">
<style type="text/css">
	.st0{fill-rule:evenodd;clip-rule:evenodd;fill:#00008F;}
	.st1{fill:#00008F;}
</style>
<path id="Shape" class="st1" d="M13.8,15L13.8,15l-4-4v-0.6l-0.2-0.2C7.4,12,4.1,11.8,2.3,9.6S0.6,4.1,2.8,2.3s5.5-1.6,7.3,0.6
	c1.7,1.9,1.7,4.8,0,6.8l0.2,0.2H11l4,4L13.8,15z M6.2,2.6c-2,0-3.6,1.6-3.6,3.6s1.6,3.6,3.6,3.6s3.6-1.6,3.6-3.6S8.2,2.6,6.2,2.6
	L6.2,2.6z"/>
</svg>
