<?xml version="1.0" encoding="utf-8"?>
<!-- Generator: Adobe Illustrator 23.1.1, SVG Export Plug-In . SVG Version: 6.00 Build 0)  -->
<svg version="1.1" id="Livello_1" xmlns="http://www.w3.org/2000/svg" xmlns:xlink="http://www.w3.org/1999/xlink" x="0px" y="0px"
	 viewBox="0 0 96 96" style="enable-background:new 0 0 96 96;" xml:space="preserve">
<style type="text/css">
	.st0{fill:#333333;}
</style>
<path id="Path_88" class="st0" d="M48,42.6c-3,0-5.4,2.4-5.4,5.4s2.4,5.4,5.4,5.4s5.4-2.4,5.4-5.4l0,0C53.4,45,51,42.6,48,42.6z
	 M48,51.4c-1.9,0-3.4-1.5-3.4-3.4l0,0l0,0c0-1.9,1.5-3.4,3.4-3.4l0,0l0,0c1.9,0,3.4,1.5,3.4,3.4l0,0l0,0
	C51.4,49.9,49.9,51.4,48,51.4L48,51.4z"/>
<path id="Path_89" class="st0" d="M32.7,42.6c-3,0-5.4,2.4-5.4,5.4s2.4,5.4,5.4,5.4s5.4-2.4,5.4-5.4l0,0
	C38.1,45,35.7,42.6,32.7,42.6z M32.7,51.4c-1.9,0-3.4-1.5-3.4-3.4s1.5-3.4,3.4-3.4c1.9,0,3.4,1.5,3.4,3.4l0,0
	C36.1,49.9,34.6,51.4,32.7,51.4z"/>
<path id="Path_90" class="st0" d="M63.3,42.6c-3,0-5.4,2.4-5.4,5.4s2.4,5.4,5.4,5.4c3,0,5.4-2.4,5.4-5.4l0,0
	C68.7,45,66.3,42.6,63.3,42.6z M63.3,51.4c-1.9,0-3.4-1.5-3.4-3.4l0,0l0,0c0-1.9,1.5-3.4,3.4-3.4l0,0l0,0c1.9,0,3.4,1.5,3.4,3.4
	S65.2,51.4,63.3,51.4C63.4,51.4,63.4,51.4,63.3,51.4L63.3,51.4z"/>
<path id="Path_91" class="st0" d="M48,12c-19.9,0-36,16.1-36,36c0,6,1.5,11.9,4.4,17.2L12,82.8c-0.2,0.5,0.1,1.1,0.7,1.2
	c0.2,0.1,0.4,0.1,0.6,0l17.5-4.4c17.5,9.5,39.3,3.1,48.8-14.4s3.1-39.3-14.4-48.8C59.9,13.5,54,12,48,12z M48,82
	c-5.8,0-11.5-1.5-16.6-4.4c-0.2-0.1-0.5-0.2-0.7-0.1l-16.3,4.1l4.1-16.3c0.1-0.2,0-0.5-0.1-0.7c-9.2-16.4-3.3-37.1,13.1-46.3
	s37-3.3,46.2,13.1s3.3,37.1-13,46.3C59.6,80.5,53.9,82,48,82z"/>
</svg>
