<svg width="129" height="128" viewBox="0 0 129 128" fill="none" xmlns="http://www.w3.org/2000/svg">
    <path
        d="M64.5 120C95.4279 120 120.5 94.9279 120.5 64C120.5 33.0721 95.4279 8 64.5 8C33.5721 8 8.5 33.0721 8.5 64C8.5 94.9279 33.5721 120 64.5 120Z"
        fill="#EAEAEA" />
    <path d="M55.1834 89.1795L54.3721 90.5585L88.1721 110.444L88.9835 109.065L55.1834 89.1795Z"
        fill="white" />
    <path d="M40.785 17.1765L39.9736 18.5555L73.7737 38.4415L74.585 37.0624L40.785 17.1765Z"
        fill="white" />
    <path fill-rule="evenodd" clip-rule="evenodd"
        d="M56.5001 44.784L112.548 77.232L74.4201 93.376L18.3721 60.912L56.5001 44.768V44.784Z"
        fill="#668DC6" />
    <path fill-rule="evenodd" clip-rule="evenodd"
        d="M55.5399 35.2C55.5399 35.2 74.7719 45.824 88.02 53.952C101.956 62.544 115.38 65.136 115.38 65.136C115.38 65.136 108.884 72.368 102.148 75.28C96.7559 77.632 91.0439 80 87.9559 81.056C84.1639 82.384 74.6119 85.792 74.6119 85.792C74.6119 85.792 65.1079 81.008 60.6119 78.688C50.6119 73.312 15.0439 52.32 15.0439 52.32L55.5239 35.2H55.5399Z"
        fill="white" />
    <path fill-rule="evenodd" clip-rule="evenodd"
        d="M51.0922 45.952L54.5962 48.048L39.1882 54.48L35.7002 52.496L51.0922 45.968V45.952Z"
        fill="#4975B8" />
    <path fill-rule="evenodd" clip-rule="evenodd"
        d="M65.7476 48L67.8756 49.168L60.3396 52.368L58.3076 51.184L65.7476 48Z" fill="#B5D0EE" />
    <path fill-rule="evenodd" clip-rule="evenodd"
        d="M56.8844 51.76L59.0124 52.928L48.4204 57.488L46.2764 56.208L56.8844 51.744V51.76Z"
        fill="#B5D0EE" />
    <path fill-rule="evenodd" clip-rule="evenodd"
        d="M44.3397 57.04L46.4677 58.208L41.8758 60.16L39.8438 58.976L44.3237 57.04H44.3397Z"
        fill="#B5D0EE" />
    <path fill-rule="evenodd" clip-rule="evenodd"
        d="M56.5803 64.64L58.6123 65.824L54.1323 67.76L51.9883 66.48L56.5803 64.64Z" fill="#B5D0EE" />
    <path fill-rule="evenodd" clip-rule="evenodd"
        d="M72.18 51.712L74.212 52.896L70.532 54.432L68.5 53.248L72.18 51.712Z" fill="#B5D0EE" />
    <path fill-rule="evenodd" clip-rule="evenodd"
        d="M66.9638 53.824L69.1078 55.104L58.6118 59.552L56.4678 58.272L66.9638 53.824Z"
        fill="#B5D0EE" />
    <path fill-rule="evenodd" clip-rule="evenodd"
        d="M54.9481 58.96L57.0761 60.128L48.3081 63.872L46.1641 62.592L54.9321 58.96H54.9481Z"
        fill="#B5D0EE" />
    <path fill-rule="evenodd" clip-rule="evenodd"
        d="M65.908 66.688L68.036 67.856L59.268 71.6L57.124 70.32L65.892 66.688H65.908Z"
        fill="#B5D0EE" />
    <path fill-rule="evenodd" clip-rule="evenodd"
        d="M78.3876 55.344L80.5156 56.512L73.0756 59.696L70.9316 58.416L78.3876 55.328V55.344Z"
        fill="#B5D0EE" />
    <path fill-rule="evenodd" clip-rule="evenodd"
        d="M69.5084 59.104L71.6364 60.272L61.0284 64.736L58.9004 63.568L69.5084 59.104Z"
        fill="#B5D0EE" />
    <path
        d="M81.7643 70.496C82.0363 68.976 81.9883 67.392 81.5083 65.84C81.1563 64.496 80.5483 62.64 79.0283 62.256C77.1723 61.696 77.7803 64.608 78.0843 65.536C78.5323 66.88 79.5243 68.256 81.0443 68.528C82.5643 68.912 83.9403 67.808 84.0043 66.208C83.8123 66.336 83.6203 66.56 83.5243 66.688C84.3723 66.704 85.0923 66.432 85.6683 65.84C86.3563 65.248 86.9003 64.336 87.9243 64.016C88.4363 63.856 88.1483 63.04 87.6363 63.2C86.8043 63.392 86.2443 64.08 85.6523 64.672C85.1723 65.248 84.5003 65.856 83.7483 65.824C83.4283 65.856 83.2363 65.984 83.2683 66.304C83.2203 66.848 82.8523 67.408 82.3243 67.568C81.7163 67.84 81.0443 67.584 80.5963 67.312C79.3483 66.48 78.8683 64.832 78.8363 63.456C78.8363 63.344 78.7883 63.04 78.9003 63.024C79.0123 63.008 79.2363 63.2 79.3483 63.2C79.6843 63.376 79.8283 63.68 80.0683 63.984C80.4523 64.576 80.7243 65.296 80.9163 66.032C81.2683 67.488 81.4283 68.96 81.1403 70.368C80.8843 70.928 81.7483 71.152 81.7963 70.512L81.7643 70.496Z"
        fill="#668DC6" />
    <path
        d="M88.6441 50.4C94.3881 50.4 99.0441 45.744 99.0441 40C99.0441 34.256 94.3881 29.6 88.6441 29.6C82.9001 29.6 78.2441 34.256 78.2441 40C78.2441 45.744 82.9001 50.4 88.6441 50.4Z"
        fill="#1CC54E" />
    <path
        d="M87.5242 44.864L83.0442 40.768C82.9162 40.64 82.9162 40.4 83.0442 40.272L84.1642 39.024C84.2922 38.896 84.5322 38.896 84.6602 39.024L87.2682 41.504C87.3962 41.632 87.6362 41.632 87.7642 41.504L92.4842 36.4C92.6122 36.272 92.8522 36.272 92.9802 36.4L94.2282 37.52C94.3562 37.648 94.3562 37.888 94.2282 38.016L87.7642 44.976C87.8922 44.976 87.6362 44.976 87.5082 44.848L87.5242 44.864Z"
        fill="#FBF5F3" />
</svg>
    