<?xml version="1.0" encoding="utf-8"?>
<!-- Generator: Adobe Illustrator 23.0.6, SVG Export Plug-In . SVG Version: 6.00 Build 0)  -->
<svg version="1.1" id="Livello_1" xmlns="http://www.w3.org/2000/svg" xmlns:xlink="http://www.w3.org/1999/xlink" x="0px" y="0px"
	 viewBox="0 0 40 40" style="enable-background:new 0 0 40 40;" xml:space="preserve">
<style type="text/css">
	.st0{fill:none;}
	.st1{fill:#C91432;}
	.st2{fill:#1CC54E;}
	.st3{fill:#F6A473;}
	.st4{fill:#FFFFFF;}
	.st5{fill:#91B4EB;}
	.st6{fill:#00008F;}
	.st7{fill:#B5D0EE;}
	.st8{fill:#FFFFFF;stroke:#00008F;stroke-width:2;stroke-linecap:round;stroke-linejoin:round;}
</style>
<g id="Group_4965" transform="translate(-849.226 -493.971)">
	<g id="Path_8338">
		<path class="st2" d="M869.2,534c-11,0-20-9-20-20s9-20,20-20s20,9,20,20S880.3,534,869.2,534z M869.2,495c-10.5,0-19,8.5-19,19
			c0,10.5,8.5,19,19,19s19-8.5,19-19C888.2,503.5,879.7,495,869.2,495z"/>
	</g>
	<g>
		<path class="st2" d="M867.1,522.5C867.1,522.5,867.1,522.5,867.1,522.5c-0.8,0-1.6-0.4-2.2-1l-5.4-7c-0.8-0.9-0.7-2.4,0.2-3.2
			c0.5-0.4,1.1-0.6,1.7-0.6c0.6,0.1,1.2,0.4,1.6,0.8l4.1,5.3l9.4-11.7c0,0,0,0,0,0c0.4-0.5,0.9-0.8,1.6-0.8c0.6,0,1.2,0.1,1.7,0.6
			c0.9,0.8,1,2.3,0.2,3.2l-10.7,13.4C868.7,522.1,867.9,522.5,867.1,522.5z M861.2,511.7c-0.3,0-0.6,0.1-0.8,0.3
			c-0.5,0.5-0.6,1.3-0.1,1.9l5.4,7c0.3,0.4,0.9,0.7,1.4,0.7l0,0c0.5,0,1.1-0.2,1.4-0.7l10.7-13.4c0.5-0.6,0.4-1.4-0.1-1.9
			c-0.3-0.2-0.6-0.3-0.9-0.3c-0.3,0-0.6,0.2-0.9,0.5l-9.8,12.2c-0.1,0.1-0.2,0.2-0.4,0.2c-0.2,0-0.3-0.1-0.4-0.2l-4.5-5.8
			c-0.2-0.3-0.5-0.4-0.9-0.5C861.3,511.7,861.3,511.7,861.2,511.7z"/>
	</g>
</g>
</svg>
