<?xml version="1.0" encoding="utf-8"?>
<!-- Generator: Adobe Illustrator 23.1.1, SVG Export Plug-In . SVG Version: 6.00 Build 0)  -->
<svg version="1.1" id="Livello_1" xmlns="http://www.w3.org/2000/svg" xmlns:xlink="http://www.w3.org/1999/xlink" x="0px" y="0px"
	 viewBox="0 0 96 96" style="enable-background:new 0 0 96 96;" xml:space="preserve">
<style type="text/css">
	.st0{fill:#333333;}
</style>
<path id="Path_111" class="st0" d="M77,22.8c0-0.1,0-0.3-0.1-0.4s-0.1-0.2-0.2-0.3l0,0l-14-13.8l0,0l0,0h-0.1
	C62.5,8.1,62.3,8,62.1,8H62H22.3C20.5,8,19,9.5,19,11.3v73.4c0,1.8,1.5,3.3,3.3,3.3h51.4c1.8,0,3.3-1.5,3.3-3.3V22.8z M63,11.4
	l10.6,10.4h-9.2c-0.7,0-1.3-0.6-1.3-1.3v-9.1H63z M75,84.7c0,0.7-0.6,1.3-1.3,1.3H22.3c-0.7,0-1.3-0.6-1.3-1.3V11.3
	c0-0.7,0.6-1.3,1.3-1.3H61v10.5c0,1.8,1.5,3.3,3.3,3.3H75V84.7z"/>
<path id="Path_112" class="st0" d="M47.2,30.4c0,0.6,0.4,1,1,1h17.7c0.6,0,1-0.4,1-1s-0.4-1-1-1H48.2C47.6,29.4,47.2,29.9,47.2,30.4
	z"/>
<path id="Path_113" class="st0" d="M38.5,26.9l-5.4,5L31,29c-0.3-0.4-1-0.5-1.4-0.2s-0.5,1-0.2,1.4l2.8,3.6c0.2,0.2,0.4,0.4,0.7,0.4
	H33c0.3,0,0.5-0.1,0.7-0.3l6.2-5.7c0.4-0.4,0.4-1,0.1-1.4C39.6,26.5,38.9,26.5,38.5,26.9C38.5,26.8,38.5,26.8,38.5,26.9L38.5,26.9z"
	/>
<path id="Path_114" class="st0" d="M65.8,40.1H48.2c-0.6,0-1,0.4-1,1s0.4,1,1,1h17.7c0.6,0,1-0.4,1-1S66.4,40.1,65.8,40.1z"/>
<path id="Path_115" class="st0" d="M38.5,37.5l-5.4,5L31,39.7c-0.3-0.4-1-0.5-1.4-0.2s-0.5,1-0.2,1.4l2.8,3.6
	c0.2,0.2,0.4,0.4,0.7,0.4H33c0.3,0,0.5-0.1,0.7-0.3l6.2-5.7c0.4-0.4,0.4-1,0.1-1.4C39.6,37.1,38.9,37.1,38.5,37.5L38.5,37.5
	L38.5,37.5z"/>
<path id="Path_116" class="st0" d="M65.8,50.7H48.2c-0.6,0-1,0.4-1,1s0.4,1,1,1h17.7c0.6,0,1-0.4,1-1S66.4,50.7,65.8,50.7z"/>
<path id="Path_117" class="st0" d="M38.5,48.1l-5.4,5L31,50.3c-0.3-0.4-1-0.5-1.4-0.2s-0.5,1-0.2,1.4l2.8,3.6
	c0.2,0.2,0.4,0.4,0.7,0.4H33c0.3,0,0.5-0.1,0.7-0.3l6.2-5.7c0.4-0.4,0.4-1,0.1-1.4C39.6,47.7,38.9,47.7,38.5,48.1L38.5,48.1
	L38.5,48.1z"/>
<path id="Path_118" class="st0" d="M65.8,62.4H48.2c-0.6,0-1,0.4-1,1c0,0.6,0.4,1,1,1h17.7c0.6,0,1-0.4,1-1
	C66.9,62.8,66.4,62.4,65.8,62.4z"/>
<path id="Path_119" class="st0" d="M38.5,59.9l-5.4,5L31,62c-0.3-0.4-1-0.5-1.4-0.2s-0.5,1-0.2,1.4l2.8,3.6c0.2,0.2,0.4,0.4,0.7,0.4
	H33c0.3,0,0.5-0.1,0.7-0.3l6.2-5.7c0.4-0.4,0.4-1,0.1-1.4C39.6,59.5,38.9,59.5,38.5,59.9C38.5,59.8,38.5,59.8,38.5,59.9L38.5,59.9z"
	/>
<path id="Path_120" class="st0" d="M65.8,74.2H48.2c-0.6,0-1,0.4-1,1s0.4,1,1,1h17.7c0.6,0,1-0.4,1-1S66.4,74.2,65.8,74.2z"/>
<path id="Path_121" class="st0" d="M38.5,71.6l-5.4,5L31,73.8c-0.3-0.4-1-0.5-1.4-0.2s-0.5,1-0.2,1.4l2.8,3.6
	c0.2,0.2,0.4,0.4,0.7,0.4H33c0.3,0,0.5-0.1,0.7-0.3l6.2-5.7c0.4-0.4,0.4-1,0.1-1.4C39.6,71.2,38.9,71.2,38.5,71.6L38.5,71.6
	L38.5,71.6z"/>
</svg>
