<?xml version="1.0" encoding="utf-8"?>
<!-- Generator: Adobe Illustrator 23.1.1, SVG Export Plug-In . SVG Version: 6.00 Build 0)  -->
<svg version="1.1" id="Livello_1" xmlns="http://www.w3.org/2000/svg" xmlns:xlink="http://www.w3.org/1999/xlink" x="0px" y="0px"
	 viewBox="0 0 96 96" style="enable-background:new 0 0 96 96;" xml:space="preserve">
<style type="text/css">
	.st0{fill:#333333;}
</style>
<path id="Path_66" class="st0" d="M83.6,71.6L69.7,57.7c-1.8-1.8-4.8-1.8-6.6,0l-2.6,2.6c-0.1,0.1-0.1,0.2-0.2,0.3
	c-2.3,2.6-3.5,6-3.3,9.5c-15.8-2.8-28.2-15.2-31-31c3.5,0.1,6.9-1.1,9.5-3.3c0.1,0,0.2-0.1,0.3-0.2l2.6-2.6c1.8-1.8,1.8-4.8,0-6.6
	l-13.9-14c-1.8-1.8-4.8-1.8-6.6,0L15.1,15c-0.1,0.1-0.1,0.2-0.2,0.2c-2.2,2.6-3.4,5.8-3.3,9.2c-4.3,28.9,15.6,55.8,44.5,60
	c5.1,0.8,10.3,0.8,15.4,0c3.4,0.1,6.7-1.1,9.2-3.3c0.1,0,0.2-0.1,0.2-0.2l2.6-2.6C85.4,76.4,85.4,73.5,83.6,71.6L83.6,71.6z
	 M19.1,13.8c1.1-1,2.8-1,3.8,0l13.9,13.9c1.1,1.1,1.1,2.8,0,3.8l0,0l-1.8,2L17.2,15.7L19.1,13.8z M71.5,82.4h-0.2
	c-27.7,4.2-53.5-14.8-57.7-42.5c-0.8-5-0.8-10.2,0-15.2c0-0.1,0-0.1,0-0.2c-0.1-2.6,0.7-5.2,2.3-7.3l17.6,17.6
	c-2.5,1.8-5.6,2.6-8.6,2.2c-0.5-0.1-1.1,0.3-1.1,0.9c0,0.1,0,0.2,0,0.3c2.6,17.7,16.5,31.5,34.1,34.1c0.5,0.1,1.1-0.3,1.1-0.9
	c0-0.1,0-0.2,0-0.3c-0.4-3,0.4-6.1,2.2-8.6l17.6,17.6C76.7,81.7,74.1,82.5,71.5,82.4z M82.2,76.9l-1.9,1.9L62.5,61l1.9-1.9
	c1.1-1.1,2.8-1.1,3.8,0l0,0l13.9,14C83.3,74.1,83.3,75.8,82.2,76.9L82.2,76.9L82.2,76.9z"/>
</svg>
