<?xml version="1.0" encoding="utf-8"?>
<!-- Generator: Adobe Illustrator 23.0.6, SVG Export Plug-In . SVG Version: 6.00 Build 0)  -->
<svg version="1.1" id="Livello_1" xmlns="http://www.w3.org/2000/svg" xmlns:xlink="http://www.w3.org/1999/xlink" x="0px" y="0px"
	 viewBox="0 0 40 40" style="enable-background:new 0 0 40 40;" xml:space="preserve">
<style type="text/css">
	.st0{fill:none;}
	.st1{fill:#C91432;}
	.st2{fill:#1CC54E;}
	.st3{fill:#F6A473;}
	.st4{fill:#FFFFFF;}
	.st5{fill:#91B4EB;}
	.st6{fill:#00008F;}
	.st7{fill:#B5D0EE;}
	.st8{fill:#FFFFFF;stroke:#00008F;stroke-width:2;stroke-linecap:round;stroke-linejoin:round;}
</style>
<g>
	<path class="st3" d="M20,0C9,0,0,9,0,20s9,20,20,20s20-9,20-20S31,0,20,0z M20,39C9.5,39,1,30.5,1,20C1,9.5,9.5,1,20,1
		s19,8.5,19,19C39,30.5,30.5,39,20,39z"/>
	<path class="st3" d="M21.3,9.6c-0.3-0.5-0.8-0.8-1.3-0.8s-1.1,0.3-1.3,0.8L8.1,27.8c-0.3,0.5-0.3,1.1,0,1.6
		c0.3,0.5,0.8,0.8,1.3,0.8h21.2c0.6,0,1.1-0.3,1.3-0.8c0.3-0.5,0.3-1.1,0-1.6L21.3,9.6z M31,28.9L31,28.9c-0.1,0.2-0.3,0.3-0.4,0.3
		H9.4c-0.2,0-0.4-0.1-0.4-0.3c-0.1-0.2-0.1-0.4,0-0.5l10.6-18.2c0.1-0.2,0.3-0.3,0.4-0.3s0.4,0.1,0.4,0.3L31,28.4
		C31.1,28.5,31.1,28.7,31,28.9z"/>
	<path class="st3" d="M20,22.9c0.9,0,1.6-0.7,1.6-1.6v-4.5c0-0.9-0.7-1.6-1.6-1.6s-1.6,0.7-1.6,1.6v4.5C18.4,22.3,19.1,22.9,20,22.9
		z M19.5,16.9c0-0.3,0.2-0.5,0.5-0.5s0.5,0.2,0.5,0.5v4.5c0,0.3-0.2,0.5-0.5,0.5s-0.5-0.2-0.5-0.5V16.9z"/>
	<path class="st3" d="M20,23.6c-1,0-1.9,0.9-1.9,1.9s0.9,1.9,1.9,1.9s1.9-0.9,1.9-1.9S21,23.6,20,23.6z M20,26.4
		c-0.5,0-0.9-0.4-0.9-0.9s0.4-0.9,0.9-0.9s0.9,0.4,0.9,0.9S20.5,26.4,20,26.4z"/>
</g>
</svg>
