<svg width="129" height="128" viewBox="0 0 129 128" fill="none" xmlns="http://www.w3.org/2000/svg">
    <path
        d="M64.5 128C99.8462 128 128.5 99.3462 128.5 64C128.5 28.6538 99.8462 0 64.5 0C29.1538 0 0.5 28.6538 0.5 64C0.5 99.3462 29.1538 128 64.5 128Z"
        fill="#EAEAEA" />
    <path d="M62.1907 51.0178L28.8184 31.3308" stroke="white" stroke-width="2"
        stroke-miterlimit="10" />
    <path d="M93.3917 108.428L60.0117 88.7329" stroke="white" stroke-width="2"
        stroke-miterlimit="10" />
    <path d="M82.6426 23.1655L84.1029 15.6194" stroke="white" stroke-width="2"
        stroke-miterlimit="10" />
    <path d="M92.3066 27.9209L97.4062 22.1639" stroke="white" stroke-width="2"
        stroke-miterlimit="10" />
    <path d="M95.2578 34.6261L102.429 37.3938" stroke="white" stroke-width="2"
        stroke-miterlimit="10" />
    <path
        d="M34.7601 100.515L61.5192 21.5371C62.4213 18.8765 66.4658 17.2633 67.3756 18.8765L92.8731 67.8073C93.7829 69.4358 92.6361 72.7463 90.8089 73.7784L38.3688 104.36C36.5644 105.301 33.8809 103.122 34.7601 100.515Z"
        fill="#DD6457" />
    <path
        d="M36.7538 100.514L63.5128 21.5369C64.4073 18.8763 66.678 17.5613 67.5878 19.1745L94.8591 67.7842C95.7766 69.4127 94.6297 72.7232 92.7948 73.7553L38.7645 104.115C36.9908 105.117 35.9128 103.121 36.7538 100.514Z"
        fill="#F07662" />
    <path d="M68.7362 64.3363L64.2866 66.867L64.2637 41.033L68.721 38.4718L68.7362 64.3363Z"
        fill="#FBF5F3" />
    <path d="M68.7425 74.4511L64.2928 76.9665L64.2852 72.234L68.7425 69.711V74.4511Z" fill="#FBF5F3" />
</svg>
    