<svg id="blue_svg_2px" xmlns="http://www.w3.org/2000/svg" viewBox="0 0 140 140"><defs><style>.cls-1{fill:#00008f;}</style></defs><title>site_foreman_blue_circle</title><path class="cls-1" d="M70,0a70,70,0,1,0,70,70A70.08,70.08,0,0,0,70,0Zm0,138a68,68,0,1,1,68-68A68.08,68.08,0,0,1,70,138Z"/><path class="cls-1" d="M88.51,79.88l-9.26-1.53v-5a15,15,0,0,0,4.61-9.92A14.92,14.92,0,0,0,89.8,51.06V49.71h1.34a1,1,0,0,0,1-1V44.08a1,1,0,0,0-.08-.39A1,1,0,0,0,92,43.6a1,1,0,0,0-.15-.22l-.1-.07a1,1,0,0,0-.22-.15,1,1,0,0,0-.15,0,1,1,0,0,0-.23,0H89.61a20.15,20.15,0,0,0-14-16.28h0l-.5-.14c-.38-.11-.77-.2-1.18-.28l-.45-.08c-.36-.06-.72-.11-1.09-.16l-.63-.07c-.45,0-.9-.06-1.36-.06h-.42c-.51,0-1,0-1.57.08l-.45,0c-.36,0-.72.1-1.08.16A19.57,19.57,0,0,0,50.6,43.08H49.08a1,1,0,0,0-1,1v4.63a1,1,0,0,0,1,1h1.2v1c0,4.87,2.48,10.09,5.94,12.64a15,15,0,0,0,4.61,9.94v5l-9.32,1.54A16.15,16.15,0,0,0,37.43,95.76v5.48a5.71,5.71,0,0,0,4.17,5.43l1.1,5.33a2.55,2.55,0,0,0,2.48,2,2.49,2.49,0,0,0,.52-.05l38.63-7.87-.87,5.25a1.66,1.66,0,0,0,1.37,1.91l4.25.7.27,0A1.66,1.66,0,0,0,91,112.59l.8-4.83,6-.93a5.74,5.74,0,0,0,4.76-5.59V95.76A16.15,16.15,0,0,0,88.51,79.88ZM87.8,51.06a13.19,13.19,0,0,1-3.86,9.66v-11H87.8ZM65.92,28.49c.32-.08.65-.15,1-.22s.75-.13,1.14-.17l.53-.05.48,0v5.71a1,1,0,0,0,2,0V28l.48,0,.41,0c.48.05,1,.12,1.43.21l.08,0c.25,0,.49.12.73.18l-1,9.17H66.93l-1-9.17Zm-2,.59L65,38.77a1,1,0,0,0,1,.89h8a1,1,0,0,0,1-.89l1.07-9.68a18.14,18.14,0,0,1,11.42,14H52.64A17.57,17.57,0,0,1,64,29.08Zm-13.89,16H90.14v2.62H50.08Zm2.2,5.65v-1h3.86V60.64A15.27,15.27,0,0,1,52.28,50.74Zm5.86,10.9V49.71H81.94V61.64c0,6.52-3.68,13.11-11.9,13.11S58.14,68.16,58.14,61.64ZM70,76.74a13.79,13.79,0,0,0,7.21-1.94v4.1a1,1,0,0,0,0,.13A1,1,0,0,0,78,80.18l1.43.24L71,90.45a1.38,1.38,0,0,1-2.05,0l-8.43-10L62,80.18a1,1,0,0,0,.73-.57,1.81,1.81,0,0,0,.13-.46V74.8A13.79,13.79,0,0,0,70,76.74Zm11.39,27.91-.57-2.78a1,1,0,1,0-2,.4l.57,2.77-3.24.66-.78-3.77a1,1,0,1,0-2,.4l.78,3.77-3.24.66L70.46,104a1,1,0,0,0-2,.4l.57,2.75-3.24.66L65,104.08a1,1,0,0,0-2,.4l.77,3.75-3.24.66-.56-2.74a1,1,0,1,0-2,.4l.56,2.73-3.24.66-.77-3.73a1,1,0,1,0-2,.4l.77,3.73-3.24.66-.56-2.71a1,1,0,1,0-2,.4l.56,2.71-3,.6a.54.54,0,0,1-.64-.42l-1.55-7.53a.53.53,0,0,1,.08-.41.54.54,0,0,1,.35-.23l42.74-9.08L84.67,104Zm8.38,2.69-3.57-.59,2.5-15.11,3.57.59ZM89.3,89.71l2.1-3.1,1,3.62Zm-.25,22.21-3.57-.59.43-2.61,3.57.59Zm11.52-10.69a3.74,3.74,0,0,1-3.09,3.62l-5.37.83L94.55,91a1.65,1.65,0,0,0-.1-.88l-1.36-4.87L93,85.07a1.66,1.66,0,0,0-2.62-.52l-3,4.35a1.67,1.67,0,0,0-.42.85l-.41,2.47-43.5,9.24a2.52,2.52,0,0,0-2,2.81,3.65,3.65,0,0,1-1.69-3V95.76a14.17,14.17,0,0,1,12.39-13.9l6.44-1.06,9.19,10.94a3.34,3.34,0,0,0,5.11,0l9.19-10.94,6.45,1.06a14.16,14.16,0,0,1,12.38,13.9Z"/></svg>