<svg id="white_svg_1px" xmlns="http://www.w3.org/2000/svg" viewBox="0 0 96 96"><defs><style>.cls-1{fill:#fff;}</style></defs><title>site_foreman_white</title><path class="cls-1" d="M66.42,58.4l-9.68-1.6V51.2a14.35,14.35,0,0,0,4.63-10.06A14.33,14.33,0,0,0,67.3,29.08V27.23h1.84a.5.5,0,0,0,.5-.5V22.11a.5.5,0,0,0,0-.19.49.49,0,0,0-.07-.1l0-.06-.08-.05-.08-.05-.08,0-.11,0h-2A19.63,19.63,0,0,0,53,5.17c-.38-.11-.78-.21-1.2-.29l-.42-.08c-.36-.06-.72-.12-1.1-.16l-.62-.07c-.44,0-.87-.06-1.31-.06h-.45c-.5,0-1,0-1.54.08l-.42,0c-.38,0-.75.1-1.12.16A19.08,19.08,0,0,0,29,21.61h-2a.5.5,0,0,0-.5.5v4.63a.5.5,0,0,0,.5.5h1.7v1.52c0,4.8,2.48,10,5.92,12.37A14.36,14.36,0,0,0,39.33,51.2v5.59l-2.79.46H36.5L29.58,58.4A15.65,15.65,0,0,0,15.93,73.78v5.48a5.22,5.22,0,0,0,4.1,5l1.16,5.63a2,2,0,0,0,2,1.63,2.06,2.06,0,0,0,.42,0l39.34-8-1,6a1.16,1.16,0,0,0,1,1.33l4.25.7.19,0a1.16,1.16,0,0,0,1.14-1l.86-5.19h0l6.34-1a5.24,5.24,0,0,0,4.35-5.1V73.78A15.65,15.65,0,0,0,66.42,58.4ZM66.3,29.08a13.7,13.7,0,0,1-4.87,10.77c0-.06,0-.12,0-.19V27.23H66.3ZM45.22,5.75l.64-.1.69-.07c.33,0,.67,0,1-.05v6.24a.5.5,0,0,0,1,0V5.52c.34,0,.68,0,1,.05l.52.05c.45.05.9.11,1.35.2h.08c.41.08.82.19,1.22.3l-1.11,10H44.49l-1.11-10A15.4,15.4,0,0,1,45.22,5.75Zm-2.82.68,1.14,10.31a.5.5,0,0,0,.5.44h8a.5.5,0,0,0,.5-.44l1.14-10.3A18.63,18.63,0,0,1,66.15,21.61H30.07A18.08,18.08,0,0,1,42.4,6.43ZM29.78,28.76V27.23h4.86V39.66c0,.06,0,.11,0,.17A15.18,15.18,0,0,1,29.78,28.76Zm-2.2-2.52V22.61H68.64v3.62Zm8.06,13.42V27.23H60.44V39.66c0,4.14-1.44,8.3-4.51,10.91l0,0A11.83,11.83,0,0,1,48,53.26,11.83,11.83,0,0,1,40.2,50.6l0,0C37.09,48,35.64,43.8,35.64,39.66ZM39.9,57.71a.49.49,0,0,0,.38-.32l0-.05h0a.49.49,0,0,0,0-.16V52A13.3,13.3,0,0,0,48,54.26,13.29,13.29,0,0,0,55.75,52v5a.49.49,0,0,0-.05.14.5.5,0,0,0,.41.57l2.29.38-9,10.71a1.9,1.9,0,0,1-2.82,0l-9-10.71ZM59,83.27A.49.49,0,0,0,59,83l-.62-3a.5.5,0,1,0-1,.2l.63,3a.48.48,0,0,0,.11.21l-4.34.88a.49.49,0,0,0,0-.23l-.83-4a.5.5,0,0,0-1,.2l.83,4a.49.49,0,0,0,.1.2l-4.33.88a.49.49,0,0,0,0-.22l-.62-3a.5.5,0,0,0-1,.2l.63,3a.49.49,0,0,0,.09.19l-4.32.88a.49.49,0,0,0,0-.21l-.83-4a.5.5,0,1,0-1,.2l.83,4a.49.49,0,0,0,.09.19l-4.31.88a.5.5,0,0,0,0-.2l-.62-3a.5.5,0,1,0-1,.2l.63,3a.49.49,0,0,0,.08.18l-4.3.88a.49.49,0,0,0,0-.18l-.83-4a.5.5,0,1,0-1,.2l.83,4a.49.49,0,0,0,.07.17l-4.29.87a.49.49,0,0,0,0-.18l-.62-3a.5.5,0,1,0-1,.2l.63,3a.5.5,0,0,0,.06.16l-3.48.71a1,1,0,0,1-1.23-.81l-1.55-7.53A1,1,0,0,1,21.42,81l43.45-9.23L63.11,82.43Zm8.52,7.09a.18.18,0,0,1-.18.13l-4.25-.7a.18.18,0,0,1-.13-.18l.57-3.44,4.56.75Zm.73-4.43-4.56-.75L64,83h0L66.33,69.1l4.56.75ZM66.49,68.11V68a.16.16,0,0,1,0-.09l2.91-4.28a.15.15,0,0,1,.1,0s.08,0,.08,0L71,68.58l0,.17,0,.11ZM79.07,79.26a4.24,4.24,0,0,1-3.52,4.11l-6,.93,2.54-15.39a1,1,0,0,0-.07-.6l-1.41-5a1.16,1.16,0,0,0-1.83-.36l-2.92,4.3a1.16,1.16,0,0,0-.32.62l-.46,2.8L21.22,80a2,2,0,0,0-1.59,2.41l.17.81a4.21,4.21,0,0,1-2.87-3.93V73.78A14.66,14.66,0,0,1,29.74,59.38l6.72-1.11,9.37,11.16a2.83,2.83,0,0,0,2.17,1h0a2.83,2.83,0,0,0,2.17-1l9.37-11.16,6.72,1.11a14.66,14.66,0,0,1,12.8,14.39Z"/></svg>