<svg id="white_svg_1px" xmlns="http://www.w3.org/2000/svg" viewBox="0 0 140 140"><defs><style>.cls-1{fill:#fff;}</style></defs><title>site_foreman_white_circle</title><path class="cls-1" d="M70,.5A69.5,69.5,0,1,0,139.5,70,69.58,69.58,0,0,0,70,.5Zm0,138A68.5,68.5,0,1,1,138.5,70,68.58,68.58,0,0,1,70,138.5Z"/><path class="cls-1" d="M88.42,80.38l-9.68-1.6v-5.6a14.36,14.36,0,0,0,4.63-10.06A14.33,14.33,0,0,0,89.3,51.06V49.21h1.84a.5.5,0,0,0,.5-.5V44.08a.5.5,0,0,0,0-.19.49.49,0,0,0-.07-.1l0-.06-.08-.05-.08-.05-.08,0-.11,0h-2A19.63,19.63,0,0,0,75,27.15c-.38-.11-.78-.21-1.2-.29l-.42-.08c-.36-.06-.73-.12-1.11-.16l-.61-.07c-.45,0-.9-.06-1.35-.07h-.39c-.51,0-1,0-1.56.08l-.41,0c-.38,0-.76.1-1.13.17A19.08,19.08,0,0,0,51,43.58h-2a.5.5,0,0,0-.5.5v4.63a.5.5,0,0,0,.5.5h1.7v1.52c0,4.8,2.48,10,5.92,12.37a14.36,14.36,0,0,0,4.63,10.07v5.59l-2.78.46h-.06l-6.91,1.14A15.65,15.65,0,0,0,37.93,95.76v5.48a5.22,5.22,0,0,0,4.1,5l1.16,5.63a2,2,0,0,0,2,1.63,2.06,2.06,0,0,0,.42,0l39.34-8-1,6a1.16,1.16,0,0,0,1,1.33l4.25.7.19,0a1.16,1.16,0,0,0,1.14-1l.86-5.19h0l6.34-1a5.24,5.24,0,0,0,4.35-5.1V95.76A15.65,15.65,0,0,0,88.42,80.38ZM88.3,51.06a13.7,13.7,0,0,1-4.87,10.77c0-.06,0-.12,0-.19V49.21H88.3ZM67.22,27.73l.64-.1.68-.07c.33,0,.67,0,1-.06v6.24a.5.5,0,0,0,1,0V27.5c.34,0,.69,0,1,.05l.5.05c.46.05.91.11,1.36.2h.07c.41.08.82.19,1.22.3l-1.11,10H66.49l-1.11-10A15.44,15.44,0,0,1,67.22,27.73Zm-2.82.68,1.14,10.31a.5.5,0,0,0,.5.45h8a.5.5,0,0,0,.5-.45l1.14-10.3A18.63,18.63,0,0,1,88.14,43.58H52.07A18.07,18.07,0,0,1,64.4,28.4ZM49.58,44.59H90.64v3.62H49.58Zm2.2,6.15V49.21h4.86V61.64c0,.06,0,.11,0,.17A15.18,15.18,0,0,1,51.78,50.74Zm5.86,10.9V49.21H82.44V61.64c0,4.14-1.44,8.29-4.51,10.9l0,0A11.83,11.83,0,0,1,70,75.24a11.83,11.83,0,0,1-7.84-2.66l0,0C59.08,69.93,57.64,65.78,57.64,61.64ZM70,76.24A13.3,13.3,0,0,0,77.75,74v5a.49.49,0,0,0-.05.14.5.5,0,0,0,.41.57l2.3.38-9,10.71a1.9,1.9,0,0,1-2.82,0l-9-10.71,2.29-.38a.49.49,0,0,0,.38-.32l0-.05h0a.49.49,0,0,0,0-.16V74A13.3,13.3,0,0,0,70,76.24Zm10.94,29a.49.49,0,0,0,0-.24l-.62-3a.5.5,0,0,0-1,.2l.63,3a.49.49,0,0,0,.11.21l-4.34.88a.49.49,0,0,0,0-.23L75,102a.5.5,0,0,0-1,.2l.83,4a.49.49,0,0,0,.1.2l-4.33.88a.49.49,0,0,0,0-.22l-.62-3a.5.5,0,1,0-1,.2l.63,3a.49.49,0,0,0,.09.19l-4.32.88a.49.49,0,0,0,0-.21l-.83-4a.5.5,0,1,0-1,.2l.83,4a.49.49,0,0,0,.08.19l-4.31.88a.5.5,0,0,0,0-.2l-.62-3a.5.5,0,0,0-1,.2l.63,3a.49.49,0,0,0,.08.18l-4.3.88a.49.49,0,0,0,0-.18l-.83-4a.5.5,0,1,0-1,.2l.83,4a.49.49,0,0,0,.07.17l-4.29.87a.49.49,0,0,0,0-.18l-.62-3a.5.5,0,0,0-1,.2l.63,3a.5.5,0,0,0,.06.16l-3.48.71a1,1,0,0,1-1.23-.81l-1.55-7.53a1,1,0,0,1,.81-1.23L86.88,93.7l-1.77,10.71Zm9.25,2.67-4.56-.75.37-2.23h0l2.29-13.86,4.56.75ZM93,90.84l-4.56-.75V90a.16.16,0,0,1,0-.09l2.91-4.28a.15.15,0,0,1,.1,0s.08,0,.08,0L93,90.56l0,.17Zm-3.74,21.63-4.25-.7a.16.16,0,0,1-.1-.06.17.17,0,0,1,0-.12l.57-3.44,4.56.75-.57,3.44A.16.16,0,0,1,89.31,112.48Zm11.76-11.24a4.24,4.24,0,0,1-3.52,4.11l-6,.93,2.54-15.39a1,1,0,0,0-.07-.6l-1.41-5a1.16,1.16,0,0,0-1.83-.36l-2.92,4.3a1.16,1.16,0,0,0-.32.62l-.46,2.8L43.22,102a2,2,0,0,0-1.59,2.41l.17.81a4.21,4.21,0,0,1-2.87-3.93V95.76a14.66,14.66,0,0,1,12.81-14.4l6.72-1.11,9.37,11.16a2.84,2.84,0,0,0,4.35,0l9.37-11.16,6.72,1.11a14.66,14.66,0,0,1,12.8,14.39Z"/></svg>