<svg id="architect_blue" xmlns="http://www.w3.org/2000/svg" viewBox="0 0 96 96"><defs><style>.cls-1{fill:#00008f;}</style></defs><title>site_foreman_blue</title><path class="cls-1" d="M66.51,57.9l-9.26-1.53v-5a15,15,0,0,0,4.61-9.92A14.92,14.92,0,0,0,67.8,29.08V27.73h1.34a1,1,0,0,0,1-1V22.11a1,1,0,0,0-.08-.39,1,1,0,0,0-.09-.14.49.49,0,0,0-.25-.27,1,1,0,0,0-.19-.13l-.15,0a1,1,0,0,0-.24,0H67.61a20.15,20.15,0,0,0-14-16.28h-.05l-.49-.13c-.38-.11-.78-.2-1.19-.28l-.45-.08c-.36-.06-.72-.11-1.08-.16l-.65-.07C49.26,4,48.82,4,48.39,4h-.47c-.5,0-1,0-1.55.08l-.46,0c-.36,0-.72.1-1.08.16s-.71.13-1.07.21h0A19.57,19.57,0,0,0,28.6,21.11H27.08a1,1,0,0,0-.7.29h0a1,1,0,0,0-.28.69v4.63a1,1,0,0,0,1,1h1.2v1c0,4.87,2.48,10.09,5.94,12.64a15,15,0,0,0,4.61,9.94v5L29.51,57.9A16.15,16.15,0,0,0,15.43,73.78v5.48a5.71,5.71,0,0,0,4.17,5.43L20.69,90a2.55,2.55,0,0,0,2.48,2,2.49,2.49,0,0,0,.52-.05l38.63-7.87-.87,5.25a1.66,1.66,0,0,0,1.37,1.91l4.25.7.28,0A1.66,1.66,0,0,0,69,90.61l.8-4.83,6-.93a5.74,5.74,0,0,0,4.76-5.59V73.78A16.14,16.14,0,0,0,66.51,57.9ZM65.8,29.08a13.18,13.18,0,0,1-3.86,9.65v-11H65.8ZM43.93,6.51c.32-.08.66-.16,1-.22s.73-.12,1.11-.17l.54-.05.47,0v5.71a1,1,0,0,0,2,0V6l.47,0,.43,0c.48.05,1,.12,1.42.21l.08,0c.25,0,.49.12.73.18l-1,9.17H44.93l-1-9.17ZM42,7.1,43,16.8a1,1,0,0,0,1,.89h8a1,1,0,0,0,1-.89l1.07-9.68a18.15,18.15,0,0,1,11.43,14H30.63A17.58,17.58,0,0,1,42,7.1ZM34.14,38.66a15.27,15.27,0,0,1-3.86-9.9v-1h3.86ZM28.08,25.73V23.11H68.14v2.62Zm8.06,13.92V27.73H59.94V39.66c0,6.52-3.68,13.1-11.9,13.1S36.14,46.18,36.14,39.66ZM40,58.2a1,1,0,0,0,.73-.57,1.81,1.81,0,0,0,.13-.46V52.82a14.37,14.37,0,0,0,14.41,0v4.1a1,1,0,0,0,0,.13A1,1,0,0,0,56,58.2l1.43.24L49,68.47a1.38,1.38,0,0,1-2.05,0l-8.43-10ZM62.67,82l-3.24.66-.57-2.78a1,1,0,1,0-2,.4l.57,2.77-3.24.66L53.45,80a1,1,0,1,0-2,.4l.78,3.77L49,84.79,48.46,82a1,1,0,0,0-2,.4l.57,2.75-3.24.66L43,82.1a1,1,0,0,0-2,.4l.77,3.75-3.24.66-.56-2.74a1,1,0,0,0-2,.4l.56,2.73L33.41,88l-.77-3.73a1,1,0,0,0-2,.4l.77,3.73L28.21,89l-.56-2.72a1,1,0,0,0-2,.4l.56,2.71-3,.6a.54.54,0,0,1-.64-.42L21.1,82.08a.53.53,0,0,1,.08-.41.54.54,0,0,1,.35-.23l42.74-9.08Zm4.39,7.94-3.57-.59.43-2.61,3.57.59Zm.76-4.58-3.57-.59,2.5-15.11,3.57.59ZM67.3,67.74l2.1-3.1,1,3.62ZM78.57,79.26a3.74,3.74,0,0,1-3.09,3.62l-5.37.83L72.55,69a1.65,1.65,0,0,0-.1-.88l-1.36-4.87L71,63.09a1.66,1.66,0,0,0-2.62-.52l-3,4.35a1.67,1.67,0,0,0-.42.85l-.41,2.47-43.5,9.24a2.52,2.52,0,0,0-2,2.81,3.65,3.65,0,0,1-1.69-3V73.78a14.17,14.17,0,0,1,12.39-13.9l6.44-1.06,9.19,10.94A3.33,3.33,0,0,0,48,71h0a3.33,3.33,0,0,0,2.56-1.19l9.19-10.94,6.45,1.06a14.16,14.16,0,0,1,12.38,13.9Z"/></svg>