<svg id="white_svg_1px" xmlns="http://www.w3.org/2000/svg" viewBox="0 0 140 140"><defs><style>.cls-1{fill:#fff;}</style></defs><title>birthday_white_circle_x1</title><path class="cls-1" d="M70,.5A69.5,69.5,0,1,0,139.5,70,69.58,69.58,0,0,0,70,.5Zm0,138A68.5,68.5,0,1,1,138.5,70,68.58,68.58,0,0,1,70,138.5Z"/><path class="cls-1" d="M66,49.79a4.13,4.13,0,0,0,3.72.23,6.37,6.37,0,0,0,1.86.32,3.11,3.11,0,0,0,1.87-.55,3.55,3.55,0,0,0,1.27-3.1c0-2.35-1.22-6.07-3.75-11.39a1.37,1.37,0,0,0-2.49,0c-2.53,5.32-3.76,9-3.76,11.39A3.55,3.55,0,0,0,66,49.79Zm3.38-14.06a.36.36,0,0,1,.33-.23h0a.37.37,0,0,1,.33.23c2.46,5.18,3.65,8.76,3.65,11A2.66,2.66,0,0,1,72.9,49,3.31,3.31,0,0,1,70,49a.78.78,0,0,0-.22,0,.4.4,0,0,0-.15,0,3.31,3.31,0,0,1-3-.05,2.64,2.64,0,0,1-.87-2.29C65.76,44.49,67,40.91,69.42,35.73Z"/><path class="cls-1" d="M95.55,67.2H74v-10a1.54,1.54,0,0,0-.47-1.13,5.7,5.7,0,0,0-8.07,0A1.57,1.57,0,0,0,65,57.25v10H44.45A5.78,5.78,0,0,0,38.68,73v9.08a1.5,1.5,0,0,0,1.47,1.49h1.48V99.11A6.38,6.38,0,0,0,48,105.5H91.53a6.38,6.38,0,0,0,6.35-6.39V83.87h2a1.48,1.48,0,0,0,1.48-1.48V73A5.78,5.78,0,0,0,95.55,67.2ZM66,57.25a.59.59,0,0,1,.15-.41,4.67,4.67,0,0,1,6.69,0,.55.55,0,0,1,.16.41v10H66Zm34.36,25.14a.48.48,0,0,1-.48.48H93.62a.5.5,0,0,0,0,1h3.26V99.11a5.38,5.38,0,0,1-5.35,5.39H48a5.38,5.38,0,0,1-5.35-5.39V83.55h3.13A9.72,9.72,0,0,0,55.91,83l.3-.21a6.71,6.71,0,0,1,7.64,0,9.71,9.71,0,0,0,11,0,6.71,6.71,0,0,1,7.64,0l.48.33a.5.5,0,0,0,.56-.82L83.08,82a7.74,7.74,0,0,0-8.78,0,8.69,8.69,0,0,1-9.88,0,7.74,7.74,0,0,0-8.78,0l-.31.21a8.71,8.71,0,0,1-9.2.43.51.51,0,0,0-.24-.07H40.16a.5.5,0,0,1-.48-.49V73a4.78,4.78,0,0,1,4.77-4.77h51.1A4.78,4.78,0,0,1,100.32,73Z"/></svg>