<svg id="blue_svg_2px" xmlns="http://www.w3.org/2000/svg" viewBox="0 0 140 140"><defs><style>.cls-1{fill:#00008f;}</style></defs><title>birthday_blue_circle_x1</title><path class="cls-1" d="M70,140a70,70,0,1,1,70-70A70.08,70.08,0,0,1,70,140ZM70,2a68,68,0,1,0,68,68A68.07,68.07,0,0,0,70,2Z"/><path class="cls-1" d="M95.55,66.7H74.45V57.25a2.05,2.05,0,0,0-.62-1.49,6.18,6.18,0,0,0-8.76,0,2,2,0,0,0-.62,1.49V66.7h-20A6.28,6.28,0,0,0,38.18,73v9.08a2,2,0,0,0,2,2h1V99.11A6.88,6.88,0,0,0,48,106H91.53a6.88,6.88,0,0,0,6.85-6.89V84.37h1.45a2,2,0,0,0,2-2V73A6.28,6.28,0,0,0,95.55,66.7Zm-23.1-9.45V66.7h-6V57.21A4.15,4.15,0,0,1,72.45,57.25ZM97.38,82.37H93.62a1,1,0,0,0,0,2h2.76V99.11A4.88,4.88,0,0,1,91.53,104H48a4.87,4.87,0,0,1-4.85-4.89V84.05h2.5a10.24,10.24,0,0,0,10.56-.62l.3-.21a6.22,6.22,0,0,1,7.07,0,10.23,10.23,0,0,0,11.59,0,6.22,6.22,0,0,1,7.07,0l.48.33a1,1,0,1,0,1.14-1.64l-.48-.34a8.24,8.24,0,0,0-9.35,0,8.17,8.17,0,0,1-9.31,0,8.24,8.24,0,0,0-9.35,0l-.3.21a8.18,8.18,0,0,1-8.67.4,1.05,1.05,0,0,0-.49-.13H40.18V73a4.27,4.27,0,0,1,4.27-4.27h51.1A4.27,4.27,0,0,1,99.82,73v9.4Z"/><path class="cls-1" d="M65.75,50.2a4.43,4.43,0,0,0,4,.34,6.61,6.61,0,0,0,1.86.3,3.62,3.62,0,0,0,2.16-.64,4,4,0,0,0,1.48-3.51c0-2.46-1.2-6.14-3.8-11.6A1.75,1.75,0,0,0,69.76,34a1.77,1.77,0,0,0-1.69,1.09c-2.6,5.46-3.81,9.14-3.81,11.6A4,4,0,0,0,65.75,50.2Zm4-14c2.33,4.92,3.5,8.45,3.5,10.51a2.36,2.36,0,0,1-.65,1.89,3,3,0,0,1-2.5,0,1.58,1.58,0,0,0-.38,0,1.12,1.12,0,0,0-.31,0,3,3,0,0,1-2.5,0,2.37,2.37,0,0,1-.66-1.89C66.26,44.63,67.44,41.1,69.76,36.18Z"/></svg>