<svg id="birthday_blue" xmlns="http://www.w3.org/2000/svg" viewBox="0 0 96 96.08"><defs><style>.cls-1{fill:#00008f;}</style></defs><title>birthday_blue</title><path class="cls-1" d="M43.75,28.2a4.44,4.44,0,0,0,4,.34,6.61,6.61,0,0,0,1.86.3,3.62,3.62,0,0,0,2.16-.64,4,4,0,0,0,1.48-3.51c0-2.46-1.2-6.14-3.8-11.6A1.84,1.84,0,0,0,47.79,12h0a1.74,1.74,0,0,0-1.69,1.09c-2.6,5.46-3.81,9.14-3.81,11.6A4,4,0,0,0,43.75,28.2Zm4-14c2.33,4.92,3.5,8.45,3.5,10.51a2.33,2.33,0,0,1-.65,1.88,2.88,2.88,0,0,1-2.5,0,1.58,1.58,0,0,0-.38-.05,1.12,1.12,0,0,0-.31.05,2.88,2.88,0,0,1-2.5,0,2.33,2.33,0,0,1-.66-1.88C44.26,22.63,45.44,19.1,47.76,14.18Z"/><path class="cls-1" d="M73.55,44.7H52.45V35.25a2.07,2.07,0,0,0-.62-1.49,6.19,6.19,0,0,0-8.77,0,2.06,2.06,0,0,0-.61,1.49V44.7h-20A6.28,6.28,0,0,0,16.18,51v9.08a2,2,0,0,0,2,2h1V77.11A6.88,6.88,0,0,0,26,84H69.53a6.88,6.88,0,0,0,6.85-6.89V62.37h1.45a2,2,0,0,0,2-2V51A6.28,6.28,0,0,0,73.55,44.7Zm-23.1-9.45V44.7h-6V35.2A4.16,4.16,0,0,1,50.45,35.25ZM75.38,60.37H71.62a1,1,0,0,0,0,2h2.76V77.11A4.88,4.88,0,0,1,69.53,82H26a4.87,4.87,0,0,1-4.85-4.89v-15h2.5a10.26,10.26,0,0,0,10.56-.63l.3-.21a6.22,6.22,0,0,1,7.07,0,10.21,10.21,0,0,0,11.59,0,6.22,6.22,0,0,1,7.07,0l.48.33a1,1,0,1,0,1.14-1.64l-.48-.34a8.24,8.24,0,0,0-9.35,0,8.17,8.17,0,0,1-9.31,0,8.24,8.24,0,0,0-9.35,0l-.3.21a8.18,8.18,0,0,1-8.67.4,1,1,0,0,0-.49-.12H18.18V51a4.27,4.27,0,0,1,4.27-4.27h51.1A4.27,4.27,0,0,1,77.82,51v9.4Z"/></svg>