<svg id="white_svg_1px" xmlns="http://www.w3.org/2000/svg" viewBox="0 0 96 96.08"><defs><style>.cls-1{fill:#fff;}</style></defs><title>birthday_white</title><path class="cls-1" d="M44,27.79a4.14,4.14,0,0,0,3.72.23,6.37,6.37,0,0,0,1.86.32,3.11,3.11,0,0,0,1.87-.55,3.55,3.55,0,0,0,1.27-3.1c0-2.35-1.22-6.07-3.75-11.39a1.33,1.33,0,0,0-1.25-.8,1.3,1.3,0,0,0-1.24.8c-2.53,5.32-3.76,9-3.76,11.39A3.55,3.55,0,0,0,44,27.79Zm3.38-14.06c.07-.15.19-.26.33-.23h0c.14,0,.25.08.33.23,2.46,5.18,3.65,8.76,3.65,11A2.66,2.66,0,0,1,50.9,27,3.31,3.31,0,0,1,48,27a.78.78,0,0,0-.22,0,.4.4,0,0,0-.15,0A3.31,3.31,0,0,1,44.63,27a2.64,2.64,0,0,1-.87-2.29C43.76,22.49,45,18.91,47.42,13.73Z"/><path class="cls-1" d="M73.55,45.2H52v-10a1.54,1.54,0,0,0-.47-1.13,5.7,5.7,0,0,0-8.07,0A1.57,1.57,0,0,0,43,35.25v10H22.45A5.78,5.78,0,0,0,16.68,51v9.08a1.5,1.5,0,0,0,1.47,1.49h1.48V77.11A6.38,6.38,0,0,0,26,83.5H69.53a6.38,6.38,0,0,0,6.35-6.39V61.87h2a1.48,1.48,0,0,0,1.48-1.48V51A5.78,5.78,0,0,0,73.55,45.2ZM44,35.25a.6.6,0,0,1,.15-.41,4.67,4.67,0,0,1,6.69,0,.57.57,0,0,1,.16.41v10H44ZM78.31,60.39a.48.48,0,0,1-.48.48H71.62a.5.5,0,0,0,0,1h3.26V77.11a5.38,5.38,0,0,1-5.35,5.39H26a5.38,5.38,0,0,1-5.35-5.39V61.56h3.13A9.72,9.72,0,0,0,33.9,61l.31-.21a6.71,6.71,0,0,1,7.64,0,9.71,9.71,0,0,0,11,0,6.71,6.71,0,0,1,7.64,0l.48.33a.5.5,0,0,0,.57-.82L61.08,60a7.74,7.74,0,0,0-8.78,0,8.67,8.67,0,0,1-9.88,0,7.72,7.72,0,0,0-8.78,0l-.31.2a8.71,8.71,0,0,1-9.2.43.5.5,0,0,0-.24-.06l-5.73,0a.5.5,0,0,1-.48-.49V51a4.78,4.78,0,0,1,4.77-4.77h51.1A4.78,4.78,0,0,1,78.32,51Z"/></svg>