<svg id="white_svg_1px" xmlns="http://www.w3.org/2000/svg" viewBox="0 0 96 96"><defs><style>.cls-1{fill:#fff;}</style></defs><title>briefcase</title><path class="cls-1" d="M55.35,28.11H40.65a.5.5,0,0,0,0,1H55.35a.5.5,0,0,0,0-1Z"/><path class="cls-1" d="M73.74,77.15H22.26a.5.5,0,0,0,0,1H73.74a.5.5,0,0,0,0-1Z"/><path class="cls-1" d="M81.1,20.76H71.53l-4.75-5.94-2.46-3.07c-2-2.43-3.35-3.24-7-3.24H38.67c-3.64,0-4.94.81-7,3.25l-2.45,3.06-4.75,5.94H14.9a5.41,5.41,0,0,0-5.4,5.4V45.77a5.41,5.41,0,0,0,3.68,5.12V80.1a5.41,5.41,0,0,0,5.4,5.4H77.42a5.41,5.41,0,0,0,5.4-5.4V50.89a5.41,5.41,0,0,0,3.68-5.12V26.16A5.41,5.41,0,0,0,81.1,20.76ZM32.45,12.39c1.88-2.24,2.93-2.89,6.22-2.89H57.33c3.29,0,4.34.65,6.21,2.88l1.8,2.25H30.65Zm-2.59,3.24H66.15l4.1,5.13H25.75Zm52,64.47a4.41,4.41,0,0,1-4.4,4.4H18.58a4.41,4.41,0,0,1-4.4-4.4v-29a5.4,5.4,0,0,0,.73.05H40.15v2.4a2.5,2.5,0,0,0,2.5,2.5H53.35a2.5,2.5,0,0,0,2.5-2.5v-2.4H81.1a5.4,5.4,0,0,0,.73-.05Zm-27-26.52a1.5,1.5,0,0,1-1.5,1.5H42.65a1.5,1.5,0,0,1-1.5-1.5V47.77a1.5,1.5,0,0,1,1.5-1.5H53.35a1.5,1.5,0,0,1,1.5,1.5ZM85.5,45.77a4.41,4.41,0,0,1-4.4,4.4H55.85v-2.4a2.5,2.5,0,0,0-2.5-2.5H42.65a2.5,2.5,0,0,0-2.5,2.5v2.4H14.9a4.41,4.41,0,0,1-4.4-4.4V26.16a4.41,4.41,0,0,1,4.4-4.4H81.1a4.41,4.41,0,0,1,4.4,4.4Z"/></svg>