<svg id="blue_svg_2px" xmlns="http://www.w3.org/2000/svg" viewBox="0 0 140 140"><defs><style>.cls-1{fill:#00008f;}</style></defs><title>briefcase</title><path class="cls-1" d="M77.35,49.61H62.65a1,1,0,0,0,0,2H77.35a1,1,0,0,0,0-2Z"/><path class="cls-1" d="M95.74,98.65H44.26a1,1,0,1,0,0,2H95.74a1,1,0,1,0,0-2Z"/><path class="cls-1" d="M103.1,42.26H93.77l-4.6-5.75L86.7,33.42C84.57,30.9,83.14,30,79.33,30H60.67c-3.81,0-5.24.9-7.39,3.44L50.83,36.5l-4.6,5.75H36.9a5.91,5.91,0,0,0-5.9,5.9V67.77a5.91,5.91,0,0,0,3.68,5.46V102.1a5.91,5.91,0,0,0,5.9,5.9H99.42a5.91,5.91,0,0,0,5.9-5.9V73.24A5.91,5.91,0,0,0,109,67.77V48.16A5.91,5.91,0,0,0,103.1,42.26ZM54.83,34.71c1.8-2.13,2.72-2.71,5.84-2.71H79.33c3.12,0,4,.58,5.82,2.69l1.15,1.44H53.69Zm-2.74,3.42H87.91l3.3,4.13H48.79Zm51.23,64a3.91,3.91,0,0,1-3.9,3.9H40.58a3.91,3.91,0,0,1-3.9-3.9V73.67h25v1.9a3,3,0,0,0,3,3H75.35a3,3,0,0,0,3-3v-1.9h25Zm-27-26.52a1,1,0,0,1-1,1H64.65a1,1,0,0,1-1-1V69.77a1,1,0,0,1,1-1H75.35a1,1,0,0,1,1,1ZM107,67.77a3.91,3.91,0,0,1-3.9,3.9H78.35v-1.9a3,3,0,0,0-3-3H64.65a3,3,0,0,0-3,3v1.9H36.9a3.91,3.91,0,0,1-3.9-3.9V48.16a3.91,3.91,0,0,1,3.9-3.9H103.1a3.91,3.91,0,0,1,3.9,3.9Z"/><path class="cls-1" d="M70,140a70,70,0,1,1,70-70A70.08,70.08,0,0,1,70,140ZM70,2a68,68,0,1,0,68,68A68.08,68.08,0,0,0,70,2Z"/></svg>