<svg id="white_svg_1px" xmlns="http://www.w3.org/2000/svg" viewBox="0 0 140 140"><defs><style>.cls-1{fill:#fff;}</style></defs><title>briefcase</title><path class="cls-1" d="M77.35,50.11H62.65a.5.5,0,0,0,0,1H77.35a.5.5,0,0,0,0-1Z"/><path class="cls-1" d="M95.74,99.15H44.26a.5.5,0,1,0,0,1H95.74a.5.5,0,1,0,0-1Z"/><path class="cls-1" d="M103.1,42.76H93.53l-4.75-5.94-2.46-3.07c-2-2.43-3.35-3.24-7-3.24H60.67c-3.64,0-4.94.81-7,3.25l-2.45,3.06-4.75,5.94H36.9a5.41,5.41,0,0,0-5.4,5.4V67.77a5.41,5.41,0,0,0,3.68,5.12V102.1a5.41,5.41,0,0,0,5.4,5.4H99.42a5.41,5.41,0,0,0,5.4-5.4V72.89a5.41,5.41,0,0,0,3.68-5.12V48.16A5.41,5.41,0,0,0,103.1,42.76ZM54.45,34.39c1.88-2.24,2.93-2.89,6.22-2.89H79.33c3.29,0,4.34.65,6.21,2.88l1.8,2.25H52.65Zm-2.59,3.24H88.15l4.1,5.13H47.75Zm52,64.47a4.41,4.41,0,0,1-4.4,4.4H40.58a4.41,4.41,0,0,1-4.4-4.4v-29a5.4,5.4,0,0,0,.73.05H62.15v2.4a2.5,2.5,0,0,0,2.5,2.5H75.35a2.5,2.5,0,0,0,2.5-2.5v-2.4H103.1a5.4,5.4,0,0,0,.73-.05Zm-27-26.52a1.5,1.5,0,0,1-1.5,1.5H64.65a1.5,1.5,0,0,1-1.5-1.5V69.77a1.5,1.5,0,0,1,1.5-1.5H75.35a1.5,1.5,0,0,1,1.5,1.5Zm30.65-7.81a4.41,4.41,0,0,1-4.4,4.4H77.85v-2.4a2.5,2.5,0,0,0-2.5-2.5H64.65a2.5,2.5,0,0,0-2.5,2.5v2.4H36.9a4.41,4.41,0,0,1-4.4-4.4V48.16a4.41,4.41,0,0,1,4.4-4.4H103.1a4.41,4.41,0,0,1,4.4,4.4Z"/><path class="cls-1" d="M70,139.5A69.5,69.5,0,1,1,139.5,70,69.58,69.58,0,0,1,70,139.5Zm0-138A68.5,68.5,0,1,0,138.5,70,68.58,68.58,0,0,0,70,1.5Z"/></svg>