<svg id="briefcase_blue" xmlns="http://www.w3.org/2000/svg" viewBox="0 0 96 96"><defs><style>.cls-1{fill:#00008f;}</style></defs><title>briefcase</title><path class="cls-1" d="M55.35,27.61H40.65a1,1,0,0,0,0,2H55.35a1,1,0,0,0,0-2Z"/><path class="cls-1" d="M73.74,76.65H22.26a1,1,0,0,0,0,2H73.74a1,1,0,0,0,0-2Z"/><path class="cls-1" d="M81.1,20.26H71.77l-4.6-5.75L64.7,11.42C62.57,8.9,61.14,8,57.33,8H38.67c-3.81,0-5.24.9-7.39,3.44L28.83,14.5l-4.6,5.75H14.9A5.91,5.91,0,0,0,9,26.16V45.77a5.91,5.91,0,0,0,3.68,5.46V80.1a5.91,5.91,0,0,0,5.9,5.9H77.42a5.91,5.91,0,0,0,5.9-5.9V51.24A5.91,5.91,0,0,0,87,45.77V26.16A5.91,5.91,0,0,0,81.1,20.26ZM32.83,12.71c1.8-2.13,2.72-2.71,5.84-2.71H57.33c3.12,0,4,.58,5.82,2.69l1.15,1.44H31.69Zm-2.74,3.42H65.91l3.3,4.13H26.79Zm51.23,64a3.91,3.91,0,0,1-3.9,3.9H18.58a3.91,3.91,0,0,1-3.9-3.9V51.67h25v1.9a3,3,0,0,0,3,3H53.35a3,3,0,0,0,3-3v-1.9h25Zm-27-26.52a1,1,0,0,1-1,1H42.65a1,1,0,0,1-1-1V47.77a1,1,0,0,1,1-1H53.35a1,1,0,0,1,1,1ZM85,45.77a3.91,3.91,0,0,1-3.9,3.9H56.35v-1.9a3,3,0,0,0-3-3H42.65a3,3,0,0,0-3,3v1.9H14.9a3.91,3.91,0,0,1-3.9-3.9V26.16a3.91,3.91,0,0,1,3.9-3.9H81.1a3.91,3.91,0,0,1,3.9,3.9Z"/></svg>