<svg id="svg_2px" data-name="svg 2px" xmlns="http://www.w3.org/2000/svg" viewBox="0 0 140 140"><defs><style>.cls-1{fill:#00008f;}</style></defs><title>calendar</title><path class="cls-1" d="M102.65,37.53h-11V35a4,4,0,0,0-4-4h-.53a4,4,0,0,0-4,4v2.53H56.85V35a4,4,0,0,0-4-4h-.53a4,4,0,0,0-4,4v2.53h-11a3.18,3.18,0,0,0-3.18,3.18v63.12A3.18,3.18,0,0,0,37.35,107h55.5a1,1,0,0,0,.71-.29l12-12h0a1,1,0,0,0,.19-.28l0-.09a1,1,0,0,0,.05-.27s0,0,0-.06V40.71A3.18,3.18,0,0,0,102.65,37.53ZM85.15,35a2,2,0,0,1,2-2h.53a2,2,0,0,1,2,2v7.06a2,2,0,0,1-2,2h-.53a2,2,0,0,1-2-2ZM50.32,35a2,2,0,0,1,2-2h.53a2,2,0,0,1,2,2v7.06a2,2,0,0,1-2,2h-.53a2,2,0,0,1-2-2Zm-13,4.53h11v2.53a4,4,0,0,0,4,4h.53a4,4,0,0,0,4-4V39.53H83.15v2.53a4,4,0,0,0,4,4h.53a4,4,0,0,0,4-4V39.53h11a1.18,1.18,0,0,1,1.18,1.18v9.88H36.18V40.71A1.18,1.18,0,0,1,37.35,39.53Zm-1.18,64.29V52.59h67.65V93H95a3.18,3.18,0,0,0-3.18,3.18V105H37.35A1.18,1.18,0,0,1,36.18,103.82Zm57.68-.24V96.21A1.18,1.18,0,0,1,95,95h7.38Z"/><path class="cls-1" d="M62.38,46.06H77.62a1,1,0,0,0,0-2H62.38a1,1,0,0,0,0,2Z"/><path class="cls-1" d="M47.5,58.21h-.71a5,5,0,0,0-5,5v.71a5,5,0,0,0,5,5h.71a5,5,0,0,0,5-5v-.71A5,5,0,0,0,47.5,58.21Zm3,5.71a3,3,0,0,1-3,3h-.71a3,3,0,0,1-3-3v-.71a3,3,0,0,1,3-3h.71a3,3,0,0,1,3,3Z"/><path class="cls-1" d="M62.74,58.21H62a5,5,0,0,0-5,5v.71a5,5,0,0,0,5,5h.71a5,5,0,0,0,5-5v-.71A5,5,0,0,0,62.74,58.21Zm3,5.71a3,3,0,0,1-3,3H62a3,3,0,0,1-3-3v-.71a3,3,0,0,1,3-3h.71a3,3,0,0,1,3,3Z"/><path class="cls-1" d="M78,58.21h-.71a5,5,0,0,0-5,5v.71a5,5,0,0,0,5,5H78a5,5,0,0,0,5-5v-.71A5,5,0,0,0,78,58.21Zm3,5.71a3,3,0,0,1-3,3h-.71a3,3,0,0,1-3-3v-.71a3,3,0,0,1,3-3H78a3,3,0,0,1,3,3Z"/><path class="cls-1" d="M92.5,68.91h.71a5,5,0,0,0,5-5v-.71a5,5,0,0,0-5-5H92.5a5,5,0,0,0-5,5v.71A5,5,0,0,0,92.5,68.91Zm-3-5.71a3,3,0,0,1,3-3h.71a3,3,0,0,1,3,3v.71a3,3,0,0,1-3,3H92.5a3,3,0,0,1-3-3Z"/><path class="cls-1" d="M47.5,73.44h-.71a5,5,0,0,0-5,5v.71a5,5,0,0,0,5,5h.71a5,5,0,0,0,5-5v-.71A5,5,0,0,0,47.5,73.44Zm3,5.71a3,3,0,0,1-3,3h-.71a3,3,0,0,1-3-3v-.71a3,3,0,0,1,3-3h.71a3,3,0,0,1,3,3Z"/><path class="cls-1" d="M62.74,73.44H62a5,5,0,0,0-5,5v.71a5,5,0,0,0,5,5h.71a5,5,0,0,0,5-5v-.71A5,5,0,0,0,62.74,73.44Zm3,5.71a3,3,0,0,1-3,3H62a3,3,0,0,1-3-3v-.71a3,3,0,0,1,3-3h.71a3,3,0,0,1,3,3Z"/><path class="cls-1" d="M78,73.44h-.71a5,5,0,0,0-5,5v.71a5,5,0,0,0,5,5H78a5,5,0,0,0,5-5v-.71A5,5,0,0,0,78,73.44Zm3,5.71a3,3,0,0,1-3,3h-.71a3,3,0,0,1-3-3v-.71a3,3,0,0,1,3-3H78a3,3,0,0,1,3,3Z"/><path class="cls-1" d="M92.5,84.15h.71a5,5,0,0,0,5-5v-.71a5,5,0,0,0-5-5H92.5a5,5,0,0,0-5,5v.71A5,5,0,0,0,92.5,84.15Zm-3-5.71a3,3,0,0,1,3-3h.71a3,3,0,0,1,3,3v.71a3,3,0,0,1-3,3H92.5a3,3,0,0,1-3-3Z"/><path class="cls-1" d="M47.5,88.68h-.71a5,5,0,0,0-5,5v.71a5,5,0,0,0,5,5h.71a5,5,0,0,0,5-5v-.71A5,5,0,0,0,47.5,88.68Zm3,5.71a3,3,0,0,1-3,3h-.71a3,3,0,0,1-3-3v-.71a3,3,0,0,1,3-3h.71a3,3,0,0,1,3,3Z"/><path class="cls-1" d="M62.74,88.68H62a5,5,0,0,0-5,5v.71a5,5,0,0,0,5,5h.71a5,5,0,0,0,5-5v-.71A5,5,0,0,0,62.74,88.68Zm3,5.71a3,3,0,0,1-3,3H62a3,3,0,0,1-3-3v-.71a3,3,0,0,1,3-3h.71a3,3,0,0,1,3,3Z"/><path class="cls-1" d="M78,88.68h-.71a5,5,0,0,0-5,5v.71a5,5,0,0,0,5,5H78a5,5,0,0,0,5-5v-.71A5,5,0,0,0,78,88.68Zm3,5.71a3,3,0,0,1-3,3h-.71a3,3,0,0,1-3-3v-.71a3,3,0,0,1,3-3H78a3,3,0,0,1,3,3Z"/><path class="cls-1" d="M70,140a70,70,0,1,1,70-70A70.08,70.08,0,0,1,70,140ZM70,2a68,68,0,1,0,68,68A68.08,68.08,0,0,0,70,2Z"/></svg>