<svg id="svg_1px" data-name="svg 1px" xmlns="http://www.w3.org/2000/svg" viewBox="0 0 140 140"><defs><style>.cls-1{fill:#fff;}</style></defs><title>calendar</title><path class="cls-1" d="M102.65,38H91.18V35a3.5,3.5,0,0,0-3.5-3.5h-.53a3.5,3.5,0,0,0-3.5,3.5v3H56.35V35a3.5,3.5,0,0,0-3.5-3.5h-.53a3.5,3.5,0,0,0-3.5,3.5v3H37.35a2.68,2.68,0,0,0-2.68,2.68v63.12a2.68,2.68,0,0,0,2.68,2.68h55.5a.51.51,0,0,0,.35-.15l12-12a.49.49,0,0,0,.12-.23v-.06a.47.47,0,0,0,0-.06V40.71A2.68,2.68,0,0,0,102.65,38Zm-18-3a2.5,2.5,0,0,1,2.5-2.5h.53a2.5,2.5,0,0,1,2.5,2.5v7.06a2.5,2.5,0,0,1-2.5,2.5h-.53a2.5,2.5,0,0,1-2.5-2.5ZM49.82,35a2.5,2.5,0,0,1,2.5-2.5h.53a2.5,2.5,0,0,1,2.5,2.5v7.06a2.5,2.5,0,0,1-2.5,2.5h-.53a2.5,2.5,0,0,1-2.5-2.5ZM37.35,39H48.82v3a3.5,3.5,0,0,0,3.5,3.5h.53a3.5,3.5,0,0,0,3.5-3.5V39H83.65v3a3.5,3.5,0,0,0,3.5,3.5h.53a3.5,3.5,0,0,0,3.5-3.5V39h11.47a1.68,1.68,0,0,1,1.68,1.68V51.09H35.68V40.71A1.68,1.68,0,0,1,37.35,39Zm-1.68,64.79V52.09h68.65V93.53H95a2.68,2.68,0,0,0-2.68,2.68v9.29h-55A1.68,1.68,0,0,1,35.68,103.82Zm57.68,1V96.21A1.68,1.68,0,0,1,95,94.53h8.59Z"/><path class="cls-1" d="M62.38,45.56H77.62a.5.5,0,0,0,0-1H62.38a.5.5,0,0,0,0,1Z"/><path class="cls-1" d="M47.5,58.71h-.71a4.5,4.5,0,0,0-4.5,4.5v.71a4.5,4.5,0,0,0,4.5,4.5h.71a4.5,4.5,0,0,0,4.5-4.5v-.71A4.5,4.5,0,0,0,47.5,58.71ZM51,63.91a3.5,3.5,0,0,1-3.5,3.5h-.71a3.5,3.5,0,0,1-3.5-3.5v-.71a3.5,3.5,0,0,1,3.5-3.5h.71a3.5,3.5,0,0,1,3.5,3.5Z"/><path class="cls-1" d="M62.74,58.71H62a4.5,4.5,0,0,0-4.5,4.5v.71a4.5,4.5,0,0,0,4.5,4.5h.71a4.5,4.5,0,0,0,4.5-4.5v-.71A4.5,4.5,0,0,0,62.74,58.71Zm3.5,5.21a3.5,3.5,0,0,1-3.5,3.5H62a3.5,3.5,0,0,1-3.5-3.5v-.71a3.5,3.5,0,0,1,3.5-3.5h.71a3.5,3.5,0,0,1,3.5,3.5Z"/><path class="cls-1" d="M78,58.71h-.71a4.5,4.5,0,0,0-4.5,4.5v.71a4.5,4.5,0,0,0,4.5,4.5H78a4.5,4.5,0,0,0,4.5-4.5v-.71A4.5,4.5,0,0,0,78,58.71Zm3.5,5.21a3.5,3.5,0,0,1-3.5,3.5h-.71a3.5,3.5,0,0,1-3.5-3.5v-.71a3.5,3.5,0,0,1,3.5-3.5H78a3.5,3.5,0,0,1,3.5,3.5Z"/><path class="cls-1" d="M92.5,68.41h.71a4.5,4.5,0,0,0,4.5-4.5v-.71a4.5,4.5,0,0,0-4.5-4.5H92.5a4.5,4.5,0,0,0-4.5,4.5v.71A4.5,4.5,0,0,0,92.5,68.41ZM89,63.21a3.5,3.5,0,0,1,3.5-3.5h.71a3.5,3.5,0,0,1,3.5,3.5v.71a3.5,3.5,0,0,1-3.5,3.5H92.5a3.5,3.5,0,0,1-3.5-3.5Z"/><path class="cls-1" d="M47.5,73.94h-.71a4.5,4.5,0,0,0-4.5,4.5v.71a4.5,4.5,0,0,0,4.5,4.5h.71a4.5,4.5,0,0,0,4.5-4.5v-.71A4.5,4.5,0,0,0,47.5,73.94ZM51,79.15a3.5,3.5,0,0,1-3.5,3.5h-.71a3.5,3.5,0,0,1-3.5-3.5v-.71a3.5,3.5,0,0,1,3.5-3.5h.71a3.5,3.5,0,0,1,3.5,3.5Z"/><path class="cls-1" d="M62.74,73.94H62a4.5,4.5,0,0,0-4.5,4.5v.71a4.5,4.5,0,0,0,4.5,4.5h.71a4.5,4.5,0,0,0,4.5-4.5v-.71A4.5,4.5,0,0,0,62.74,73.94Zm3.5,5.21a3.5,3.5,0,0,1-3.5,3.5H62a3.5,3.5,0,0,1-3.5-3.5v-.71a3.5,3.5,0,0,1,3.5-3.5h.71a3.5,3.5,0,0,1,3.5,3.5Z"/><path class="cls-1" d="M78,73.94h-.71a4.5,4.5,0,0,0-4.5,4.5v.71a4.5,4.5,0,0,0,4.5,4.5H78a4.5,4.5,0,0,0,4.5-4.5v-.71A4.5,4.5,0,0,0,78,73.94Zm3.5,5.21a3.5,3.5,0,0,1-3.5,3.5h-.71a3.5,3.5,0,0,1-3.5-3.5v-.71a3.5,3.5,0,0,1,3.5-3.5H78a3.5,3.5,0,0,1,3.5,3.5Z"/><path class="cls-1" d="M92.5,83.65h.71a4.5,4.5,0,0,0,4.5-4.5v-.71a4.5,4.5,0,0,0-4.5-4.5H92.5a4.5,4.5,0,0,0-4.5,4.5v.71A4.5,4.5,0,0,0,92.5,83.65ZM89,78.44a3.5,3.5,0,0,1,3.5-3.5h.71a3.5,3.5,0,0,1,3.5,3.5v.71a3.5,3.5,0,0,1-3.5,3.5H92.5a3.5,3.5,0,0,1-3.5-3.5Z"/><path class="cls-1" d="M47.5,89.18h-.71a4.5,4.5,0,0,0-4.5,4.5v.71a4.5,4.5,0,0,0,4.5,4.5h.71a4.5,4.5,0,0,0,4.5-4.5v-.71A4.5,4.5,0,0,0,47.5,89.18ZM51,94.38a3.5,3.5,0,0,1-3.5,3.5h-.71a3.5,3.5,0,0,1-3.5-3.5v-.71a3.5,3.5,0,0,1,3.5-3.5h.71a3.5,3.5,0,0,1,3.5,3.5Z"/><path class="cls-1" d="M62.74,89.18H62a4.5,4.5,0,0,0-4.5,4.5v.71a4.5,4.5,0,0,0,4.5,4.5h.71a4.5,4.5,0,0,0,4.5-4.5v-.71A4.5,4.5,0,0,0,62.74,89.18Zm3.5,5.21a3.5,3.5,0,0,1-3.5,3.5H62a3.5,3.5,0,0,1-3.5-3.5v-.71a3.5,3.5,0,0,1,3.5-3.5h.71a3.5,3.5,0,0,1,3.5,3.5Z"/><path class="cls-1" d="M78,89.18h-.71a4.5,4.5,0,0,0-4.5,4.5v.71a4.5,4.5,0,0,0,4.5,4.5H78a4.5,4.5,0,0,0,4.5-4.5v-.71A4.5,4.5,0,0,0,78,89.18Zm3.5,5.21a3.5,3.5,0,0,1-3.5,3.5h-.71a3.5,3.5,0,0,1-3.5-3.5v-.71a3.5,3.5,0,0,1,3.5-3.5H78a3.5,3.5,0,0,1,3.5,3.5Z"/><path class="cls-1" d="M70,139.5A69.5,69.5,0,1,1,139.5,70,69.58,69.58,0,0,1,70,139.5Zm0-138A68.5,68.5,0,1,0,138.5,70,68.58,68.58,0,0,0,70,1.5Z"/></svg>