<svg id="svg_1px" data-name="svg 1px" xmlns="http://www.w3.org/2000/svg" viewBox="0 0 96 96"><defs><style>.cls-1{fill:#fff;}</style></defs><title>calendar</title><path class="cls-1" d="M80.65,16H69.18V13a3.5,3.5,0,0,0-3.5-3.5h-.53a3.5,3.5,0,0,0-3.5,3.5v3H34.35V13a3.5,3.5,0,0,0-3.5-3.5h-.53a3.5,3.5,0,0,0-3.5,3.5v3H15.35a2.68,2.68,0,0,0-2.68,2.68V81.82a2.68,2.68,0,0,0,2.68,2.68h55.5a.51.51,0,0,0,.35-.15l12-12a.49.49,0,0,0,.12-.23v-.06a.47.47,0,0,0,0-.06V18.71A2.68,2.68,0,0,0,80.65,16Zm-18-3a2.5,2.5,0,0,1,2.5-2.5h.53a2.5,2.5,0,0,1,2.5,2.5v7.06a2.5,2.5,0,0,1-2.5,2.5h-.53a2.5,2.5,0,0,1-2.5-2.5ZM27.82,13a2.5,2.5,0,0,1,2.5-2.5h.53a2.5,2.5,0,0,1,2.5,2.5v7.06a2.5,2.5,0,0,1-2.5,2.5h-.53a2.5,2.5,0,0,1-2.5-2.5ZM15.35,17H26.82v3a3.5,3.5,0,0,0,3.5,3.5h.53a3.5,3.5,0,0,0,3.5-3.5V17H61.65v3a3.5,3.5,0,0,0,3.5,3.5h.53a3.5,3.5,0,0,0,3.5-3.5V17H80.65a1.68,1.68,0,0,1,1.68,1.68V29.09H13.68V18.71A1.68,1.68,0,0,1,15.35,17ZM13.68,81.82V30.09H82.32V71.53H73a2.68,2.68,0,0,0-2.68,2.68V83.5h-55A1.68,1.68,0,0,1,13.68,81.82Zm57.68,1V74.21A1.68,1.68,0,0,1,73,72.53h8.59Z"/><path class="cls-1" d="M40.38,23.56H55.62a.5.5,0,0,0,0-1H40.38a.5.5,0,0,0,0,1Z"/><path class="cls-1" d="M25.5,36.71h-.71a4.5,4.5,0,0,0-4.5,4.5v.71a4.5,4.5,0,0,0,4.5,4.5h.71a4.5,4.5,0,0,0,4.5-4.5v-.71A4.5,4.5,0,0,0,25.5,36.71ZM29,41.91a3.5,3.5,0,0,1-3.5,3.5h-.71a3.5,3.5,0,0,1-3.5-3.5v-.71a3.5,3.5,0,0,1,3.5-3.5h.71a3.5,3.5,0,0,1,3.5,3.5Z"/><path class="cls-1" d="M40.74,36.71H40a4.5,4.5,0,0,0-4.5,4.5v.71a4.5,4.5,0,0,0,4.5,4.5h.71a4.5,4.5,0,0,0,4.5-4.5v-.71A4.5,4.5,0,0,0,40.74,36.71Zm3.5,5.21a3.5,3.5,0,0,1-3.5,3.5H40a3.5,3.5,0,0,1-3.5-3.5v-.71a3.5,3.5,0,0,1,3.5-3.5h.71a3.5,3.5,0,0,1,3.5,3.5Z"/><path class="cls-1" d="M56,36.71h-.71a4.5,4.5,0,0,0-4.5,4.5v.71a4.5,4.5,0,0,0,4.5,4.5H56a4.5,4.5,0,0,0,4.5-4.5v-.71A4.5,4.5,0,0,0,56,36.71Zm3.5,5.21a3.5,3.5,0,0,1-3.5,3.5h-.71a3.5,3.5,0,0,1-3.5-3.5v-.71a3.5,3.5,0,0,1,3.5-3.5H56a3.5,3.5,0,0,1,3.5,3.5Z"/><path class="cls-1" d="M70.5,46.41h.71a4.5,4.5,0,0,0,4.5-4.5v-.71a4.5,4.5,0,0,0-4.5-4.5H70.5a4.5,4.5,0,0,0-4.5,4.5v.71A4.5,4.5,0,0,0,70.5,46.41ZM67,41.21a3.5,3.5,0,0,1,3.5-3.5h.71a3.5,3.5,0,0,1,3.5,3.5v.71a3.5,3.5,0,0,1-3.5,3.5H70.5a3.5,3.5,0,0,1-3.5-3.5Z"/><path class="cls-1" d="M25.5,51.94h-.71a4.5,4.5,0,0,0-4.5,4.5v.71a4.5,4.5,0,0,0,4.5,4.5h.71a4.5,4.5,0,0,0,4.5-4.5v-.71A4.5,4.5,0,0,0,25.5,51.94ZM29,57.15a3.5,3.5,0,0,1-3.5,3.5h-.71a3.5,3.5,0,0,1-3.5-3.5v-.71a3.5,3.5,0,0,1,3.5-3.5h.71a3.5,3.5,0,0,1,3.5,3.5Z"/><path class="cls-1" d="M40.74,51.94H40a4.5,4.5,0,0,0-4.5,4.5v.71a4.5,4.5,0,0,0,4.5,4.5h.71a4.5,4.5,0,0,0,4.5-4.5v-.71A4.5,4.5,0,0,0,40.74,51.94Zm3.5,5.21a3.5,3.5,0,0,1-3.5,3.5H40a3.5,3.5,0,0,1-3.5-3.5v-.71a3.5,3.5,0,0,1,3.5-3.5h.71a3.5,3.5,0,0,1,3.5,3.5Z"/><path class="cls-1" d="M56,51.94h-.71a4.5,4.5,0,0,0-4.5,4.5v.71a4.5,4.5,0,0,0,4.5,4.5H56a4.5,4.5,0,0,0,4.5-4.5v-.71A4.5,4.5,0,0,0,56,51.94Zm3.5,5.21a3.5,3.5,0,0,1-3.5,3.5h-.71a3.5,3.5,0,0,1-3.5-3.5v-.71a3.5,3.5,0,0,1,3.5-3.5H56a3.5,3.5,0,0,1,3.5,3.5Z"/><path class="cls-1" d="M70.5,61.65h.71a4.5,4.5,0,0,0,4.5-4.5v-.71a4.5,4.5,0,0,0-4.5-4.5H70.5a4.5,4.5,0,0,0-4.5,4.5v.71A4.5,4.5,0,0,0,70.5,61.65ZM67,56.44a3.5,3.5,0,0,1,3.5-3.5h.71a3.5,3.5,0,0,1,3.5,3.5v.71a3.5,3.5,0,0,1-3.5,3.5H70.5a3.5,3.5,0,0,1-3.5-3.5Z"/><path class="cls-1" d="M25.5,67.18h-.71a4.5,4.5,0,0,0-4.5,4.5v.71a4.5,4.5,0,0,0,4.5,4.5h.71a4.5,4.5,0,0,0,4.5-4.5v-.71A4.5,4.5,0,0,0,25.5,67.18ZM29,72.38a3.5,3.5,0,0,1-3.5,3.5h-.71a3.5,3.5,0,0,1-3.5-3.5v-.71a3.5,3.5,0,0,1,3.5-3.5h.71a3.5,3.5,0,0,1,3.5,3.5Z"/><path class="cls-1" d="M40.74,67.18H40a4.5,4.5,0,0,0-4.5,4.5v.71a4.5,4.5,0,0,0,4.5,4.5h.71a4.5,4.5,0,0,0,4.5-4.5v-.71A4.5,4.5,0,0,0,40.74,67.18Zm3.5,5.21a3.5,3.5,0,0,1-3.5,3.5H40a3.5,3.5,0,0,1-3.5-3.5v-.71a3.5,3.5,0,0,1,3.5-3.5h.71a3.5,3.5,0,0,1,3.5,3.5Z"/><path class="cls-1" d="M56,67.18h-.71a4.5,4.5,0,0,0-4.5,4.5v.71a4.5,4.5,0,0,0,4.5,4.5H56a4.5,4.5,0,0,0,4.5-4.5v-.71A4.5,4.5,0,0,0,56,67.18Zm3.5,5.21a3.5,3.5,0,0,1-3.5,3.5h-.71a3.5,3.5,0,0,1-3.5-3.5v-.71a3.5,3.5,0,0,1,3.5-3.5H56a3.5,3.5,0,0,1,3.5,3.5Z"/></svg>