<svg id="calendar_blue" data-name="svg 2px" xmlns="http://www.w3.org/2000/svg" viewBox="0 0 96 96"><defs><style>.cls-1{fill:#00008f;}</style></defs><title>calendar</title><path class="cls-1" d="M80.65,15.53h-11V13a4,4,0,0,0-4-4h-.53a4,4,0,0,0-4,4v2.53H34.85V13a4,4,0,0,0-4-4h-.53a4,4,0,0,0-4,4v2.53h-11a3.18,3.18,0,0,0-3.18,3.18V81.82A3.18,3.18,0,0,0,15.35,85h55.5a1,1,0,0,0,.71-.29l12-12h0a1,1,0,0,0,.19-.28l0-.09a1,1,0,0,0,.05-.27s0,0,0-.06V18.71A3.18,3.18,0,0,0,80.65,15.53ZM63.15,13a2,2,0,0,1,2-2h.53a2,2,0,0,1,2,2v7.06a2,2,0,0,1-2,2h-.53a2,2,0,0,1-2-2ZM28.32,13a2,2,0,0,1,2-2h.53a2,2,0,0,1,2,2v7.06a2,2,0,0,1-2,2h-.53a2,2,0,0,1-2-2Zm-13,4.53h11v2.53a4,4,0,0,0,4,4h.53a4,4,0,0,0,4-4V17.53H61.15v2.53a4,4,0,0,0,4,4h.53a4,4,0,0,0,4-4V17.53h11a1.18,1.18,0,0,1,1.18,1.18v9.88H14.18V18.71A1.18,1.18,0,0,1,15.35,17.53ZM14.18,81.82V30.59H81.82V71H73a3.18,3.18,0,0,0-3.18,3.18V83H15.35A1.18,1.18,0,0,1,14.18,81.82Zm57.68-.24V74.21A1.18,1.18,0,0,1,73,73h7.38Z"/><path class="cls-1" d="M40.38,24.06H55.62a1,1,0,0,0,0-2H40.38a1,1,0,0,0,0,2Z"/><path class="cls-1" d="M25.5,36.21h-.71a5,5,0,0,0-5,5v.71a5,5,0,0,0,5,5h.71a5,5,0,0,0,5-5v-.71A5,5,0,0,0,25.5,36.21Zm3,5.71a3,3,0,0,1-3,3h-.71a3,3,0,0,1-3-3v-.71a3,3,0,0,1,3-3h.71a3,3,0,0,1,3,3Z"/><path class="cls-1" d="M40.74,36.21H40a5,5,0,0,0-5,5v.71a5,5,0,0,0,5,5h.71a5,5,0,0,0,5-5v-.71A5,5,0,0,0,40.74,36.21Zm3,5.71a3,3,0,0,1-3,3H40a3,3,0,0,1-3-3v-.71a3,3,0,0,1,3-3h.71a3,3,0,0,1,3,3Z"/><path class="cls-1" d="M56,36.21h-.71a5,5,0,0,0-5,5v.71a5,5,0,0,0,5,5H56a5,5,0,0,0,5-5v-.71A5,5,0,0,0,56,36.21Zm3,5.71a3,3,0,0,1-3,3h-.71a3,3,0,0,1-3-3v-.71a3,3,0,0,1,3-3H56a3,3,0,0,1,3,3Z"/><path class="cls-1" d="M70.5,46.91h.71a5,5,0,0,0,5-5v-.71a5,5,0,0,0-5-5H70.5a5,5,0,0,0-5,5v.71A5,5,0,0,0,70.5,46.91Zm-3-5.71a3,3,0,0,1,3-3h.71a3,3,0,0,1,3,3v.71a3,3,0,0,1-3,3H70.5a3,3,0,0,1-3-3Z"/><path class="cls-1" d="M25.5,51.44h-.71a5,5,0,0,0-5,5v.71a5,5,0,0,0,5,5h.71a5,5,0,0,0,5-5v-.71A5,5,0,0,0,25.5,51.44Zm3,5.71a3,3,0,0,1-3,3h-.71a3,3,0,0,1-3-3v-.71a3,3,0,0,1,3-3h.71a3,3,0,0,1,3,3Z"/><path class="cls-1" d="M40.74,51.44H40a5,5,0,0,0-5,5v.71a5,5,0,0,0,5,5h.71a5,5,0,0,0,5-5v-.71A5,5,0,0,0,40.74,51.44Zm3,5.71a3,3,0,0,1-3,3H40a3,3,0,0,1-3-3v-.71a3,3,0,0,1,3-3h.71a3,3,0,0,1,3,3Z"/><path class="cls-1" d="M56,51.44h-.71a5,5,0,0,0-5,5v.71a5,5,0,0,0,5,5H56a5,5,0,0,0,5-5v-.71A5,5,0,0,0,56,51.44Zm3,5.71a3,3,0,0,1-3,3h-.71a3,3,0,0,1-3-3v-.71a3,3,0,0,1,3-3H56a3,3,0,0,1,3,3Z"/><path class="cls-1" d="M70.5,62.15h.71a5,5,0,0,0,5-5v-.71a5,5,0,0,0-5-5H70.5a5,5,0,0,0-5,5v.71A5,5,0,0,0,70.5,62.15Zm-3-5.71a3,3,0,0,1,3-3h.71a3,3,0,0,1,3,3v.71a3,3,0,0,1-3,3H70.5a3,3,0,0,1-3-3Z"/><path class="cls-1" d="M25.5,66.68h-.71a5,5,0,0,0-5,5v.71a5,5,0,0,0,5,5h.71a5,5,0,0,0,5-5v-.71A5,5,0,0,0,25.5,66.68Zm3,5.71a3,3,0,0,1-3,3h-.71a3,3,0,0,1-3-3v-.71a3,3,0,0,1,3-3h.71a3,3,0,0,1,3,3Z"/><path class="cls-1" d="M40.74,66.68H40a5,5,0,0,0-5,5v.71a5,5,0,0,0,5,5h.71a5,5,0,0,0,5-5v-.71A5,5,0,0,0,40.74,66.68Zm3,5.71a3,3,0,0,1-3,3H40a3,3,0,0,1-3-3v-.71a3,3,0,0,1,3-3h.71a3,3,0,0,1,3,3Z"/><path class="cls-1" d="M56,66.68h-.71a5,5,0,0,0-5,5v.71a5,5,0,0,0,5,5H56a5,5,0,0,0,5-5v-.71A5,5,0,0,0,56,66.68Zm3,5.71a3,3,0,0,1-3,3h-.71a3,3,0,0,1-3-3v-.71a3,3,0,0,1,3-3H56a3,3,0,0,1,3,3Z"/></svg>