<svg id="white_svg_1px" xmlns="http://www.w3.org/2000/svg" viewBox="0 0 140 140"><defs><style>.cls-1{fill:#fff;}</style></defs><title>car</title><path class="cls-1" d="M41.94,82.61a5,5,0,1,0,4.89,5A4.93,4.93,0,0,0,41.94,82.61Zm0,8.92a4,4,0,1,1,3.89-4A3.93,3.93,0,0,1,41.94,91.53Z"/><path class="cls-1" d="M92.64,82.62a5.15,5.15,0,1,0,5.07,5.15A5.12,5.12,0,0,0,92.64,82.62Zm0,9.29a4.15,4.15,0,1,1,4.07-4.15A4.11,4.11,0,0,1,92.64,91.91Z"/><path class="cls-1" d="M113.28,83V69.57c0-2.64-1.65-4.7-4.66-5.79L95,59,85.33,49c-5.82-5.45-9.85-6.51-14.84-6.51H47.15c-3.2,0-6.07,2.65-7.91,4.87L29.62,59a3.54,3.54,0,0,1-1,.8A3.65,3.65,0,0,0,26.72,63V83a3.32,3.32,0,0,0,1.06,6.45h3.56a10.73,10.73,0,0,0,21.19,0H82.21a10.54,10.54,0,0,0,20.86,0h9.16A3.32,3.32,0,0,0,113.28,83Zm-1-13.45v2.08a7.36,7.36,0,0,1-4.68-2.37,18,18,0,0,1-3-5.85l3.64,1.29C110.1,65.39,112.28,66.77,112.28,69.57ZM29.07,60.66l.37-.22c1.8,0,2.88,1,2.88,2.56a4.66,4.66,0,0,1-4.59,4.28V63A2.65,2.65,0,0,1,29.07,60.66ZM27.72,68.3A5.68,5.68,0,0,0,33.31,63a3.46,3.46,0,0,0-1-2.51,3.74,3.74,0,0,0-1.87-.93L40,48c1.4-1.69,4.18-4.51,7.14-4.51H70.49c4.74,0,8.58,1,14.14,6.23l9.74,10a.49.49,0,0,0,.19.12L103.47,63a20,20,0,0,0,3.37,6.91,8.33,8.33,0,0,0,5.43,2.72V82.84H102a10.49,10.49,0,0,0-18.77,0h-20V63.59h25.3l.11,0,.09-.05.06,0h0a.5.5,0,0,0,.07-.09l0-.07a1.78,1.78,0,0,0,0-.19v0A.45.45,0,0,0,89,63a.47.47,0,0,0,0-.1.48.48,0,0,0-.05-.1l0-.06L79.47,52.09a14.79,14.79,0,0,0-10.06-3.95H52a6,6,0,0,0-4.53,2.07L38.14,62.79l0,.05,0,.09a.49.49,0,0,0,0,.1.46.46,0,0,0,0,.05s0,0,0,0a.48.48,0,0,0,0,.1.49.49,0,0,0,0,.09l.05.08.07.08,0,0h0a.49.49,0,0,0,.27.09H62.28V82.83H51.63a10.68,10.68,0,0,0-19.38,0H27.72ZM63.28,49.14h6.14a13.77,13.77,0,0,1,9.34,3.65l8.65,9.8H63.28Zm-1,13.45H39.53l8.7-11.75A5,5,0,0,1,52,49.14H62.28ZM27.78,88.47a2.32,2.32,0,0,1,0-4.64h4.05a11,11,0,0,0-.66,3.74c0,.31,0,.6,0,.9Zm14.16,9a9.93,9.93,0,1,1,9.77-9.93A9.86,9.86,0,0,1,41.94,97.5Zm10.73-9c0-.3,0-.6,0-.9A11,11,0,0,0,52,83.83H82.8a10.8,10.8,0,0,0-.75,3.94c0,.24,0,.47,0,.71Zm40,9a9.74,9.74,0,1,1,9.58-9.73A9.67,9.67,0,0,1,92.64,97.5Zm19.59-9h-9c0-.23,0-.47,0-.71a10.8,10.8,0,0,0-.75-3.94h9.75a2.32,2.32,0,0,1,0,4.64Z"/><path class="cls-1" d="M70.3,67.83H68.08a.5.5,0,0,0,0,1H70.3a.5.5,0,0,0,0-1Z"/><path class="cls-1" d="M70,139.5A69.5,69.5,0,1,1,139.5,70,69.58,69.58,0,0,1,70,139.5Zm0-138A68.5,68.5,0,1,0,138.5,70,68.58,68.58,0,0,0,70,1.5Z"/></svg>