<svg id="car_blue" xmlns="http://www.w3.org/2000/svg" viewBox="0 0 96 96"><defs><style>.cls-1{fill:#00008f;}</style></defs><title>car</title><path class="cls-1" d="M19.94,60.11a5.46,5.46,0,1,0,5.39,5.46A5.43,5.43,0,0,0,19.94,60.11Zm0,8.92a3.46,3.46,0,1,1,3.39-3.46A3.43,3.43,0,0,1,19.94,69Z"/><path class="cls-1" d="M70.64,60.12a5.65,5.65,0,1,0,5.57,5.65A5.62,5.62,0,0,0,70.64,60.12Zm0,9.29a3.65,3.65,0,1,1,3.57-3.65A3.61,3.61,0,0,1,70.64,69.41Z"/><path class="cls-1" d="M91.78,60.68V47.57c0-2.87-1.77-5.09-5-6.26L73.28,36.54l-9.61-9.89C57.76,21.11,53.48,20,48.49,20H25.15c-3.39,0-6.38,2.75-8.29,5.05L7.23,36.66a3.08,3.08,0,0,1-.89.68A4.15,4.15,0,0,0,4.22,41v19.7A3.82,3.82,0,0,0,5.78,68H8.92a11.24,11.24,0,0,0,22,0H59.78A11,11,0,0,0,81.5,68h8.73a3.82,3.82,0,0,0,1.56-7.29Zm-2-13.11v1.5A6.67,6.67,0,0,1,86,47a15.86,15.86,0,0,1-2.53-4.7l2.66.94C88.54,44.08,89.78,45.55,89.78,47.57ZM18.39,26.33c1.34-1.62,4-4.33,6.75-4.33H48.49c4.62,0,8.36,1,13.78,6.08L72,38.1a1,1,0,0,0,.38.25l8.67,3.07a20.12,20.12,0,0,0,3.4,6.85,8.76,8.76,0,0,0,5.31,2.83v9.23H80.32a11,11,0,0,0-19.38,0H41.78V42.09H66.51a.94.94,0,0,0,.14,0,.66.66,0,0,0,.39-.15.94.94,0,0,0,.12-.07l0,0a1,1,0,0,0,.13-.17,1,1,0,0,0,.1-.14,1,1,0,0,0,0-.16,1,1,0,0,0,0-.22s0,0,0,0a1,1,0,0,0,0-.14.66.66,0,0,0-.15-.39.93.93,0,0,0-.07-.13L57.88,29.8l-.07-.07a15.29,15.29,0,0,0-10.39-4.08H30a6.56,6.56,0,0,0-4.93,2.27L15.74,40.5a1,1,0,0,0,0,.1,1,1,0,0,0-.09.18,1,1,0,0,0,0,.2.93.93,0,0,0,0,.11s0,0,0,.07a1,1,0,0,0,0,.2,1,1,0,0,0,.06.17,1.38,1.38,0,0,0,.24.3l0,.05.13.07.11.06a1,1,0,0,0,.35.07H39.78V60.33H29.95a11.18,11.18,0,0,0-20,0H6.22V46.75A6.12,6.12,0,0,0,11.81,41a3.81,3.81,0,0,0-2.5-3.71Zm23.39,1.31h5.64a13.29,13.29,0,0,1,9,3.52l7.88,8.93H41.78Zm-2,12.45H18.52L26.6,29.17A4.53,4.53,0,0,1,30,27.64h9.79Zm-32.46-1,.25-.15C9,39,9.81,39.76,9.81,41a4.1,4.1,0,0,1-3.59,3.73V41A2.15,2.15,0,0,1,7.31,39.09ZM5.78,66a1.82,1.82,0,0,1,0-3.64H9.13a11.53,11.53,0,0,0-.47,3.24c0,.14,0,.27,0,.4Zm14.16,9a9.43,9.43,0,1,1,9.27-9.43A9.36,9.36,0,0,1,19.94,75Zm11.25-9c0-.14,0-.27,0-.4a11.53,11.53,0,0,0-.47-3.24H60.09a11.33,11.33,0,0,0-.53,3.44c0,.07,0,.14,0,.21Zm39.45,9a9.24,9.24,0,1,1,9.08-9.23A9.17,9.17,0,0,1,70.64,75Zm19.59-9H81.7c0-.07,0-.14,0-.21a11.33,11.33,0,0,0-.53-3.44h9a1.82,1.82,0,0,1,0,3.64Z"/><path class="cls-1" d="M48.3,45.33H46.08a1,1,0,0,0,0,2H48.3a1,1,0,0,0,0-2Z"/></svg>