<svg id="blue_svg__2px" data-name="blue_svg _2px" xmlns="http://www.w3.org/2000/svg" viewBox="0 0 140 140"><defs><style>.cls-1{fill:#00008f;}</style></defs><title>car</title><path class="cls-1" d="M41.94,82.11a5.46,5.46,0,1,0,5.39,5.46A5.43,5.43,0,0,0,41.94,82.11Zm0,8.92a3.46,3.46,0,1,1,3.39-3.46A3.43,3.43,0,0,1,41.94,91Z"/><path class="cls-1" d="M92.64,82.12a5.65,5.65,0,1,0,5.57,5.65A5.62,5.62,0,0,0,92.64,82.12Zm0,9.29a3.65,3.65,0,1,1,3.57-3.65A3.61,3.61,0,0,1,92.64,91.41Z"/><path class="cls-1" d="M113.78,82.68V69.57c0-2.87-1.77-5.09-5-6.26L95.28,58.54l-9.61-9.89C79.76,43.11,75.48,42,70.49,42H47.15c-3.39,0-6.38,2.75-8.29,5.05L29.23,58.66a3.08,3.08,0,0,1-.89.68A4.15,4.15,0,0,0,26.22,63v19.7A3.82,3.82,0,0,0,27.78,90h3.14a11.24,11.24,0,0,0,22,0H81.78a11,11,0,0,0,21.72,0h8.73a3.82,3.82,0,0,0,1.56-7.29Zm-2-13.11v1.5A6.67,6.67,0,0,1,108,69a15.86,15.86,0,0,1-2.53-4.7l2.66.94C110.54,66.08,111.78,67.55,111.78,69.57ZM40.39,48.33c1.34-1.62,4-4.33,6.75-4.33H70.49c4.62,0,8.36,1,13.78,6.08L94,60.1a1,1,0,0,0,.38.25l8.67,3.07a20.12,20.12,0,0,0,3.4,6.85,8.76,8.76,0,0,0,5.31,2.83v9.23h-9.45a11,11,0,0,0-19.38,0H63.78V64.09H88.51a.94.94,0,0,0,.14,0,.66.66,0,0,0,.39-.15.94.94,0,0,0,.12-.07l0,0a1,1,0,0,0,.13-.17,1,1,0,0,0,.1-.14,1,1,0,0,0,0-.16,1,1,0,0,0,0-.22s0,0,0,0a1,1,0,0,0,0-.14.66.66,0,0,0-.15-.39.93.93,0,0,0-.07-.13L79.88,51.8l-.07-.07a15.29,15.29,0,0,0-10.39-4.08H52a6.56,6.56,0,0,0-4.93,2.27L37.74,62.5a1,1,0,0,0,0,.1,1,1,0,0,0-.09.18,1,1,0,0,0,0,.2.93.93,0,0,0,0,.11s0,0,0,.07a1,1,0,0,0,0,.2,1,1,0,0,0,.06.17,1.38,1.38,0,0,0,.24.3l0,.05.13.07.11.06a1,1,0,0,0,.35.07H61.78V82.33H51.95a11.18,11.18,0,0,0-20,0H28.22V68.75A6.12,6.12,0,0,0,33.81,63a3.81,3.81,0,0,0-2.5-3.71Zm23.39,1.31h5.64a13.29,13.29,0,0,1,9,3.52l7.88,8.93H63.78Zm-2,12.45H40.52L48.6,51.17A4.53,4.53,0,0,1,52,49.64h9.79Zm-32.46-1,.25-.15c1.43.08,2.25.82,2.25,2.06a4.1,4.1,0,0,1-3.59,3.73V63A2.15,2.15,0,0,1,29.31,61.09ZM27.78,88a1.82,1.82,0,0,1,0-3.64h3.36a11.53,11.53,0,0,0-.47,3.24c0,.14,0,.27,0,.4Zm14.16,9a9.43,9.43,0,1,1,9.27-9.43A9.36,9.36,0,0,1,41.94,97Zm11.25-9c0-.14,0-.27,0-.4a11.53,11.53,0,0,0-.47-3.24H82.09a11.33,11.33,0,0,0-.53,3.44c0,.07,0,.14,0,.21Zm39.45,9a9.24,9.24,0,1,1,9.08-9.23A9.17,9.17,0,0,1,92.64,97Zm19.59-9H103.7c0-.07,0-.14,0-.21a11.33,11.33,0,0,0-.53-3.44h9a1.82,1.82,0,0,1,0,3.64Z"/><path class="cls-1" d="M70.3,67.33H68.08a1,1,0,0,0,0,2H70.3a1,1,0,0,0,0-2Z"/><path class="cls-1" d="M70,140a70,70,0,1,1,70-70A70.08,70.08,0,0,1,70,140ZM70,2a68,68,0,1,0,68,68A68.08,68.08,0,0,0,70,2Z"/></svg>