<svg id="white_svg_1px" xmlns="http://www.w3.org/2000/svg" viewBox="0 0 96 96"><defs><style>.cls-1{fill:#fff;}</style></defs><title>car</title><path class="cls-1" d="M19.94,60.61a5,5,0,1,0,4.89,5A4.93,4.93,0,0,0,19.94,60.61Zm0,8.92a4,4,0,1,1,3.89-4A3.93,3.93,0,0,1,19.94,69.53Z"/><path class="cls-1" d="M70.64,60.62a5.15,5.15,0,1,0,5.07,5.15A5.12,5.12,0,0,0,70.64,60.62Zm0,9.29a4.15,4.15,0,1,1,4.07-4.15A4.11,4.11,0,0,1,70.64,69.91Z"/><path class="cls-1" d="M91.28,61V47.57c0-2.64-1.65-4.7-4.66-5.79L73,37,63.33,27c-5.82-5.45-9.85-6.51-14.84-6.51H25.15c-3.2,0-6.07,2.65-7.91,4.87L7.62,37a3.54,3.54,0,0,1-1,.8A3.65,3.65,0,0,0,4.72,41V61a3.32,3.32,0,0,0,1.06,6.45H9.34a10.73,10.73,0,0,0,21.19,0H60.21a10.54,10.54,0,0,0,20.86,0h9.16A3.32,3.32,0,0,0,91.28,61Zm-1-13.45v2.08a7.36,7.36,0,0,1-4.68-2.37,18,18,0,0,1-3-5.85l3.64,1.29C88.1,43.39,90.28,44.77,90.28,47.57ZM7.07,38.66l.37-.22c1.8,0,2.88,1,2.88,2.56a4.66,4.66,0,0,1-4.59,4.28V41A2.65,2.65,0,0,1,7.07,38.66ZM5.72,46.3A5.68,5.68,0,0,0,11.31,41a3.46,3.46,0,0,0-1-2.51,3.74,3.74,0,0,0-1.87-.93L18,26c1.4-1.69,4.18-4.51,7.14-4.51H48.49c4.74,0,8.58,1,14.14,6.23l9.74,10a.49.49,0,0,0,.19.12L81.47,41a20,20,0,0,0,3.37,6.91,8.33,8.33,0,0,0,5.43,2.72V60.84H80a10.49,10.49,0,0,0-18.77,0h-20V41.59h25.3l.11,0,.09-.05.06,0h0a.5.5,0,0,0,.07-.09l0-.07a1.78,1.78,0,0,0,0-.19v0A.45.45,0,0,0,67,41a.47.47,0,0,0,0-.1.48.48,0,0,0-.05-.1l0-.06L57.47,30.09a14.79,14.79,0,0,0-10.06-3.95H30a6,6,0,0,0-4.53,2.07L16.14,40.79l0,.05,0,.09a.49.49,0,0,0,0,.1.46.46,0,0,0,0,.05s0,0,0,0a.48.48,0,0,0,0,.1.49.49,0,0,0,0,.09l.05.08.07.08,0,0h0a.49.49,0,0,0,.27.09H40.28V60.83H29.63a10.68,10.68,0,0,0-19.38,0H5.72ZM41.28,27.14h6.14a13.77,13.77,0,0,1,9.34,3.65l8.65,9.8H41.28Zm-1,13.45H17.53l8.7-11.75A5,5,0,0,1,30,27.14H40.28ZM5.78,66.47a2.32,2.32,0,0,1,0-4.64H9.83a11,11,0,0,0-.66,3.74c0,.31,0,.6,0,.9Zm14.16,9a9.93,9.93,0,1,1,9.77-9.93A9.86,9.86,0,0,1,19.94,75.5Zm10.73-9c0-.3,0-.6,0-.9A11,11,0,0,0,30,61.83H60.8a10.8,10.8,0,0,0-.75,3.94c0,.24,0,.47,0,.71Zm40,9a9.74,9.74,0,1,1,9.58-9.73A9.67,9.67,0,0,1,70.64,75.5Zm19.59-9h-9c0-.23,0-.47,0-.71a10.8,10.8,0,0,0-.75-3.94h9.75a2.32,2.32,0,0,1,0,4.64Z"/><path class="cls-1" d="M48.3,45.83H46.08a.5.5,0,0,0,0,1H48.3a.5.5,0,0,0,0-1Z"/></svg>