<svg id="svg_2px" data-name="svg 2px" xmlns="http://www.w3.org/2000/svg" viewBox="0 0 140 140"><defs><style>.cls-1{fill:#00008f;}</style></defs><title>email</title><path class="cls-1" d="M106,43H34a5,5,0,0,0-5,5V92a5,5,0,0,0,5,5h72a5,5,0,0,0,5-5V48A5,5,0,0,0,106,43Zm3,49a3,3,0,0,1-.32,1.31L84.9,70,109,50.81ZM34,45h72a3,3,0,0,1,3,3v.25L70,79.36,31,48.25V48A3,3,0,0,1,34,45ZM31.32,93.31A3,3,0,0,1,31,92V50.81L55.1,70ZM34,95a3,3,0,0,1-1.26-.29L56.67,71.29l12.7,10.13a1,1,0,0,0,1.25,0l12.7-10.13,23.93,23.43A3,3,0,0,1,106,95Z"/><path class="cls-1" d="M70,140a70,70,0,1,1,70-70A70.08,70.08,0,0,1,70,140ZM70,2a68,68,0,1,0,68,68A68.08,68.08,0,0,0,70,2Z"/></svg>