<svg id="svg_1px" data-name="svg 1px" xmlns="http://www.w3.org/2000/svg" viewBox="0 0 140 140"><defs><style>.cls-1{fill:#fff;}</style></defs><title>email</title><path class="cls-1" d="M106,43.5H34A4.5,4.5,0,0,0,29.5,48V92A4.5,4.5,0,0,0,34,96.5h72a4.5,4.5,0,0,0,4.5-4.5V48A4.5,4.5,0,0,0,106,43.5Zm-72,1h72a3.5,3.5,0,0,1,3.5,3.5v.49L70,80,30.5,48.49V48A3.5,3.5,0,0,1,34,44.5ZM30.5,92V49.77L55.85,70,31.22,94.1A3.47,3.47,0,0,1,30.5,92ZM34,95.5a3.47,3.47,0,0,1-2.07-.69L56.64,70.62,69.69,81a.5.5,0,0,0,.62,0l13-10.41,24.71,24.19a3.47,3.47,0,0,1-2.07.69Zm74.78-1.4L84.15,70,109.5,49.77V92A3.47,3.47,0,0,1,108.78,94.1Z"/><path class="cls-1" d="M70,139.5A69.5,69.5,0,1,1,139.5,70,69.58,69.58,0,0,1,70,139.5Zm0-138A68.5,68.5,0,1,0,138.5,70,68.58,68.58,0,0,0,70,1.5Z"/></svg>