<svg id="svg_1px" data-name="svg 1px" xmlns="http://www.w3.org/2000/svg" viewBox="0 0 96 96"><defs><style>.cls-1{fill:#fff;}</style></defs><title>email</title><path class="cls-1" d="M84,21.5H12A4.5,4.5,0,0,0,7.5,26V70A4.5,4.5,0,0,0,12,74.5H84A4.5,4.5,0,0,0,88.5,70V26A4.5,4.5,0,0,0,84,21.5Zm-72,1H84A3.5,3.5,0,0,1,87.5,26v.49L48,58,8.5,26.49V26A3.5,3.5,0,0,1,12,22.5ZM8.5,70V27.77L33.85,48,9.22,72.1A3.47,3.47,0,0,1,8.5,70ZM12,73.5a3.47,3.47,0,0,1-2.07-.69L34.64,48.62,47.69,59a.5.5,0,0,0,.62,0l13-10.41L86.07,72.81A3.47,3.47,0,0,1,84,73.5Zm74.78-1.4L62.15,48,87.5,27.77V70A3.47,3.47,0,0,1,86.78,72.1Z"/></svg>