<svg id="blue_svg__2px" data-name="blue_svg _2px" xmlns="http://www.w3.org/2000/svg" viewBox="0 0 140 140"><defs><style>.cls-1{fill:#00008f;}</style></defs><title>house</title><path class="cls-1" d="M108.3,53.58,73.46,27.16a5.74,5.74,0,0,0-6.92,0L31.67,53.61A4.18,4.18,0,0,0,30,57a4.3,4.3,0,0,0,4.73,4.28V103a1,1,0,0,0,1,1h68.55a1,1,0,0,0,1-1V61.28a4.24,4.24,0,0,0,.42,0A4.31,4.31,0,0,0,110,57,4.21,4.21,0,0,0,108.3,53.58ZM79.64,102H60.36V70.88H79.64Zm23.64,0H81.64V69.88a1,1,0,0,0-1-1H59.36a1,1,0,0,0-1,1V102H36.73V60.54l.17-.11,33-25a.18.18,0,0,1,.22,0l33,25,.17.11Zm3.45-42.93a2.25,2.25,0,0,1-2.41-.23l-33-25a2.19,2.19,0,0,0-2.64,0l-33,25A2.3,2.3,0,0,1,32,57a2.18,2.18,0,0,1,.91-1.83L67.75,28.76a3.74,3.74,0,0,1,4.5,0l34.81,26.39A2.19,2.19,0,0,1,108,57,2.26,2.26,0,0,1,106.72,59.07Z"/><path class="cls-1" d="M70,48.45a5.73,5.73,0,1,0,5.73,5.73A5.74,5.74,0,0,0,70,48.45Zm0,9.46a3.73,3.73,0,1,1,3.73-3.73A3.73,3.73,0,0,1,70,57.92Z"/><path class="cls-1" d="M65.27,87.44h2.36a1,1,0,1,0,0-2H65.27a1,1,0,0,0,0,2Z"/><path class="cls-1" d="M70,140a70,70,0,1,1,70-70A70.08,70.08,0,0,1,70,140ZM70,2a68,68,0,1,0,68,68A68.08,68.08,0,0,0,70,2Z"/></svg>