<svg id="white_svg_1px" xmlns="http://www.w3.org/2000/svg" viewBox="0 0 96 96"><defs><style>.cls-1{fill:#fff;}</style></defs><title>house</title><path class="cls-1" d="M86,32,51.16,5.56a5.24,5.24,0,0,0-6.31,0L10,32A3.67,3.67,0,0,0,8.5,35a3.8,3.8,0,0,0,4.73,3.68V81a.5.5,0,0,0,.5.5H82.27a.5.5,0,0,0,.5-.5V38.68a3.75,3.75,0,0,0,.93.13A3.81,3.81,0,0,0,87.5,35,3.73,3.73,0,0,0,86,32ZM58.14,80.5H37.86V48.38H58.14Zm23.64,0H59.14V47.88a.5.5,0,0,0-.5-.5H37.36a.5.5,0,0,0-.5.5V80.5H14.23V38.28a3.87,3.87,0,0,0,.36-.24l33-25a.68.68,0,0,1,.82,0l33,25a3.84,3.84,0,0,0,.36.23Zm3.17-43A2.74,2.74,0,0,1,82,37.24l-33-25a1.69,1.69,0,0,0-2,0l-33,25A2.8,2.8,0,0,1,9.5,35a2.67,2.67,0,0,1,1.11-2.23L45.45,6.36a4.24,4.24,0,0,1,5.1,0L85.38,32.76A2.69,2.69,0,0,1,86.5,35,2.75,2.75,0,0,1,84.95,37.52Z"/><path class="cls-1" d="M48,27a5.23,5.23,0,1,0,5.23,5.23A5.24,5.24,0,0,0,48,27Zm0,9.46a4.23,4.23,0,1,1,4.23-4.23A4.23,4.23,0,0,1,48,36.42Z"/><path class="cls-1" d="M43.27,64.94h2.36a.5.5,0,0,0,0-1H43.27a.5.5,0,0,0,0,1Z"/></svg>