<svg id="white_svg_1px" xmlns="http://www.w3.org/2000/svg" viewBox="0 0 140 140"><defs><style>.cls-1{fill:#fff;}</style></defs><title>house</title><path class="cls-1" d="M108,54,73.16,27.56a5.24,5.24,0,0,0-6.31,0L32,54a3.67,3.67,0,0,0-1.49,3,3.8,3.8,0,0,0,4.73,3.68V103a.5.5,0,0,0,.5.5h68.55a.5.5,0,0,0,.5-.5V60.68a3.75,3.75,0,0,0,.93.13,3.81,3.81,0,0,0,3.8-3.8A3.73,3.73,0,0,0,108,54ZM80.14,102.5H59.86V70.38H80.14Zm23.64,0H81.14V69.88a.5.5,0,0,0-.5-.5H59.36a.5.5,0,0,0-.5.5V102.5H36.23V60.28a3.87,3.87,0,0,0,.36-.24l33-25a.68.68,0,0,1,.82,0l33,25a3.84,3.84,0,0,0,.36.23Zm3.17-43a2.74,2.74,0,0,1-2.93-.28l-33-25a1.69,1.69,0,0,0-2,0l-33,25A2.8,2.8,0,0,1,31.5,57a2.67,2.67,0,0,1,1.11-2.23L67.45,28.36a4.24,4.24,0,0,1,5.1,0l34.82,26.41A2.69,2.69,0,0,1,108.5,57,2.75,2.75,0,0,1,106.95,59.52Z"/><path class="cls-1" d="M70,49a5.23,5.23,0,1,0,5.23,5.23A5.24,5.24,0,0,0,70,49Zm0,9.46a4.23,4.23,0,1,1,4.23-4.23A4.23,4.23,0,0,1,70,58.42Z"/><path class="cls-1" d="M65.27,86.94h2.36a.5.5,0,1,0,0-1H65.27a.5.5,0,0,0,0,1Z"/><path class="cls-1" d="M70,139.5A69.5,69.5,0,1,1,139.5,70,69.58,69.58,0,0,1,70,139.5Zm0-138A68.5,68.5,0,1,0,138.5,70,68.58,68.58,0,0,0,70,1.5Z"/></svg>