<svg id="blue_svg_2px" xmlns="http://www.w3.org/2000/svg" viewBox="0 0 140 140"><defs><style>.cls-1{fill:#00008f;}</style></defs><title>man</title><path class="cls-1" d="M91.07,79.48l-10.74-1.7V72.22a16.06,16.06,0,0,0,5.24-10.87,16.09,16.09,0,0,0,6.76-13.47V40.16A6.23,6.23,0,0,0,86.57,34a20.28,20.28,0,0,0-17.29-9H67.7c-11,0-20,8.69-20,19.37v3.16c0,5.32,2.82,11,6.75,13.8a16.06,16.06,0,0,0,5.25,10.89v5.56l-10.72,1.7C39.71,80.8,33,88.08,33,96.81v6a6.27,6.27,0,0,0,5.32,6l14.76,2.64a95.9,95.9,0,0,0,33.84,0l14.76-2.64a6.27,6.27,0,0,0,5.32-6v-6C107,88.08,100.29,80.8,91.07,79.48Zm-41.41-32V44.37c0-9.58,8.09-17.37,18-17.37h1.58a18.25,18.25,0,0,1,15.87,8.53A1,1,0,0,0,86,36a4.25,4.25,0,0,1,4.33,4.15v7.72a14.25,14.25,0,0,1-4.67,10.86V46.59a1,1,0,0,0-1-1h-.27c-3.22,0-6.72-2.51-8.14-5.83a1,1,0,0,0-1.82,0c-2.57,5.35-5.32,8.44-11.77,8.44H55.33a1,1,0,0,0-1,1v9.51A16.11,16.11,0,0,1,49.67,47.52Zm6.67,11.93V50.16h6.33c7.25,0,10.5-3.8,12.7-7.85a11.55,11.55,0,0,0,8.3,5.25v11.9c0,7.19-4.23,14.44-13.67,14.44S56.33,66.65,56.33,59.46ZM70,75.9a15.91,15.91,0,0,0,8.33-2.24v5a.94.94,0,0,0,0,.12,1,1,0,0,0,0,.2,1,1,0,0,0,.08.17.84.84,0,0,0,.24.29l.16.11.19.07.11,0L81,79.9,71.29,91a1.79,1.79,0,0,1-2.58,0L59,79.9l1.82-.29.11,0,.19-.07.16-.11.14-.13a1,1,0,0,0,.11-.16.82.82,0,0,0,.12-.37.94.94,0,0,0,0-.12v-5A15.91,15.91,0,0,0,70,75.9Zm35,26.92a4.27,4.27,0,0,1-3.67,4.07l-9,1.61V103a1,1,0,0,0-2,0v5.85l-3.76.67a93.91,93.91,0,0,1-33.14,0l-3.76-.67V103a1,1,0,0,0-2,0v5.49l-9-1.61A4.27,4.27,0,0,1,35,102.82v-6c0-7.72,6-14.17,14.24-15.35l7.43-1.18L67.2,92.35a3.73,3.73,0,0,0,5.59,0L83.33,80.27l7.45,1.18C99,82.63,105,89.09,105,96.81Z"/><path class="cls-1" d="M70,140a70,70,0,1,1,70-70A70.08,70.08,0,0,1,70,140ZM70,2a68,68,0,1,0,68,68A68.08,68.08,0,0,0,70,2Z"/></svg>