<svg id="white_svg_1px" xmlns="http://www.w3.org/2000/svg" viewBox="0 0 140 140"><defs><style>.cls-1{fill:#fff;}</style></defs><title>man</title><path class="cls-1" d="M91,80,79.83,78.2V72.07a15.44,15.44,0,0,0,5.27-11,15.5,15.5,0,0,0,6.73-13.19V40.16a5.74,5.74,0,0,0-5.55-5.64,19.76,19.76,0,0,0-17-9H67.7C56.93,25.5,48.17,34,48.17,44.37v3.16c0,5.26,2.82,10.9,6.73,13.52a15.45,15.45,0,0,0,5.27,11V78.2l-3.24.51h0L49,80C40,81.26,33.5,88.34,33.5,96.81v6a5.77,5.77,0,0,0,4.9,5.55L53.17,111a95.4,95.4,0,0,0,33.67,0l14.76-2.64a5.77,5.77,0,0,0,4.9-5.55v-6C106.5,88.34,100,81.26,91,80ZM49.17,47.52V44.37c0-9.85,8.31-17.87,18.53-17.87h1.58a18.75,18.75,0,0,1,16.29,8.77.5.5,0,0,0,.43.24,4.75,4.75,0,0,1,4.83,4.65v7.72a14.84,14.84,0,0,1-5.68,11.92c0-.11,0-.22,0-.33V46.59a.5.5,0,0,0-.5-.5h-.27c-3.46,0-7.08-2.58-8.6-6.13a.5.5,0,0,0-.45-.3.55.55,0,0,0-.46.28c-2.59,5.39-5.54,8.72-12.22,8.72H55.33a.5.5,0,0,0-.5.5V59.46c0,.11,0,.21,0,.32A16.35,16.35,0,0,1,49.17,47.52Zm6.67,11.93V49.66h6.83c7.44,0,10.53-4.17,12.66-8.37a11,11,0,0,0,8.84,5.79V59.46C84.17,68.4,78.47,74.4,70,74.4S55.83,68.4,55.83,59.46ZM70,75.4a15.42,15.42,0,0,0,8.83-2.57v5.79a.47.47,0,0,0,0,.06.48.48,0,0,0,0,.1l0,.09.05.08L79,79l.08.05.09,0,.06,0,2.71.43L71.67,91.36a2.31,2.31,0,0,1-3.33,0L58,79.55l2.71-.43.06,0,.09,0L61,79l.07-.07.05-.08,0-.09a.48.48,0,0,0,0-.1.47.47,0,0,0,0-.06V72.83A15.42,15.42,0,0,0,70,75.4Zm35.5,27.42a4.77,4.77,0,0,1-4.08,4.56l-9.59,1.71V103a.5.5,0,0,0-1,0v6.26l-4.17.75a94.39,94.39,0,0,1-33.32,0l-4.17-.75V103a.5.5,0,0,0-1,0v6.08l-9.59-1.71a4.77,4.77,0,0,1-4.08-4.56v-6c0-8,6.16-14.63,14.66-15.85l7.71-1.22L67.58,92a3.23,3.23,0,0,0,4.84,0L83.13,79.74,90.84,81c8.49,1.21,14.66,7.88,14.66,15.85Z"/><path class="cls-1" d="M70,139.5A69.5,69.5,0,1,1,139.5,70,69.58,69.58,0,0,1,70,139.5Zm0-138A68.5,68.5,0,1,0,138.5,70,68.58,68.58,0,0,0,70,1.5Z"/></svg>