<svg id="man_tie_blue" xmlns="http://www.w3.org/2000/svg" viewBox="0 0 96 96"><defs><style>.cls-1{fill:#00008f;}</style></defs><title>agent_man</title><path class="cls-1" d="M69.06,57.48,58.33,55.94V50.33a.93.93,0,0,0,0-.09,16.05,16.05,0,0,0,5.26-10.89,16.09,16.09,0,0,0,6.76-13.47V18.16A6.23,6.23,0,0,0,64.57,12,20.28,20.28,0,0,0,47.28,3H45.7c-11,0-20,8.69-20,19.37v3.16c0,5.32,2.82,11,6.75,13.8a16.06,16.06,0,0,0,5.27,10.91.93.93,0,0,0,0,.09v5.61L26.94,57.48C17.71,58.8,11,66.08,11,74.81v6a6.27,6.27,0,0,0,5.32,6L31.08,89.5A96.11,96.11,0,0,0,48,91a96.11,96.11,0,0,0,16.92-1.5l14.76-2.64a6.27,6.27,0,0,0,5.32-6v-6C85,66.08,78.29,58.8,69.06,57.48Zm-19,13.73H45.94l-2-3.76,4-2,4,2ZM38.43,57.85l7.74,6.27-8.14,4-2.29-9.93Zm11.41,6.27,7.74-6.27,2.69.38L58,68.17ZM27.67,25.52V22.37C27.67,12.79,35.76,5,45.7,5h1.58a18.25,18.25,0,0,1,15.87,8.53A1,1,0,0,0,64,14a4.25,4.25,0,0,1,4.33,4.15v7.72a14.25,14.25,0,0,1-4.67,10.86V24.59a1,1,0,0,0-1-1h-.27c-3.22,0-6.72-2.51-8.14-5.83a1,1,0,0,0-.9-.61,1,1,0,0,0-.92.57c-2.57,5.35-5.32,8.44-11.77,8.44H33.33a1,1,0,0,0-1,1v9.51A16.11,16.11,0,0,1,27.67,25.52Zm6.67,11.93V28.16h6.33c7.25,0,10.5-3.8,12.7-7.85a11.55,11.55,0,0,0,8.3,5.25v11.9c0,7.19-4.23,14.44-13.67,14.44S34.33,44.65,34.33,37.46ZM48,53.9a15.91,15.91,0,0,0,8.33-2.24v4.62L48,63l-8.33-6.76V51.66A15.91,15.91,0,0,0,48,53.9Zm-20.33,33V81a1,1,0,0,0-2,0V86.5l-9-1.61A4.27,4.27,0,0,1,13,80.82v-6c0-7.72,6-14.17,14.23-15.35l6.52-.93,2.61,11.33a1,1,0,0,0,1.42.67l4.42-2.2,2.09,4-2.61,16.4a94.45,94.45,0,0,1-10.25-1.24Zm16,2,2.5-15.7h3.63l2.5,15.7Q48,89.1,43.68,88.9ZM83,80.82a4.27,4.27,0,0,1-3.67,4.07l-9,1.61V81a1,1,0,0,0-2,0v5.85l-3.76.67a94.45,94.45,0,0,1-10.25,1.24l-2.61-16.4,2.09-4,4.42,2.2a1,1,0,0,0,1.42-.67l2.61-11.33,6.52.93C77,60.63,83,67.09,83,74.81Z"/></svg>