<svg id="man_blue" xmlns="http://www.w3.org/2000/svg" viewBox="0 0 96 96"><defs><style>.cls-1{fill:#00008f;}</style></defs><title>man</title><path class="cls-1" d="M69.07,57.48l-10.74-1.7V50.22a16.06,16.06,0,0,0,5.24-10.87,16.09,16.09,0,0,0,6.76-13.47V18.16A6.23,6.23,0,0,0,64.57,12,20.28,20.28,0,0,0,47.28,3H45.7c-11,0-20,8.69-20,19.37v3.16c0,5.32,2.82,11,6.75,13.8a16.06,16.06,0,0,0,5.25,10.89v5.56l-10.72,1.7C17.71,58.8,11,66.08,11,74.81v6a6.27,6.27,0,0,0,5.32,6L31.08,89.5A96.11,96.11,0,0,0,48,91a96.11,96.11,0,0,0,16.92-1.5l14.76-2.64a6.27,6.27,0,0,0,5.32-6v-6C85,66.08,78.29,58.8,69.07,57.48Zm-41.41-32V22.37C27.67,12.79,35.76,5,45.7,5h1.58a18.25,18.25,0,0,1,15.87,8.53A1,1,0,0,0,64,14a4.25,4.25,0,0,1,4.33,4.15v7.72a14.25,14.25,0,0,1-4.67,10.86V24.59a1,1,0,0,0-1-1h-.27c-3.22,0-6.72-2.51-8.14-5.83a1,1,0,0,0-1.82,0c-2.57,5.35-5.32,8.44-11.77,8.44H33.33a1,1,0,0,0-1,1v9.51A16.11,16.11,0,0,1,27.67,25.52Zm6.67,11.93V28.16h6.33c7.25,0,10.5-3.8,12.7-7.85a11.55,11.55,0,0,0,8.3,5.25v11.9c0,7.19-4.23,14.44-13.67,14.44S34.33,44.65,34.33,37.46ZM48,53.9a15.91,15.91,0,0,0,8.33-2.24v5a.94.94,0,0,0,0,.12,1,1,0,0,0,0,.2,1,1,0,0,0,.08.17.84.84,0,0,0,.24.29l.16.11.19.07.11,0L59,57.9,49.29,69a1.79,1.79,0,0,1-2.58,0L37,57.9l1.82-.29.11,0,.19-.07.16-.11.14-.13a1,1,0,0,0,.11-.16.82.82,0,0,0,.12-.37.94.94,0,0,0,0-.12v-5A15.91,15.91,0,0,0,48,53.9ZM83,80.82a4.27,4.27,0,0,1-3.67,4.07l-9,1.61V81a1,1,0,0,0-2,0v5.85l-3.76.67a93.91,93.91,0,0,1-33.14,0l-3.76-.67V81a1,1,0,0,0-2,0V86.5l-9-1.61A4.27,4.27,0,0,1,13,80.82v-6c0-7.72,6-14.17,14.24-15.35l7.43-1.18L45.2,70.35a3.73,3.73,0,0,0,5.59,0L61.33,58.27l7.45,1.18C77,60.63,83,67.09,83,74.81Z"/></svg>