<svg id="white_svg_1px" xmlns="http://www.w3.org/2000/svg" viewBox="0 0 140 140"><defs><style>.cls-1{fill:#fff;}</style></defs><title>agent_man</title><path class="cls-1" d="M91,80,79.83,78.38v-6a.49.49,0,0,0-.05-.21A15.42,15.42,0,0,0,85.1,61.06a15.5,15.5,0,0,0,6.73-13.19V40.16a5.74,5.74,0,0,0-5.55-5.64,19.76,19.76,0,0,0-17-9H67.7C56.93,25.5,48.17,34,48.17,44.37v3.16c0,5.26,2.82,10.9,6.73,13.52a15.43,15.43,0,0,0,5.32,11.06.49.49,0,0,0-.05.21v6L49,80C40,81.26,33.5,88.34,33.5,96.81v6a5.77,5.77,0,0,0,4.9,5.55L53.17,111a95.4,95.4,0,0,0,33.67,0l14.76-2.64a5.77,5.77,0,0,0,4.9-5.55v-6C106.5,88.34,100,81.26,91,80ZM72.36,93.7H67.64l-2.32-4.48L70,86.89l4.69,2.33Zm-12-14.35a.49.49,0,0,0,.16-.06l8.54,6.93-9.4,4.67-2.52-11a.49.49,0,0,0-.05-.11Zm10.54,6.87,8.54-6.93a.49.49,0,0,0,.16.06l3.28.47a.48.48,0,0,0-.05.11l-2.52,11ZM49.17,47.52V44.37c0-9.85,8.31-17.87,18.53-17.87h1.58a18.75,18.75,0,0,1,16.29,8.77.5.5,0,0,0,.43.24,4.75,4.75,0,0,1,4.83,4.65v7.72a14.84,14.84,0,0,1-5.68,11.92c0-.11,0-.22,0-.33V46.59a.5.5,0,0,0-.5-.5h-.27c-3.46,0-7.08-2.58-8.6-6.13a.5.5,0,0,0-.45-.3.54.54,0,0,0-.46.28c-2.59,5.39-5.54,8.72-12.22,8.72H55.33a.5.5,0,0,0-.5.5V59.46c0,.11,0,.21,0,.32A16.35,16.35,0,0,1,49.17,47.52Zm6.67,11.93V49.66h6.83c7.44,0,10.53-4.17,12.66-8.37a11,11,0,0,0,8.84,5.79V59.46C84.17,68.4,78.47,74.4,70,74.4S55.83,68.4,55.83,59.46ZM70,75.4a15.42,15.42,0,0,0,8.83-2.57v5.69L70,85.68l-8.83-7.16V72.83A15.42,15.42,0,0,0,70,75.4ZM49.17,109.28V103a.5.5,0,0,0-1,0v6.08l-9.59-1.71a4.77,4.77,0,0,1-4.08-4.56v-6c0-8,6.16-14.63,14.66-15.85l7-1a.5.5,0,0,0,0,.2l2.67,11.58a.5.5,0,0,0,.27.34.5.5,0,0,0,.44,0l4.86-2.42,2.4,4.62-2.64,16.57a.49.49,0,0,0,.18.46,94.9,94.9,0,0,1-11-1.29Zm15.76,2.08a.49.49,0,0,0,.23-.34l2.6-16.31h4.48L74.84,111a.49.49,0,0,0,.23.34A94.11,94.11,0,0,1,64.93,111.35Zm40.57-8.53a4.77,4.77,0,0,1-4.08,4.56l-9.59,1.71V103a.5.5,0,0,0-1,0v6.26l-4.17.75a94.9,94.9,0,0,1-11,1.29.49.49,0,0,0,.18-.46L73.19,94.28l2.4-4.62,4.86,2.42a.5.5,0,0,0,.71-.34l2.67-11.58a.5.5,0,0,0,0-.2l7,1c8.49,1.21,14.66,7.88,14.66,15.85Z"/><path class="cls-1" d="M70,139.5A69.5,69.5,0,1,1,139.5,70,69.58,69.58,0,0,1,70,139.5Zm0-138A68.5,68.5,0,1,0,138.5,70,68.58,68.58,0,0,0,70,1.5Z"/></svg>