<svg id="white_svg_1px" xmlns="http://www.w3.org/2000/svg" viewBox="0 0 96 96"><defs><style>.cls-1{fill:#fff;}</style></defs><title>agent_man</title><path class="cls-1" d="M69,58,57.83,56.38v-6a.49.49,0,0,0-.05-.21A15.42,15.42,0,0,0,63.1,39.06a15.5,15.5,0,0,0,6.73-13.19V18.16a5.74,5.74,0,0,0-5.55-5.64,19.76,19.76,0,0,0-17-9H45.7C34.93,3.5,26.17,12,26.17,22.37v3.16c0,5.26,2.82,10.9,6.73,13.52a15.43,15.43,0,0,0,5.32,11.06.49.49,0,0,0-.05.21v6L27,58C18,59.26,11.5,66.34,11.5,74.81v6a5.77,5.77,0,0,0,4.9,5.55L31.17,89A95.63,95.63,0,0,0,48,90.51,95.63,95.63,0,0,0,64.83,89L79.6,86.37a5.77,5.77,0,0,0,4.9-5.55v-6C84.5,66.34,78,59.26,69,58ZM50.36,71.7H45.64l-2.32-4.48L48,64.89l4.69,2.33Zm-12-14.35a.49.49,0,0,0,.16-.06l8.54,6.93-9.4,4.67-2.52-11a.49.49,0,0,0-.05-.11Zm10.54,6.87,8.54-6.93a.49.49,0,0,0,.16.06l3.28.47a.48.48,0,0,0-.05.11l-2.52,11ZM27.17,25.52V22.37c0-9.85,8.31-17.87,18.53-17.87h1.58a18.75,18.75,0,0,1,16.29,8.77.5.5,0,0,0,.43.24,4.75,4.75,0,0,1,4.83,4.65v7.72a14.84,14.84,0,0,1-5.68,11.92c0-.11,0-.22,0-.33V24.59a.5.5,0,0,0-.5-.5h-.27c-3.46,0-7.08-2.58-8.6-6.13a.5.5,0,0,0-.45-.3.54.54,0,0,0-.46.28c-2.59,5.39-5.54,8.72-12.22,8.72H33.33a.5.5,0,0,0-.5.5V37.46c0,.11,0,.21,0,.32A16.35,16.35,0,0,1,27.17,25.52Zm6.67,11.93V27.66h6.83c7.44,0,10.53-4.17,12.66-8.37a11,11,0,0,0,8.84,5.79V37.46C62.17,46.4,56.47,52.4,48,52.4S33.83,46.4,33.83,37.46ZM48,53.4a15.42,15.42,0,0,0,8.83-2.57v5.69L48,63.68l-8.83-7.16V50.83A15.42,15.42,0,0,0,48,53.4ZM27.17,87.28V81a.5.5,0,0,0-1,0V87.1l-9.59-1.71a4.77,4.77,0,0,1-4.08-4.56v-6c0-8,6.16-14.63,14.66-15.85l7-1a.5.5,0,0,0,0,.2l2.67,11.58a.5.5,0,0,0,.27.34.5.5,0,0,0,.44,0l4.86-2.42,2.4,4.62L42.17,88.86a.49.49,0,0,0,.18.46,94.9,94.9,0,0,1-11-1.29Zm15.76,2.08a.49.49,0,0,0,.23-.34l2.6-16.31h4.48L52.84,89a.49.49,0,0,0,.23.34A94.11,94.11,0,0,1,42.93,89.35ZM83.5,80.82a4.77,4.77,0,0,1-4.08,4.56L69.83,87.1V81a.5.5,0,0,0-1,0v6.26L64.66,88a94.9,94.9,0,0,1-11,1.29.49.49,0,0,0,.18-.46L51.19,72.28l2.4-4.62,4.86,2.42a.5.5,0,0,0,.71-.34l2.67-11.58a.5.5,0,0,0,0-.2l7,1c8.49,1.21,14.66,7.88,14.66,15.85Z"/></svg>