<svg id="svg_1px" data-name="svg 1px" xmlns="http://www.w3.org/2000/svg" viewBox="0 0 140 140"><defs><style>.cls-1{fill:#fff;}</style></defs><title>mobile</title><path class="cls-1" d="M88.16,29.5H51.84a5.28,5.28,0,0,0-5.34,5.21v70.59a5.28,5.28,0,0,0,5.34,5.21H88.16a5.28,5.28,0,0,0,5.34-5.21V34.71A5.28,5.28,0,0,0,88.16,29.5ZM47.5,39.91h45V97.74h-45Zm4.34-9.41H88.16a4.28,4.28,0,0,1,4.34,4.21v4.21h-45V34.71A4.28,4.28,0,0,1,51.84,30.5Zm36.32,79H51.84a4.28,4.28,0,0,1-4.34-4.21V98.74h45v6.56A4.28,4.28,0,0,1,88.16,109.5Z"/><path class="cls-1" d="M72.42,103.62H67.58a.5.5,0,0,0,0,1h4.84a.5.5,0,0,0,0-1Z"/><path class="cls-1" d="M68.79,35.21h2.42a.5.5,0,0,0,0-1H68.79a.5.5,0,0,0,0,1Z"/><path class="cls-1" d="M70,139.5A69.5,69.5,0,1,1,139.5,70,69.58,69.58,0,0,1,70,139.5Zm0-138A68.5,68.5,0,1,0,138.5,70,68.58,68.58,0,0,0,70,1.5Z"/></svg>