<svg id="svg_2px" data-name="svg 2px" xmlns="http://www.w3.org/2000/svg" viewBox="0 0 140 140"><defs><style>.cls-1{fill:#00008f;}</style></defs><title>mobile</title><path class="cls-1" d="M88.16,29H51.84A5.78,5.78,0,0,0,46,34.71v70.59A5.78,5.78,0,0,0,51.84,111H88.16A5.78,5.78,0,0,0,94,105.29V34.71A5.78,5.78,0,0,0,88.16,29ZM48,40.41H92V97.24H48ZM51.84,31H88.16A3.78,3.78,0,0,1,92,34.71v3.71H48V34.71A3.78,3.78,0,0,1,51.84,31Zm36.32,78H51.84A3.78,3.78,0,0,1,48,105.29V99.24H92v6.06A3.78,3.78,0,0,1,88.16,109Z"/><path class="cls-1" d="M72.42,103.12H67.58a1,1,0,0,0,0,2h4.84a1,1,0,0,0,0-2Z"/><path class="cls-1" d="M68.79,35.71h2.42a1,1,0,0,0,0-2H68.79a1,1,0,0,0,0,2Z"/><path class="cls-1" d="M70,140a70,70,0,1,1,70-70A70.08,70.08,0,0,1,70,140ZM70,2a68,68,0,1,0,68,68A68.08,68.08,0,0,0,70,2Z"/></svg>