<svg id="svg_1px" data-name="svg 1px" xmlns="http://www.w3.org/2000/svg" viewBox="0 0 96 96"><defs><style>.cls-1{fill:#fff;}</style></defs><title>mobile</title><path class="cls-1" d="M66.16,7.5H29.84a5.28,5.28,0,0,0-5.34,5.21V83.29a5.28,5.28,0,0,0,5.34,5.21H66.16a5.28,5.28,0,0,0,5.34-5.21V12.71A5.28,5.28,0,0,0,66.16,7.5ZM25.5,17.91h45V75.74h-45ZM29.84,8.5H66.16a4.28,4.28,0,0,1,4.34,4.21v4.21h-45V12.71A4.28,4.28,0,0,1,29.84,8.5Zm36.32,79H29.84a4.28,4.28,0,0,1-4.34-4.21V76.74h45v6.56A4.28,4.28,0,0,1,66.16,87.5Z"/><path class="cls-1" d="M50.42,81.62H45.58a.5.5,0,0,0,0,1h4.84a.5.5,0,0,0,0-1Z"/><path class="cls-1" d="M46.79,13.21h2.42a.5.5,0,0,0,0-1H46.79a.5.5,0,0,0,0,1Z"/></svg>