<svg id="white_svg_1px" data-name="white_svg 1px" xmlns="http://www.w3.org/2000/svg" viewBox="0 0 96 96"><defs><style>.cls-1{fill:#fff;}</style></defs><title>note_pen_white</title><path class="cls-1" d="M19,47.69H43a.5.5,0,0,0,0-1H19a.5.5,0,1,0,0,1Z"/><path class="cls-1" d="M50.67,37.07H19a.5.5,0,1,0,0,1H50.67a.5.5,0,0,0,0-1Z"/><path class="cls-1" d="M19,57.31H43a.5.5,0,0,0,0-1H19a.5.5,0,1,0,0,1Z"/><path class="cls-1" d="M47.64,65.93H19a.5.5,0,1,0,0,1H47.64a.5.5,0,0,0,0-1Z"/><path class="cls-1" d="M72.27,33.21l-7.35-3.63a.5.5,0,0,0-.67.23l-2.39,4.84V21.2a2.7,2.7,0,0,0-2.7-2.7H14.06a2.7,2.7,0,0,0-2.7,2.7V82.8a2.7,2.7,0,0,0,2.7,2.7h45.1a2.7,2.7,0,0,0,2.7-2.7V55.41L72.5,33.88A.5.5,0,0,0,72.27,33.21ZM60.86,82.8a1.7,1.7,0,0,1-1.7,1.7H14.06a1.7,1.7,0,0,1-1.7-1.7V21.2a1.7,1.7,0,0,1,1.7-1.7h45.1a1.7,1.7,0,0,1,1.7,1.7V36.67L52.62,53.34a.7.7,0,0,0-.16.33.5.5,0,0,0-.05.22L52.47,63a.5.5,0,0,0,.5.5.49.49,0,0,0,.3-.1l7.34-5.59a.5.5,0,0,0,.15-.18l.09-.19ZM60,57l-.06.12L53.47,62l-.06-8h0l.06-.09L64.92,30.7l6.45,3.19Z"/><path class="cls-1" d="M84.62,20.42a.5.5,0,0,0-.26-.29l-4.14-1.94.16-.39a5.71,5.71,0,0,0,.45-4.37,4.19,4.19,0,0,0-2.11-2.51c-2.28-1.13-5.17.1-6.58,2.79L66.57,25.1a.5.5,0,0,0,.23.67l7.35,3.63a.5.5,0,0,0,.67-.23l5-10.08,3.67,1.72-6,12.1a.5.5,0,0,0,.9.44l6.2-12.55A.5.5,0,0,0,84.62,20.42Zm-5.15-3-.36.86-5,10.05-6.46-3.19L73,14.16c1.13-2.17,3.49-3.22,5.25-2.35a3.2,3.2,0,0,1,1.6,1.92A4.74,4.74,0,0,1,79.47,17.37Z"/></svg>