<svg id="white_svg_1px" xmlns="http://www.w3.org/2000/svg" viewBox="0 0 140 140"><defs><style>.cls-1{fill:#fff;}</style></defs><title>note_pen_white_circle</title><path class="cls-1" d="M70,139.5A69.5,69.5,0,1,1,139.5,70,69.58,69.58,0,0,1,70,139.5Zm0-138A68.5,68.5,0,1,0,138.5,70,68.58,68.58,0,0,0,70,1.5Z"/><path class="cls-1" d="M41,69.69H65a.5.5,0,0,0,0-1H41a.5.5,0,1,0,0,1Z"/><path class="cls-1" d="M72.67,59.07H41a.5.5,0,1,0,0,1H72.67a.5.5,0,0,0,0-1Z"/><path class="cls-1" d="M41,79.31H65a.5.5,0,0,0,0-1H41a.5.5,0,1,0,0,1Z"/><path class="cls-1" d="M69.64,87.93H41a.5.5,0,1,0,0,1H69.64a.5.5,0,0,0,0-1Z"/><path class="cls-1" d="M94.27,55.21l-7.35-3.63a.5.5,0,0,0-.67.23l-2.39,4.84V43.2a2.7,2.7,0,0,0-2.7-2.7H36.06a2.7,2.7,0,0,0-2.7,2.7v61.6a2.7,2.7,0,0,0,2.7,2.7h45.1a2.7,2.7,0,0,0,2.7-2.7V77.42L94.5,55.88A.5.5,0,0,0,94.27,55.21ZM82.86,104.8a1.7,1.7,0,0,1-1.7,1.7H36.06a1.7,1.7,0,0,1-1.7-1.7V43.2a1.7,1.7,0,0,1,1.7-1.7h45.1a1.7,1.7,0,0,1,1.7,1.7V58.67L74.62,75.34a.7.7,0,0,0-.16.33.5.5,0,0,0-.05.22L74.47,85a.5.5,0,0,0,.5.5.49.49,0,0,0,.3-.1l7.34-5.59a.5.5,0,0,0,.15-.18l.09-.19ZM82,79l-.06.12L75.47,84l-.06-8h0l.06-.09L86.92,52.7l6.45,3.19Z"/><path class="cls-1" d="M106.62,42.42a.5.5,0,0,0-.26-.29l-4.14-1.94.16-.39a5.71,5.71,0,0,0,.45-4.37,4.19,4.19,0,0,0-2.11-2.51c-2.28-1.13-5.17.1-6.58,2.79L88.57,47.1a.5.5,0,0,0,.23.67l7.35,3.63a.5.5,0,0,0,.67-.23l5-10.08,3.67,1.72-6,12.1a.5.5,0,0,0,.9.44l6.2-12.55A.5.5,0,0,0,106.62,42.42Zm-5.15-3-.36.86-5,10.05L89.69,47.1,95,36.16c1.13-2.17,3.49-3.22,5.25-2.35a3.2,3.2,0,0,1,1.6,1.92A4.74,4.74,0,0,1,101.47,39.37Z"/></svg>