<svg id="blue_svg_2px" xmlns="http://www.w3.org/2000/svg" viewBox="0 0 140 140"><defs><style>.cls-1{fill:#00008f;}</style></defs><title>note_pen_blue_circle</title><path class="cls-1" d="M70,0a70,70,0,1,0,70,70A70.08,70.08,0,0,0,70,0Zm0,138a68,68,0,1,1,68-68A68.08,68.08,0,0,1,70,138Z"/><path class="cls-1" d="M41,70.19H65a1,1,0,0,0,0-2H41a1,1,0,1,0,0,2Z"/><path class="cls-1" d="M72.67,58.57H41a1,1,0,0,0,0,2H72.67a1,1,0,0,0,0-2Z"/><path class="cls-1" d="M41,79.81H65a1,1,0,0,0,0-2H41a1,1,0,1,0,0,2Z"/><path class="cls-1" d="M69.64,87.43H41a1,1,0,1,0,0,2H69.64a1,1,0,0,0,0-2Z"/><path class="cls-1" d="M94.49,54.77l-7.35-3.63a1,1,0,0,0-.76-.05,1,1,0,0,0-.58.5l-1.45,2.92V43.2a3.2,3.2,0,0,0-3.2-3.2H36.06a3.2,3.2,0,0,0-3.2,3.2v61.6a3.2,3.2,0,0,0,3.2,3.2h45.1a3.2,3.2,0,0,0,3.2-3.2V77.53L94.94,56.11A1,1,0,0,0,94.49,54.77ZM81.16,106H36.06a1.2,1.2,0,0,1-1.2-1.2V43.2a1.2,1.2,0,0,1,1.2-1.2h45.1a1.2,1.2,0,0,1,1.2,1.2V58.56L74.2,75.06a1.21,1.21,0,0,0-.22.46,1,1,0,0,0-.07.38L74,85a1,1,0,0,0,.56.89A1,1,0,0,0,75,86a1,1,0,0,0,.61-.21l6.77-5.16V104.8A1.2,1.2,0,0,1,81.16,106Zm.37-27.26L76,83l-.05-6.87h0L87.15,53.37l5.56,2.75Z"/><path class="cls-1" d="M107.09,42.26a1,1,0,0,0-.52-.58l-3.71-1.74a6.2,6.2,0,0,0,.43-4.67,4.69,4.69,0,0,0-2.36-2.8c-2.52-1.25-5.71.07-7.25,3L88.12,46.88a1,1,0,0,0,.46,1.33l7.35,3.63a1,1,0,0,0,1.34-.45L102,41.76l2.77,1.3L99,54.7a1,1,0,0,0,1.79.89L107,43A1,1,0,0,0,107.09,42.26ZM101,39.18l-.35.84-4.74,9.59-5.56-2.75,5.11-10.47c1-1.93,3.07-2.88,4.58-2.13a2.69,2.69,0,0,1,1.35,1.63A4.29,4.29,0,0,1,101,39.18Z"/></svg>