<svg id="svg_2px" data-name="svg 2px" xmlns="http://www.w3.org/2000/svg" viewBox="0 0 140 140"><defs><style>.cls-1{fill:#00008f;}</style></defs><title>phone</title><path class="cls-1" d="M105.62,93.64,91.68,79.7a4.7,4.7,0,0,0-6.64,0l-2.61,2.61a1,1,0,0,0-.19.27,13.71,13.71,0,0,0-3.32,9.49,38.34,38.34,0,0,1-31-31,13.73,13.73,0,0,0,9.49-3.32,1,1,0,0,0,.27-.19L60.3,55a4.7,4.7,0,0,0,0-6.64L46.36,34.38a4.7,4.7,0,0,0-6.64,0L37.1,37a1,1,0,0,0-.18.25,13.63,13.63,0,0,0-3.34,9.23,52.79,52.79,0,0,0,59.95,59.95,13.6,13.6,0,0,0,9.23-3.34,1,1,0,0,0,.25-.18l2.62-2.61a4.7,4.7,0,0,0,0-6.64ZM41.13,35.79a2.76,2.76,0,0,1,3.82,0L58.89,49.74a2.7,2.7,0,0,1,0,3.82L57,55.46,39.22,37.7Zm52.36,68.63h-.17A50.7,50.7,0,0,1,35.57,46.69a1.12,1.12,0,0,0,0-.17,11.66,11.66,0,0,1,2.32-7.31L55.47,56.78A11.8,11.8,0,0,1,46.86,59a1,1,0,0,0-.84.29,1,1,0,0,0-.28.85A40.34,40.34,0,0,0,79.87,94.25,1,1,0,0,0,81,93.14a11.82,11.82,0,0,1,2.22-8.61l17.57,17.57A11.63,11.63,0,0,1,93.48,104.42Zm10.73-5.55-1.91,1.91L84.54,83l1.91-1.91a2.7,2.7,0,0,1,3.82,0l13.95,13.95a2.7,2.7,0,0,1,0,3.82Z"/><path class="cls-1" d="M70,140a70,70,0,1,1,70-70A70.08,70.08,0,0,1,70,140ZM70,2a68,68,0,1,0,68,68A68.08,68.08,0,0,0,70,2Z"/></svg>