<svg id="svg_1px" data-name="svg 1px" xmlns="http://www.w3.org/2000/svg" viewBox="0 0 140 140"><defs><style>.cls-1{fill:#fff;}</style></defs><title>phone</title><path class="cls-1" d="M105.27,94,91.33,80.05a4.2,4.2,0,0,0-5.94,0l-2.61,2.61a.49.49,0,0,0-.12.19,13.24,13.24,0,0,0-3.21,9.82A38.84,38.84,0,0,1,47.33,60.55a13.22,13.22,0,0,0,9.82-3.21.49.49,0,0,0,.19-.12l2.61-2.61a4.2,4.2,0,0,0,0-5.94L46,34.73a4.2,4.2,0,0,0-5.94,0l-2.61,2.62a.49.49,0,0,0-.11.17,13,13,0,0,0-3.26,8.95,52.18,52.18,0,0,0,51.69,60,51.54,51.54,0,0,0,7.68-.57,13.2,13.2,0,0,0,9-3.26.49.49,0,0,0,.17-.11l2.62-2.61a4.2,4.2,0,0,0,0-5.94ZM40.77,35.44a3.27,3.27,0,0,1,4.52,0L59.24,49.38a3.2,3.2,0,0,1,0,4.52L57,56.17,38.51,37.7Zm52.61,69.49a51.21,51.21,0,0,1-58.31-58.4,12.15,12.15,0,0,1,2.78-8.07L56.22,56.82a12.29,12.29,0,0,1-9.42,2.67.5.5,0,0,0-.56.57,39.85,39.85,0,0,0,33.7,33.7.5.5,0,0,0,.57-.56,12.29,12.29,0,0,1,2.67-9.42l18.37,18.37A12.23,12.23,0,0,1,93.39,104.93Zm11.18-5.7-2.26,2.26L83.83,83l2.26-2.26a3.27,3.27,0,0,1,4.52,0L104.56,94.7a3.2,3.2,0,0,1,0,4.52Z"/><path class="cls-1" d="M70,139.5A69.5,69.5,0,1,1,139.5,70,69.58,69.58,0,0,1,70,139.5Zm0-138A68.5,68.5,0,1,0,138.5,70,68.58,68.58,0,0,0,70,1.5Z"/></svg>