<svg id="svg_1px" data-name="svg 1px" xmlns="http://www.w3.org/2000/svg" viewBox="0 0 96 96"><defs><style>.cls-1{fill:#fff;}</style></defs><title>phone</title><path class="cls-1" d="M83.27,72,69.33,58.05a4.2,4.2,0,0,0-5.94,0l-2.61,2.61a.49.49,0,0,0-.12.19,13.24,13.24,0,0,0-3.21,9.82A38.84,38.84,0,0,1,25.33,38.55a13.22,13.22,0,0,0,9.82-3.21.49.49,0,0,0,.19-.12l2.61-2.61a4.2,4.2,0,0,0,0-5.94L24,12.73a4.2,4.2,0,0,0-5.94,0l-2.61,2.62a.49.49,0,0,0-.11.17,13,13,0,0,0-3.26,8.95,52.18,52.18,0,0,0,51.69,60,51.54,51.54,0,0,0,7.68-.57,13.2,13.2,0,0,0,9-3.26.49.49,0,0,0,.17-.11l2.62-2.61a4.2,4.2,0,0,0,0-5.94ZM18.77,13.44a3.27,3.27,0,0,1,4.52,0L37.24,27.38a3.2,3.2,0,0,1,0,4.52L35,34.17,16.51,15.7ZM71.39,82.93a51.21,51.21,0,0,1-58.31-58.4,12.15,12.15,0,0,1,2.78-8.07L34.22,34.82a12.29,12.29,0,0,1-9.42,2.67.5.5,0,0,0-.56.57,39.85,39.85,0,0,0,33.7,33.7.5.5,0,0,0,.57-.56,12.29,12.29,0,0,1,2.67-9.42L79.55,80.15A12.23,12.23,0,0,1,71.39,82.93Zm11.18-5.7L80.3,79.49,61.83,61l2.26-2.26a3.27,3.27,0,0,1,4.52,0L82.56,72.7a3.2,3.2,0,0,1,0,4.52Z"/></svg>