<svg id="shopping_trolley_blue" xmlns="http://www.w3.org/2000/svg" viewBox="0 0 96 96"><defs><style>.cls-1{fill:#00008f;}</style></defs><title>caddy_blue</title><path class="cls-1" d="M91.28,25.29A4.68,4.68,0,0,0,87.46,23h0l-59.1-2.71-2-4.49a3.43,3.43,0,0,0,2.26-3.39A3.59,3.59,0,0,0,25,9.12H7.63A3.59,3.59,0,0,0,4,12.43a3.47,3.47,0,0,0,3.47,3.62h8.89l12,42.27-2.53,8.78H22.64A3.59,3.59,0,0,0,19,70.42,3.47,3.47,0,0,0,22.48,74h.11a8.09,8.09,0,1,0,13.06,0H65.11a8.09,8.09,0,1,0,13.06,0h1.29a3.47,3.47,0,0,0,3.47-3.62,3.59,3.59,0,0,0-3.63-3.32H35.78l1.37-4.51,37.11-1.76a4.79,4.79,0,0,0,4.05-2.75L91.5,29.8a4.54,4.54,0,0,0-.2-4.48ZM6.41,13.6A1.46,1.46,0,0,1,6,12.52a1.57,1.57,0,0,1,1.63-1.4H25a1.57,1.57,0,0,1,1.63,1.4,1.47,1.47,0,0,1-1.47,1.54H7.47A1.46,1.46,0,0,1,6.41,13.6ZM29.12,84.88A6.09,6.09,0,1,1,35.2,78.8,6.09,6.09,0,0,1,29.12,84.88Zm42.52,0a6.09,6.09,0,1,1,6.09-6.09A6.09,6.09,0,0,1,71.63,84.88Zm9.29-14.37A1.47,1.47,0,0,1,79.46,72H76.07a8,8,0,0,0-8.87,0H33.55a8.05,8.05,0,0,0-8.89,0H22.48A1.47,1.47,0,0,1,21,70.51a1.57,1.57,0,0,1,1.63-1.4H79.3A1.57,1.57,0,0,1,80.92,70.51Zm8.8-41.61L76.49,57.25a2.79,2.79,0,0,1-2.35,1.59L36.34,60.64a1,1,0,0,0-.91.71l-1.75,5.76H27.92l2.45-8.5a1,1,0,0,0,0-.55l-11.92-42h5.78l2.57,5.65a1,1,0,0,0,.86.58L87.41,25a2.69,2.69,0,0,1,2.17,1.32A2.61,2.61,0,0,1,89.72,28.9Z"/><path class="cls-1" d="M34.82,29.17a3.59,3.59,0,0,0-3.32,3.63V47.29a3.59,3.59,0,0,0,3.32,3.63H35a3.47,3.47,0,0,0,3.47-3.47V32.64a3.44,3.44,0,0,0-1.07-2.51A3.41,3.41,0,0,0,34.82,29.17Zm1.62,18.28a1.47,1.47,0,0,1-1.53,1.47,1.57,1.57,0,0,1-1.4-1.63V32.8a1.57,1.57,0,0,1,1.4-1.63H35a1.47,1.47,0,0,1,1.47,1.47Z"/><path class="cls-1" d="M44.7,29.17a3.59,3.59,0,0,0-3.32,3.63V47.29a3.59,3.59,0,0,0,3.32,3.63h.15a3.47,3.47,0,0,0,3.47-3.47V32.64a3.44,3.44,0,0,0-1.07-2.51A3.39,3.39,0,0,0,44.7,29.17Zm1.62,18.28a1.47,1.47,0,0,1-1.53,1.47,1.57,1.57,0,0,1-1.4-1.63V32.8a1.57,1.57,0,0,1,1.4-1.63h.07a1.47,1.47,0,0,1,1.47,1.47Z"/><path class="cls-1" d="M54.57,29.17a3.59,3.59,0,0,0-3.32,3.63V47.29a3.59,3.59,0,0,0,3.32,3.63h.15a3.47,3.47,0,0,0,3.47-3.47V32.64a3.44,3.44,0,0,0-1.07-2.51A3.4,3.4,0,0,0,54.57,29.17Zm1.62,18.28a1.47,1.47,0,0,1-1.53,1.47,1.57,1.57,0,0,1-1.4-1.63V32.8a1.57,1.57,0,0,1,1.4-1.63h.07a1.47,1.47,0,0,1,1.47,1.47Z"/><path class="cls-1" d="M64.45,29.17a3.59,3.59,0,0,0-3.32,3.63V47.29a3.59,3.59,0,0,0,3.32,3.63h.15a3.47,3.47,0,0,0,3.47-3.47V32.64A3.44,3.44,0,0,0,67,30.13,3.41,3.41,0,0,0,64.45,29.17Zm1.62,18.28a1.45,1.45,0,0,1-.45,1.06,1.44,1.44,0,0,1-1.08.41,1.57,1.57,0,0,1-1.4-1.63V32.8a1.57,1.57,0,0,1,1.4-1.63h.07a1.47,1.47,0,0,1,1.47,1.47Z"/><path class="cls-1" d="M74,29.17a3.59,3.59,0,0,0-3.32,3.63V47.29A3.59,3.59,0,0,0,74,50.92h.15a3.47,3.47,0,0,0,3.47-3.47V32.64a3.44,3.44,0,0,0-1.07-2.51A3.39,3.39,0,0,0,74,29.17Zm1.62,18.28A1.47,1.47,0,0,1,74,48.92a1.57,1.57,0,0,1-1.4-1.63V32.8A1.57,1.57,0,0,1,74,31.17h.07a1.47,1.47,0,0,1,1.47,1.47Z"/></svg>