<svg id="white_svg_1px" xmlns="http://www.w3.org/2000/svg" viewBox="0 0 96 96"><defs><style>.cls-1{fill:#fff;}</style></defs><title>caddy_white</title><path class="cls-1" d="M90.86,25.56a4.19,4.19,0,0,0-3.42-2h0L28,20.8l-2.41-5.3a3,3,0,0,0,2.46-3A3.08,3.08,0,0,0,25,9.62H7.63A3.08,3.08,0,0,0,4.5,12.46a3,3,0,0,0,3,3.1h9.27L28.88,58.33l-2.67,9.28H22.64a3.08,3.08,0,0,0-3.13,2.84,3,3,0,0,0,3,3.1h1.17a7.59,7.59,0,1,0,10.92,0h31.6a7.59,7.59,0,1,0,10.92,0h2.36a3,3,0,0,0,3-3.1,3.09,3.09,0,0,0-3.13-2.84H35.1l1.66-5.49,37.45-1.78a4.3,4.3,0,0,0,3.63-2.46L91.07,29.56a4,4,0,0,0-.2-4ZM6,13.95A2,2,0,0,1,5.5,12.5a2.08,2.08,0,0,1,2.13-1.88H25a2.08,2.08,0,0,1,2.13,1.88,2,2,0,0,1-2,2.06H7.47A2,2,0,0,1,6,13.95ZM29.12,85.38A6.59,6.59,0,1,1,35.7,78.8,6.59,6.59,0,0,1,29.12,85.38Zm42.52,0a6.59,6.59,0,1,1,6.59-6.59A6.59,6.59,0,0,1,71.63,85.38Zm9.79-14.9a2,2,0,0,1-2,2.06H76.08l-.12,0a7.55,7.55,0,0,0-8.63,0l-.08,0H33.41a7.55,7.55,0,0,0-8.63,0,.49.49,0,0,0-.17,0H22.48a2,2,0,0,1-2-2.06,2.08,2.08,0,0,1,2.13-1.88H79.3A2.08,2.08,0,0,1,81.42,70.49Zm8.75-41.38L76.94,57.46a3.29,3.29,0,0,1-2.78,1.88L36.37,61.14a.5.5,0,0,0-.45.35l-1.85,6.12H27.25l2.63-9.14a.5.5,0,0,0,0-.27L17.78,15.55h6.76l2.7,5.94a.5.5,0,0,0,.43.29l59.74,2.74A3.19,3.19,0,0,1,90,26.08,3.07,3.07,0,0,1,90.17,29.11Z"/><path class="cls-1" d="M34.85,29.67A3.08,3.08,0,0,0,32,32.8V47.29a3.08,3.08,0,0,0,2.84,3.13H35a3,3,0,0,0,3-3V32.64a3,3,0,0,0-3.1-3Zm2.1,17.78a2,2,0,0,1-.61,1.42,1.93,1.93,0,0,1-1.45.54A2.08,2.08,0,0,1,33,47.29V32.8a2.08,2.08,0,0,1,1.88-2.13H35a2,2,0,0,1,2,2Z"/><path class="cls-1" d="M44.72,29.67a3.08,3.08,0,0,0-2.84,3.13V47.29a3.08,3.08,0,0,0,2.84,3.13h.13a3,3,0,0,0,3-3V32.64a3,3,0,0,0-3.1-3Zm2.1,17.78a2,2,0,0,1-.61,1.42,1.92,1.92,0,0,1-1.45.54,2.08,2.08,0,0,1-1.88-2.13V32.8a2.08,2.08,0,0,1,1.88-2.13h.09a2,2,0,0,1,2,2Z"/><path class="cls-1" d="M54.59,29.67a3.08,3.08,0,0,0-2.84,3.13V47.29a3.08,3.08,0,0,0,2.84,3.13h.13a3,3,0,0,0,3-3V32.64a3,3,0,0,0-3.1-3Zm2.1,17.78a2,2,0,0,1-2.06,2,2.08,2.08,0,0,1-1.88-2.13V32.8a2.08,2.08,0,0,1,1.88-2.13h.09a2,2,0,0,1,2,2Z"/><path class="cls-1" d="M64.47,29.67a3.08,3.08,0,0,0-2.84,3.13V47.29a3.08,3.08,0,0,0,2.84,3.13h.13a3,3,0,0,0,3-3V32.64a3,3,0,0,0-3.1-3Zm2.1,17.78A2,2,0,0,1,66,48.87a1.93,1.93,0,0,1-1.45.54,2.08,2.08,0,0,1-1.88-2.13V32.8a2.08,2.08,0,0,1,1.88-2.13h.09a2,2,0,0,1,2,2Z"/><path class="cls-1" d="M74,29.67a3.08,3.08,0,0,0-2.84,3.13V47.29A3.08,3.08,0,0,0,74,50.42h.13a3,3,0,0,0,3-3V32.64a3,3,0,0,0-3.1-3Zm2.1,17.78a2,2,0,0,1-.61,1.42,1.92,1.92,0,0,1-1.45.54,2.08,2.08,0,0,1-1.88-2.13V32.8A2.08,2.08,0,0,1,74,30.67h.09a2,2,0,0,1,2,2Z"/></svg>