<svg id="white_svg_1px" xmlns="http://www.w3.org/2000/svg" viewBox="0 0 140 140"><defs><style>.cls-1{fill:#fff;}</style></defs><title>caddy_white_circle</title><g id="cercle"><path class="cls-1" d="M70,139.5A69.5,69.5,0,1,1,139.5,70,69.58,69.58,0,0,1,70,139.5Zm0-138A68.5,68.5,0,1,0,138.5,70,68.58,68.58,0,0,0,70,1.5Z"/></g><path class="cls-1" d="M112.86,47.56a4.19,4.19,0,0,0-3.42-2h0L50,42.8l-2.41-5.3a3,3,0,0,0,2.46-3A3.08,3.08,0,0,0,47,31.62H29.63a3.08,3.08,0,0,0-3.13,2.84,3,3,0,0,0,3,3.1h9.27L50.88,80.33l-2.67,9.28H44.64a3.08,3.08,0,0,0-3.13,2.84,3,3,0,0,0,3,3.1h1.17a7.59,7.59,0,1,0,10.92,0h31.6a7.59,7.59,0,1,0,10.92,0h2.36a3,3,0,0,0,3-3.1,3.09,3.09,0,0,0-3.13-2.84H57.11l1.66-5.49,37.45-1.78a4.3,4.3,0,0,0,3.63-2.46l13.21-28.32a4,4,0,0,0-.2-4ZM28,35.95a2,2,0,0,1-.54-1.45,2.08,2.08,0,0,1,2.13-1.88H47a2.08,2.08,0,0,1,2.13,1.88,2,2,0,0,1-2,2.06H29.47A2,2,0,0,1,28,35.95Zm23.07,71.44a6.59,6.59,0,1,1,6.59-6.59A6.59,6.59,0,0,1,51.12,107.38Zm42.52,0a6.59,6.59,0,1,1,6.59-6.59A6.59,6.59,0,0,1,93.64,107.38Zm9.79-14.9a2,2,0,0,1-2,2.06H98.08l-.12,0a7.55,7.55,0,0,0-8.63,0l-.08,0H55.41a7.55,7.55,0,0,0-8.63,0,.49.49,0,0,0-.17,0H44.48a2,2,0,0,1-2-2.06,2.08,2.08,0,0,1,2.13-1.88H101.3A2.08,2.08,0,0,1,103.43,92.49Zm8.75-41.38L98.95,79.46a3.29,3.29,0,0,1-2.78,1.88L58.37,83.14a.5.5,0,0,0-.45.35l-1.85,6.12H49.25l2.63-9.14a.5.5,0,0,0,0-.27L39.78,37.55h6.76l2.7,5.94a.5.5,0,0,0,.43.29l59.74,2.74a3.19,3.19,0,0,1,2.6,1.56A3.07,3.07,0,0,1,112.17,51.11Z"/><path class="cls-1" d="M56.85,51.67A3.08,3.08,0,0,0,54,54.8V69.29a3.08,3.08,0,0,0,2.84,3.13H57a3,3,0,0,0,3-3V54.64a3,3,0,0,0-3.1-3Zm2.1,17.78a2,2,0,0,1-.61,1.42,1.93,1.93,0,0,1-1.45.54A2.08,2.08,0,0,1,55,69.29V54.8a2.08,2.08,0,0,1,1.88-2.13H57a2,2,0,0,1,2,2Z"/><path class="cls-1" d="M66.72,51.67a3.08,3.08,0,0,0-2.84,3.13V69.29a3.08,3.08,0,0,0,2.84,3.13h.13a3,3,0,0,0,3-3V54.64a3,3,0,0,0-3.1-3Zm2.1,17.78a2,2,0,0,1-.61,1.42,1.92,1.92,0,0,1-1.45.54,2.08,2.08,0,0,1-1.88-2.13V54.8a2.08,2.08,0,0,1,1.88-2.13h.09a2,2,0,0,1,2,2Z"/><path class="cls-1" d="M76.6,51.67a3.08,3.08,0,0,0-2.84,3.13V69.29a3.08,3.08,0,0,0,2.84,3.13h.13a3,3,0,0,0,3-3V54.64a3,3,0,0,0-3.1-3Zm2.1,17.78a2,2,0,0,1-2.06,2,2.08,2.08,0,0,1-1.88-2.13V54.8a2.08,2.08,0,0,1,1.88-2.13h.09a2,2,0,0,1,2,2Z"/><path class="cls-1" d="M86.47,51.67a3.08,3.08,0,0,0-2.84,3.13V69.29a3.08,3.08,0,0,0,2.84,3.13h.13a3,3,0,0,0,3-3V54.64a3,3,0,0,0-3.1-3Zm2.1,17.78A2,2,0,0,1,88,70.87a1.93,1.93,0,0,1-1.45.54,2.08,2.08,0,0,1-1.88-2.13V54.8a2.08,2.08,0,0,1,1.88-2.13h.09a2,2,0,0,1,2,2Z"/><path class="cls-1" d="M96,51.67a3.08,3.08,0,0,0-2.84,3.13V69.29A3.08,3.08,0,0,0,96,72.42h.13a3,3,0,0,0,3-3V54.64a3,3,0,0,0-3.1-3Zm2.1,17.78a2,2,0,0,1-.61,1.42,1.92,1.92,0,0,1-1.45.54,2.08,2.08,0,0,1-1.88-2.13V54.8A2.08,2.08,0,0,1,96,52.67h.09a2,2,0,0,1,2,2Z"/></svg>