<svg id="blue_svg_2px" xmlns="http://www.w3.org/2000/svg" viewBox="0 0 140 140"><defs><style>.cls-1{fill:#00008f;}</style></defs><title>caddy_blue_circle</title><g id="cercle"><path class="cls-1" d="M70.14,140a70,70,0,1,1,70-70A70.08,70.08,0,0,1,70.14,140Zm0-138a68,68,0,1,0,68,68A68.08,68.08,0,0,0,70.14,2Z"/></g><path class="cls-1" d="M113.28,47.29A4.69,4.69,0,0,0,109.46,45h0l-59.1-2.71-2-4.49a3.43,3.43,0,0,0,2.26-3.39A3.59,3.59,0,0,0,47,31.12H29.63A3.59,3.59,0,0,0,26,34.43a3.47,3.47,0,0,0,3.47,3.62h8.89l12,42.27-2.53,8.78H44.64A3.59,3.59,0,0,0,41,92.42,3.47,3.47,0,0,0,44.48,96h.11a8.09,8.09,0,1,0,13.06,0H87.11a8.09,8.09,0,1,0,13.06,0h1.29a3.47,3.47,0,0,0,3.47-3.62,3.59,3.59,0,0,0-3.63-3.32H57.78l1.37-4.51,37.11-1.76a4.79,4.79,0,0,0,4.05-2.75l13.2-28.29a4.54,4.54,0,0,0-.2-4.48ZM28.41,35.6A1.46,1.46,0,0,1,28,34.52a1.57,1.57,0,0,1,1.63-1.4H47a1.57,1.57,0,0,1,1.63,1.4,1.47,1.47,0,0,1-1.47,1.53H29.47A1.46,1.46,0,0,1,28.41,35.6Zm22.71,71.28a6.09,6.09,0,1,1,6.09-6.09A6.09,6.09,0,0,1,51.12,106.88Zm42.52,0a6.09,6.09,0,1,1,6.09-6.09A6.09,6.09,0,0,1,93.64,106.88Zm9.29-14.37A1.47,1.47,0,0,1,101.46,94H98.07a8,8,0,0,0-8.88,0H55.55a8.05,8.05,0,0,0-8.89,0H44.48A1.47,1.47,0,0,1,43,92.51a1.57,1.57,0,0,1,1.63-1.4H101.3A1.57,1.57,0,0,1,102.93,92.51Zm8.8-41.61L98.49,79.25a2.79,2.79,0,0,1-2.35,1.59L58.35,82.64a1,1,0,0,0-.91.71l-1.75,5.76H49.92l2.45-8.5a1,1,0,0,0,0-.55l-11.92-42h5.78l2.57,5.65a1,1,0,0,0,.86.58L109.42,47a2.69,2.69,0,0,1,2.17,1.32A2.61,2.61,0,0,1,111.72,50.9Z"/><path class="cls-1" d="M56.83,51.17a3.59,3.59,0,0,0-3.32,3.63V69.29a3.59,3.59,0,0,0,3.32,3.63H57a3.47,3.47,0,0,0,3.47-3.47V54.64a3.47,3.47,0,0,0-3.62-3.46Zm1.62,18.28A1.46,1.46,0,0,1,58,70.51a1.43,1.43,0,0,1-1.08.41,1.57,1.57,0,0,1-1.4-1.63V54.8a1.57,1.57,0,0,1,1.4-1.63H57a1.47,1.47,0,0,1,1.47,1.47Z"/><path class="cls-1" d="M66.7,51.17a3.59,3.59,0,0,0-3.32,3.63V69.29a3.59,3.59,0,0,0,3.32,3.63h.15a3.47,3.47,0,0,0,3.47-3.47V54.64a3.47,3.47,0,0,0-3.62-3.46Zm1.62,18.28a1.46,1.46,0,0,1-.45,1.06,1.43,1.43,0,0,1-1.08.41,1.57,1.57,0,0,1-1.4-1.63V54.8a1.57,1.57,0,0,1,1.4-1.63h.07a1.47,1.47,0,0,1,1.47,1.47Z"/><path class="cls-1" d="M76.57,51.17a3.59,3.59,0,0,0-3.32,3.63V69.29a3.59,3.59,0,0,0,3.32,3.63h.15a3.47,3.47,0,0,0,3.47-3.47V54.64a3.47,3.47,0,0,0-3.62-3.46Zm1.62,18.28a1.46,1.46,0,0,1-.45,1.06,1.44,1.44,0,0,1-1.08.41,1.57,1.57,0,0,1-1.4-1.63V54.8a1.57,1.57,0,0,1,1.4-1.63h.07a1.47,1.47,0,0,1,1.47,1.47Z"/><path class="cls-1" d="M86.45,51.17a3.59,3.59,0,0,0-3.32,3.63V69.29a3.59,3.59,0,0,0,3.32,3.63h.15a3.47,3.47,0,0,0,3.47-3.47V54.64a3.47,3.47,0,0,0-3.62-3.46Zm1.62,18.28a1.46,1.46,0,0,1-.45,1.06,1.43,1.43,0,0,1-1.08.41,1.57,1.57,0,0,1-1.4-1.63V54.8a1.57,1.57,0,0,1,1.4-1.63h.07a1.47,1.47,0,0,1,1.47,1.47Z"/><path class="cls-1" d="M96,51.17a3.59,3.59,0,0,0-3.32,3.63V69.29A3.59,3.59,0,0,0,96,72.92h.15a3.47,3.47,0,0,0,3.47-3.47V54.64A3.47,3.47,0,0,0,96,51.17Zm1.62,18.28a1.46,1.46,0,0,1-.45,1.06,1.43,1.43,0,0,1-1.08.41,1.57,1.57,0,0,1-1.4-1.63V54.8A1.57,1.57,0,0,1,96,53.17h.07a1.47,1.47,0,0,1,1.47,1.47Z"/></svg>