<svg id="svg_1px" data-name="svg 1px" xmlns="http://www.w3.org/2000/svg" viewBox="0 0 140 140"><defs><style>.cls-1{fill:#fff;}</style></defs><title>tools</title><path class="cls-1" d="M55.09,80a.5.5,0,0,0-.71,0L40.2,94.28a.5.5,0,1,0,.71.71L55.09,80.69A.5.5,0,0,0,55.09,80Z"/><path class="cls-1" d="M59.11,84.75,44.93,99a.5.5,0,1,0,.71.71l14.18-14.3a.5.5,0,1,0-.71-.71Z"/><path class="cls-1" d="M103.09,85.71A11.59,11.59,0,0,0,90.92,83L76.6,68.54,96,49l7-2.37a.5.5,0,0,0,.32-.34l2.34-8.71a.5.5,0,0,0-.13-.48l-3.15-3.18a.49.49,0,0,0-.49-.13l-8.72,2.43a.5.5,0,0,0-.34.33l-2.28,7L71.17,63.07,57.42,49.2A11.8,11.8,0,0,0,54.7,36.93a11.58,11.58,0,0,0-12.49-2.62.5.5,0,0,0-.17.82l6.08,6.13-5.6,5.64-6.08-6.12a.51.51,0,0,0-.46-.14.5.5,0,0,0-.36.31,11.8,11.8,0,0,0,2.6,12.58A11.58,11.58,0,0,0,50.4,56.26L64.16,70.13,59.93,74.4l-3.59-3.61a.5.5,0,0,0-.71,0L36.26,90.31a9.55,9.55,0,0,0,0,13.41,9.37,9.37,0,0,0,13.32,0L68.95,84.2a.5.5,0,0,0,0-.71l-3.59-3.62,4.23-4.27L83.91,90a11.8,11.8,0,0,0,2.72,12.27,11.58,11.58,0,0,0,12.49,2.62.5.5,0,0,0,.17-.82L93.2,98l5.6-5.64,6.08,6.13a.5.5,0,0,0,.82-.17A11.8,11.8,0,0,0,103.09,85.71ZM50.53,55.18a.5.5,0,0,0-.18,0,10.59,10.59,0,0,1-11.41-2.4A10.79,10.79,0,0,1,36.3,42L42.17,48a.5.5,0,0,0,.71,0l6.3-6.35a.5.5,0,0,0,0-.71L43.3,35A10.59,10.59,0,0,1,54,37.64a10.8,10.8,0,0,1,2.38,11.51.5.5,0,0,0,.11.53l14,14.09-5.6,5.64-14-14.09A.5.5,0,0,0,50.53,55.18ZM48.87,103A8.37,8.37,0,0,1,37,103a8.54,8.54,0,0,1,0-12L56,71.84l3.59,3.62h0l8.32,8.38ZM60.63,75.11l30.71-31a.5.5,0,0,0,.12-.2l2.23-6.84,8.18-2.28,2.74,2.76-2.2,8.17-6.86,2.32a.49.49,0,0,0-.19.12L64.65,79.16ZM105,97.18l-5.87-5.91a.51.51,0,0,0-.71,0l-6.3,6.35a.5.5,0,0,0,0,.71L98,104.25a10.59,10.59,0,0,1-10.68-2.66A10.8,10.8,0,0,1,85,90.08a.5.5,0,0,0-.11-.53L70.3,74.89l5.6-5.64L90.44,83.9A.5.5,0,0,0,91,84a10.59,10.59,0,0,1,11.41,2.4A10.79,10.79,0,0,1,105,97.18Z"/><path class="cls-1" d="M70,139.5A69.5,69.5,0,1,1,139.5,70,69.58,69.58,0,0,1,70,139.5Zm0-138A68.5,68.5,0,1,0,138.5,70,68.58,68.58,0,0,0,70,1.5Z"/></svg>