<svg id="svg_2px" data-name="svg 2px" xmlns="http://www.w3.org/2000/svg" viewBox="0 0 140 140"><defs><style>.cls-1{fill:#00008f;}</style></defs><title>tools</title><path class="cls-1" d="M55.44,79.63a1,1,0,0,0-1.41,0L39.84,93.93a1,1,0,1,0,1.42,1.41L55.45,81A1,1,0,0,0,55.44,79.63Z"/><path class="cls-1" d="M44.58,100.11a1,1,0,0,0,1.41,0l14.18-14.3a1,1,0,0,0-1.42-1.41L44.57,98.69A1,1,0,0,0,44.58,100.11Z"/><path class="cls-1" d="M103.45,85.36a12.09,12.09,0,0,0-12.4-3L77.31,68.54l19-19.1,6.89-2.33a1,1,0,0,0,.65-.69l2.34-8.71a1,1,0,0,0-.26-1l-3.15-3.18a1,1,0,0,0-1-.26L93,35.74a1,1,0,0,0-.68.65l-2.24,6.87L71.17,62.36,58,49.07a12.3,12.3,0,0,0-2.94-12.49,12.09,12.09,0,0,0-13-2.74,1,1,0,0,0-.34,1.63l5.73,5.78-4.9,4.93L36.8,40.42a1,1,0,0,0-.91-.27,1,1,0,0,0-.73.62,12.29,12.29,0,0,0,2.71,13.11,12.08,12.08,0,0,0,12.4,3L63.46,70.13l-3.53,3.56L56.7,70.43a1,1,0,0,0-1.42,0L35.9,90a10,10,0,0,0,0,14.12,9.87,9.87,0,0,0,14,0L69.3,84.55a1,1,0,0,0,0-1.41l-3.24-3.27,3.53-3.56L83.33,90.16a12.3,12.3,0,0,0,2.94,12.49,12.08,12.08,0,0,0,13,2.74,1,1,0,0,0,.34-1.63L93.9,98,98.8,93l5.72,5.77a1,1,0,0,0,.91.27,1,1,0,0,0,.73-.62A12.3,12.3,0,0,0,103.45,85.36ZM50.53,54.68a1,1,0,0,0-.37.07,10.08,10.08,0,0,1-10.87-2.29A10.29,10.29,0,0,1,36.56,43l5.25,5.29a1,1,0,0,0,1.42,0L49.54,42a1,1,0,0,0,0-1.41l-5.27-5.31A10.08,10.08,0,0,1,53.63,38,10.3,10.3,0,0,1,55.9,49,1,1,0,0,0,56.13,50L69.76,63.77l-4.89,4.93L51.24,55A1,1,0,0,0,50.53,54.68Zm-2,48a7.87,7.87,0,0,1-11.19,0,8,8,0,0,1,0-11.3L56,72.55l11.2,11.29ZM61.34,75.11,91.7,44.51a1,1,0,0,0,.24-.39l2.15-6.59,7.64-2.13,2.33,2.35L102,45.38l-6.61,2.24a1,1,0,0,0-.39.24L64.65,78.45Zm43.43,21.1-5.25-5.29a1,1,0,0,0-1.42,0l-6.3,6.35a1,1,0,0,0,0,1.41L97.05,104a10.09,10.09,0,0,1-9.37-2.75,10.3,10.3,0,0,1-2.27-11,1,1,0,0,0-.22-1.07L71,74.89,75.9,70,90.08,84.25a1,1,0,0,0,1.08.23A10.09,10.09,0,0,1,102,86.76,10.29,10.29,0,0,1,104.76,96.21Z"/><path class="cls-1" d="M70,140a70,70,0,1,1,70-70A70.08,70.08,0,0,1,70,140ZM70,2a68,68,0,1,0,68,68A68.08,68.08,0,0,0,70,2Z"/></svg>