<svg id="tools_blue" data-name="svg 2px" xmlns="http://www.w3.org/2000/svg" viewBox="0 0 96 96"><defs><style>.cls-1{fill:#00008f;}</style></defs><title>tools</title><path class="cls-1" d="M33.44,57.63a1,1,0,0,0-1.41,0L17.84,71.93a1,1,0,1,0,1.42,1.41L33.45,59A1,1,0,0,0,33.44,57.63Z"/><path class="cls-1" d="M22.58,78.11a1,1,0,0,0,1.41,0l14.18-14.3a1,1,0,0,0-1.42-1.41L22.57,76.69A1,1,0,0,0,22.58,78.11Z"/><path class="cls-1" d="M81.45,63.36a12.09,12.09,0,0,0-12.4-3L55.31,46.54l19-19.1,6.89-2.33a1,1,0,0,0,.65-.69l2.34-8.71a1,1,0,0,0-.26-1l-3.15-3.18a1,1,0,0,0-1-.26L71,13.74a1,1,0,0,0-.68.65l-2.24,6.87L49.17,40.36,36,27.07a12.3,12.3,0,0,0-2.94-12.49,12.09,12.09,0,0,0-13-2.74,1,1,0,0,0-.34,1.63l5.73,5.78-4.9,4.93L14.8,18.42a1,1,0,0,0-.91-.27,1,1,0,0,0-.73.62,12.29,12.29,0,0,0,2.71,13.11,12.08,12.08,0,0,0,12.4,3L41.46,48.13l-3.53,3.56L34.7,48.43a1,1,0,0,0-1.42,0L13.9,68a10,10,0,0,0,0,14.12,9.87,9.87,0,0,0,14,0L47.3,62.55a1,1,0,0,0,0-1.41l-3.24-3.27,3.53-3.56L61.33,68.16a12.3,12.3,0,0,0,2.94,12.49,12.08,12.08,0,0,0,13,2.74,1,1,0,0,0,.34-1.63L71.9,76,76.8,71l5.72,5.77a1,1,0,0,0,.91.27,1,1,0,0,0,.73-.62A12.3,12.3,0,0,0,81.45,63.36ZM28.53,32.68a1,1,0,0,0-.37.07,10.08,10.08,0,0,1-10.87-2.29A10.29,10.29,0,0,1,14.56,21l5.25,5.29a1,1,0,0,0,1.42,0L27.54,20a1,1,0,0,0,0-1.41l-5.27-5.31A10.08,10.08,0,0,1,31.63,16,10.3,10.3,0,0,1,33.9,27,1,1,0,0,0,34.13,28L47.76,41.77l-4.89,4.93L29.24,33A1,1,0,0,0,28.53,32.68Zm-2,48a7.87,7.87,0,0,1-11.19,0,8,8,0,0,1,0-11.3L34,50.55l11.2,11.29ZM39.34,53.11,69.7,22.51a1,1,0,0,0,.24-.39l2.15-6.59,7.64-2.13,2.33,2.35L80,23.38l-6.61,2.24a1,1,0,0,0-.39.24L42.65,56.45Zm43.43,21.1-5.25-5.29a1,1,0,0,0-1.42,0l-6.3,6.35a1,1,0,0,0,0,1.41L75.05,82a10.09,10.09,0,0,1-9.37-2.75,10.3,10.3,0,0,1-2.27-11,1,1,0,0,0-.22-1.07L49,52.89,53.9,48,68.08,62.25a1,1,0,0,0,1.08.23A10.09,10.09,0,0,1,80,64.76,10.29,10.29,0,0,1,82.76,74.21Z"/></svg>