<svg id="svg_1px" data-name="svg 1px" xmlns="http://www.w3.org/2000/svg" viewBox="0 0 96 96"><defs><style>.cls-1{fill:#fff;}</style></defs><title>tools</title><path class="cls-1" d="M33.09,58a.5.5,0,0,0-.71,0L18.2,72.28a.5.5,0,1,0,.71.71L33.09,58.69A.5.5,0,0,0,33.09,58Z"/><path class="cls-1" d="M37.11,62.75,22.93,77a.5.5,0,1,0,.71.71l14.18-14.3a.5.5,0,0,0-.71-.71Z"/><path class="cls-1" d="M81.09,63.71A11.59,11.59,0,0,0,68.92,61L54.6,46.54,74,27l7-2.37a.5.5,0,0,0,.32-.34l2.34-8.71a.5.5,0,0,0-.13-.48l-3.15-3.18a.49.49,0,0,0-.49-.13l-8.72,2.43a.5.5,0,0,0-.34.33l-2.28,7L49.17,41.07,35.42,27.2A11.8,11.8,0,0,0,32.7,14.93a11.58,11.58,0,0,0-12.49-2.62.5.5,0,0,0-.17.82l6.08,6.13-5.6,5.64-6.08-6.12a.51.51,0,0,0-.46-.14.5.5,0,0,0-.36.31,11.8,11.8,0,0,0,2.6,12.58A11.58,11.58,0,0,0,28.4,34.26L42.16,48.13,37.93,52.4l-3.59-3.61a.5.5,0,0,0-.71,0L14.26,68.31a9.55,9.55,0,0,0,0,13.41,9.37,9.37,0,0,0,13.32,0L46.95,62.2a.5.5,0,0,0,0-.71l-3.59-3.62,4.23-4.27L61.91,68A11.8,11.8,0,0,0,64.62,80.3a11.58,11.58,0,0,0,12.49,2.62.5.5,0,0,0,.17-.82L71.2,76l5.6-5.64,6.08,6.13a.5.5,0,0,0,.82-.17A11.8,11.8,0,0,0,81.09,63.71ZM28.53,33.18a.5.5,0,0,0-.18,0,10.59,10.59,0,0,1-11.41-2.4A10.79,10.79,0,0,1,14.3,20L20.17,26a.5.5,0,0,0,.71,0l6.3-6.35a.5.5,0,0,0,0-.71L21.3,13A10.59,10.59,0,0,1,32,15.64a10.8,10.8,0,0,1,2.38,11.51.5.5,0,0,0,.11.53l14,14.09-5.6,5.64-14-14.09A.5.5,0,0,0,28.53,33.18ZM26.87,81A8.37,8.37,0,0,1,15,81a8.54,8.54,0,0,1,0-12L34,49.84l3.59,3.62h0l8.32,8.38ZM38.63,53.11l30.71-31a.5.5,0,0,0,.12-.2l2.23-6.84,8.18-2.28,2.74,2.76-2.2,8.17-6.86,2.32a.49.49,0,0,0-.19.12L42.65,57.16ZM83,75.18l-5.87-5.91a.51.51,0,0,0-.71,0l-6.3,6.35a.5.5,0,0,0,0,.71L76,82.25a10.59,10.59,0,0,1-10.68-2.66A10.8,10.8,0,0,1,63,68.08a.5.5,0,0,0-.11-.53L48.3,52.89l5.6-5.64L68.44,61.9A.5.5,0,0,0,69,62a10.59,10.59,0,0,1,11.41,2.4A10.79,10.79,0,0,1,83,75.18Z"/></svg>