<?xml version="1.0" encoding="utf-8"?>
<!-- Generator: Adobe Illustrator 22.1.0, SVG Export Plug-In . SVG Version: 6.00 Build 0)  -->
<svg version="1.1" id="svg_white_1px" xmlns="http://www.w3.org/2000/svg" xmlns:xlink="http://www.w3.org/1999/xlink" x="0px"
	 y="0px" viewBox="0 0 140 140" style="enable-background:new 0 0 140 140;" xml:space="preserve">
<style type="text/css">
	.st0{fill:#FFFFFF;}
</style>
<title>town_hall_white_circle</title>
<metadata><?xpacket begin="﻿" id="W5M0MpCehiHzreSzNTczkc9d"?>
<x:xmpmeta xmlns:x="adobe:ns:meta/" x:xmptk="Adobe XMP Core 5.6-c143 79.161356, 2017/09/07-01:11:22        ">
   <rdf:RDF xmlns:rdf="http://www.w3.org/1999/02/22-rdf-syntax-ns#">
      <rdf:Description rdf:about=""
            xmlns:dc="http://purl.org/dc/elements/1.1/">
         <dc:title>
            <rdf:Alt>
               <rdf:li xml:lang="x-default">town_hall_white_circle</rdf:li>
            </rdf:Alt>
         </dc:title>
      </rdf:Description>
   </rdf:RDF>
</x:xmpmeta>
                                                                                                    
                                                                                                    
                                                                                                    
                                                                                                    
                                                                                                    
                                                                                                    
                                                                                                    
                                                                                                    
                                                                                                    
                                                                                                    
                                                                                                    
                                                                                                    
                                                                                                    
                                                                                                    
                                                                                                    
                                                                                                    
                                                                                                    
                                                                                                    
                                                                                                    
                                                                                                    
                           
<?xpacket end="w"?></metadata>
<g>
	<path class="st0" d="M70,0.5C31.6,0.5,0.5,31.6,0.5,70s31.1,69.5,69.5,69.5s69.5-31.1,69.5-69.5C139.5,31.6,108.4,0.5,70,0.5z
		 M70,138.5c-37.8,0-68.5-30.7-68.5-68.5S32.2,1.5,70,1.5s68.5,30.7,68.5,68.5C138.5,107.8,107.8,138.5,70,138.5z"/>
	<path class="st0" d="M70,50.3C70,50.3,70,50.3,70,50.3c-2.1,0-3.7,1.7-3.7,3.7c0,2,1.7,3.7,3.7,3.7c2,0,3.7-1.7,3.7-3.7
		C73.7,52,72.1,50.3,70,50.3z M70,56.7c-1.5,0-2.7-1.2-2.7-2.7c0-1.5,1.2-2.7,2.7-2.7c1.5,0,2.7,1.2,2.7,2.7c0,0,0,0,0,0
		C72.7,55.5,71.5,56.7,70,56.7z"/>
	<path class="st0" d="M105.2,104.7h-3.8v-4.8c0-0.3-0.2-0.5-0.5-0.5h-4.8l-1-31h5.9c0.3,0,0.5-0.2,0.5-0.5v-5.3c0-0.1,0-0.1,0-0.2
		c0,0-0.1-0.1-0.1-0.1c0,0,0,0-0.1,0L70.5,44.1v-6.4c0-0.1,0-0.1,0-0.2c0.2-0.5,1.3-1.1,4-0.1c1.1,0.5,2.3,0.7,3.5,0.7
		c1.1,0,2.1-0.2,3-0.8c0.1-0.1,0.2-0.3,0.2-0.4v-7.1c0-0.2-0.2-0.4-0.4-0.5c-0.2,0-0.5,0.1-0.6,0.3c-0.2,0.5-1.3,1.1-4,0.1
		c-4.2-1.6-6.4,0-6.5,0.1c-0.1,0.1-0.2,0.2-0.2,0.4c0,0,0,0,0,0.1v7.1c0,0.1,0,0.1,0,0.2c0,0.1,0,0.1,0,0.2v6.4l-30.7,18
		c0,0,0,0-0.1,0.1h0c0,0-0.1,0.1-0.1,0.1c0,0.1,0,0.1,0,0.2v5.3c0,0.3,0.2,0.5,0.5,0.5H45l-1,31h-4.9c-0.3,0-0.5,0.2-0.5,0.5v4.8
		h-3.8c-0.3,0-0.5,0.2-0.5,0.5v5.3c0,0.3,0.2,0.5,0.5,0.5h70.3c0.3,0,0.5-0.2,0.5-0.5v-5.3C105.7,104.9,105.4,104.6,105.2,104.7z
		 M70.5,30.5c0.6-0.3,2.4-1,5.4,0.2c1.8,0.7,3.2,0.8,4.3,0.4h0.1v5.7c-0.6,0.3-2.4,1-5.4-0.2c-1.8-0.7-3.2-0.8-4.3-0.4h-0.1V30.5z
		 M70,45l29.1,17H40.9L70,45z M39.6,67.3V63h60.8v4.3H39.6z M80.3,80.7H59.7c-0.3,0-0.5,0.2-0.5,0.5v18.2h-5.8l-1-31h35.2l-1,31
		h-5.8V81.2C80.8,80.9,80.6,80.7,80.3,80.7z M69.5,99.3h-9.3V81.7h9.3V99.3z M79.8,81.7v17.7h-9.3V81.7H79.8z M88.6,68.3H94l1.1,31
		h-7.5L88.6,68.3z M46,68.3h5.4l1,31h-7.5L46,68.3z M39.6,100.3h60.8v4.3H39.6L39.6,100.3z M104.7,110H35.3v-4.3h69.3V110z"/>
</g>
</svg>
