<svg id="town_hall_blue" data-name="svg bleu 2px" xmlns="http://www.w3.org/2000/svg" viewBox="0 0 96 96"><title>town_hall_blue</title><path d="M48,27.81A4.2,4.2,0,1,0,52.2,32,4.21,4.21,0,0,0,48,27.81Zm0,6.4A2.2,2.2,0,1,1,50.2,32,2.21,2.21,0,0,1,48,34.21Z" fill="#00008f"/><path d="M83.17,82.17H79.91V77.84a1,1,0,0,0-1-1H74.55l-1-30h5.36a1,1,0,0,0,1-1V40.51a1.05,1.05,0,0,0-.08-.36s0,0,0,0a.92.92,0,0,0-.17-.25.35.35,0,0,0-.1-.08l-.12-.11L49,21.84V15.73s0,0,0,0c.28-.26,1.21-.55,3.31.27a10,10,0,0,0,3.69.76,5.79,5.79,0,0,0,3.33-.89,1,1,0,0,0,.38-.76s0-.06,0-.1V7.89a1,1,0,0,0-.82-1,1,1,0,0,0-1.1.61c-.14.27-1,.74-3.38-.18-4.45-1.74-6.92.05-7,.13a.94.94,0,0,0-.38.78.24.24,0,0,0,0,.08v7.09a1.48,1.48,0,0,0,0,.19.8.8,0,0,0,0,.15v6.11L16.58,39.67l-.12.11a.35.35,0,0,0-.1.08,1.1,1.1,0,0,0-.17.25s0,0,0,0a1.05,1.05,0,0,0-.08.36v5.35a1,1,0,0,0,1,1h5.36l-1,30H17.09a1,1,0,0,0-1,1v4.33H12.83a1,1,0,0,0-1,1V88.5a1,1,0,0,0,1,1H83.17a1,1,0,0,0,1-1V83.17A1,1,0,0,0,83.17,82.17ZM72.55,76.84H66.09l1-30h4.46Zm-13.25,0V59.18a1,1,0,0,0-1-1H37.7a1,1,0,0,0-1,1V76.84H31.91l-1-30H65.09l-1,30ZM49,76.84a.53.53,0,0,0,0-.17V60.18h8.3V76.84Zm-1.92,0H38.7V60.18H47V76.67A.53.53,0,0,0,47,76.84ZM53.69,9.17a7.09,7.09,0,0,0,4,.58v4.69A6.29,6.29,0,0,1,53,14.11a7.09,7.09,0,0,0-4-.58V8.84A6.4,6.4,0,0,1,53.69,9.17ZM48,23.57l27.23,16H20.77Zm-29.91,18H77.91v3.33H18.09Zm6.36,5.33h4.46l1,30H23.45Zm-6.36,32H77.91v3.33H18.09ZM82.17,87.5H13.83V84.17H82.17Z" fill="#00008f"/></svg>