<svg id="svg_blue_2px" data-name="svg blue 2px" xmlns="http://www.w3.org/2000/svg" viewBox="0 0 140 140"><title>town_hall_blue_circle</title><g id="circle_-_copie_2" data-name="circle - copie 2"><path d="M70,140a70,70,0,1,1,70-70A70.08,70.08,0,0,1,70,140ZM70,2a68,68,0,1,0,68,68A68.07,68.07,0,0,0,70,2Z" fill="#00008f"/></g><path d="M70,49.79A4.2,4.2,0,1,0,74.2,54,4.2,4.2,0,0,0,70,49.79Zm0,6.39A2.2,2.2,0,1,1,72.2,54,2.21,2.21,0,0,1,70,56.18Z" fill="#00008f"/><path d="M105.17,104.15h-3.26V99.82a1,1,0,0,0-1-1H96.55l-1-30h5.36a1,1,0,0,0,1-1V62.48a1.05,1.05,0,0,0-.08-.35s0,0,0-.05a1.38,1.38,0,0,0-.17-.25l-.1-.08-.12-.1L71,43.82V37.71s0,0,0,0c.28-.25,1.21-.54,3.31.28a10.26,10.26,0,0,0,3.69.76,5.79,5.79,0,0,0,3.33-.89,1,1,0,0,0,.38-.76s0-.07,0-.1V29.87a1,1,0,0,0-.82-1,1,1,0,0,0-1.1.61c-.14.26-1,.74-3.38-.19-4.45-1.74-6.92.06-7,.14a1,1,0,0,0-.38.75s0,.07,0,.11v7.08a1.08,1.08,0,0,0,0,.19.9.9,0,0,0,0,.16v6.11L38.58,61.65l-.12.1-.1.08a1.38,1.38,0,0,0-.17.25s0,0,0,.05a1.05,1.05,0,0,0-.08.35v5.36a1,1,0,0,0,1,1h5.36l-1,30H39.09a1,1,0,0,0-1,1v4.33H34.83a1,1,0,0,0-1,1v5.33a1,1,0,0,0,1,1h70.34a1,1,0,0,0,1-1v-5.33A1,1,0,0,0,105.17,104.15ZM94.55,98.82H88.09l1-30h4.46Zm-13.25,0V81.15a1,1,0,0,0-1-1H59.7a1,1,0,0,0-1,1V98.82H53.91l-1-30H87.09l-1,30ZM71,98.82a.58.58,0,0,0,0-.18V82.15h8.3V98.82Zm-1.92,0H60.7V82.15H69V98.64A.58.58,0,0,0,69,98.82Zm6.65-67.67a7,7,0,0,0,4,.57v4.7A6.4,6.4,0,0,1,75,36.09a7,7,0,0,0-4-.58V30.82A6.29,6.29,0,0,1,75.69,31.15ZM70,45.55l27.23,16H42.77Zm-29.91,18H99.91v3.33H40.09Zm6.36,5.33h4.46l1,30H45.45Zm-6.36,32H99.91v3.33H40.09Zm64.08,8.66H35.83v-3.33h68.34Z" fill="#00008f"/></svg>