<svg id="svg_white_1px" data-name="svg white 1px" xmlns="http://www.w3.org/2000/svg" viewBox="0 0 96 96"><title>town_hall_white</title><path d="M48,28.31A3.7,3.7,0,1,0,51.7,32,3.7,3.7,0,0,0,48,28.31Zm0,6.4A2.7,2.7,0,1,1,50.7,32,2.7,2.7,0,0,1,48,34.71Z" fill="#fff"/><path d="M83.17,82.67H79.41V77.84a.5.5,0,0,0-.5-.5H74.07l-1-31h5.88a.5.5,0,0,0,.5-.5V40.53h0a.39.39,0,0,0,0-.18s0,0,0,0a.27.27,0,0,0-.09-.12s0,0,0-.05l-.06,0-30.66-18v-6.3a.51.51,0,0,0,0-.17c.21-.48,1.32-1.11,4-.06a9.47,9.47,0,0,0,3.51.73,5.3,5.3,0,0,0,3-.79.52.52,0,0,0,.19-.41s0,0,0-.05V8a.48.48,0,0,0-.4-.48.52.52,0,0,0-.57.3c-.21.48-1.31,1.12-4,.06-4.19-1.64-6.44,0-6.53.07a.5.5,0,0,0-.19.4s0,0,0,.06v7.08a.48.48,0,0,0,0,.18.86.86,0,0,0,0,.17v6.3l-30.66,18-.06,0s0,0-.05.05a.27.27,0,0,0-.09.12s0,0,0,0a.39.39,0,0,0,0,.18h0v5.33a.5.5,0,0,0,.5.5H23l-1,31H17.09a.5.5,0,0,0-.5.5v4.83H12.83a.5.5,0,0,0-.5.5V88.5a.5.5,0,0,0,.5.5H83.17a.5.5,0,0,0,.5-.5V83.17A.5.5,0,0,0,83.17,82.67ZM73.06,77.34H65.57l1-31H72Zm-14.26,0V59.18a.5.5,0,0,0-.5-.5H37.7a.5.5,0,0,0-.5.5V77.34H31.43l-1-31H65.6l-1,31Zm-10.3,0V59.68h9.3V77.34Zm-10.3,0V59.68h9.3V77.34ZM53.87,8.8c1.81.71,3.25.84,4.26.38l.09,0v5.72c-.57.3-2.36,1-5.37-.19-1.82-.71-3.25-.83-4.27-.38l-.08,0V8.62C49.07,8.31,50.86,7.63,53.87,8.8ZM48,23,77.07,40H18.93ZM17.59,41H78.41v4.33H17.59ZM24,46.36H29.4l1,31H22.94Zm-6.38,32H78.41v4.33H17.59ZM82.67,88H13.33V83.67H82.67Z" fill="#fff"/></svg>