<svg id="umbrella_blue" xmlns="http://www.w3.org/2000/svg" viewBox="0 0 96 96"><defs><style>.cls-1{fill:#00008f;}</style></defs><title>umbrella</title><path class="cls-1" d="M49,10.46V8a1,1,0,0,0-2,0v2.46C25.25,11,7.4,30.18,7,53.67a1,1,0,0,0,1.88.5c2.15-4,7-6.5,12.44-6.5s10.22,2.52,12.39,6.42a1,1,0,0,0,.42.54,1.05,1.05,0,0,0,.53.15.93.93,0,0,0,.81-.47l.06-.09h0C37.55,50.47,42,48,47,47.69V81.14a5.86,5.86,0,1,1-11.71,0,1,1,0,0,0-2,0,7.86,7.86,0,1,0,15.71,0V47.69c5,.29,9.45,2.78,11.46,6.5h0l0,.05.07.09.08.09.12.09.09.06.15.06.09,0a1,1,0,0,0,.25,0h0a1,1,0,0,0,.4-.1h0l0,0a1,1,0,0,0,.2-.14l0,0a1,1,0,0,0,.17-.22c2.14-4,7-6.53,12.46-6.53S85,50.21,87.12,54.16a1,1,0,0,0,1.88-.5C88.6,30.18,70.75,11,49,10.46ZM21.32,45.66A17,17,0,0,0,9.17,50.45C11,30,26.65,13.71,45.73,12.51c-3.4,4.29-11.18,16.39-12,38.25A16.9,16.9,0,0,0,21.32,45.66Zm26.68,0a17,17,0,0,0-12.25,4.89c.55-13.29,3.79-22.76,6.52-28.49A42.31,42.31,0,0,1,48,12.92a42.31,42.31,0,0,1,5.73,9.14c2.73,5.73,6,15.2,6.52,28.49A17,17,0,0,0,48,45.66Zm26.68,0a16.9,16.9,0,0,0-12.42,5.1c-.81-21.86-8.59-34-12-38.25C69.35,13.71,85,30,86.83,50.45A17,17,0,0,0,74.68,45.66Z"/></svg>