<svg id="white_svg_1px" xmlns="http://www.w3.org/2000/svg" viewBox="0 0 96 96"><defs><style>.cls-1{fill:#fff;}</style></defs><title>umbrella</title><path class="cls-1" d="M48.5,10.94V8a.5.5,0,0,0-1,0v2.94c-21.7.29-39.6,19.34-40,42.73a.5.5,0,0,0,.94.25c2.24-4.11,7.29-6.76,12.88-6.76S32,49.83,34.22,54a.49.49,0,0,0,.86,0l0,0h0c2.17-4,7-6.62,12.39-6.77v34a6.36,6.36,0,1,1-12.71,0,.5.5,0,0,0-1,0,7.36,7.36,0,1,0,14.71,0v-34c5.41.15,10.24,2.78,12.4,6.78a.49.49,0,0,0,.13.14l0,0a.5.5,0,0,0,.7-.19c2.23-4.13,7.29-6.79,12.9-6.79s10.64,2.66,12.88,6.76a.5.5,0,0,0,.94-.25C88.1,30.28,70.2,11.23,48.5,10.94ZM21.32,46.16c-5.23,0-10,2.21-12.76,5.75C9.79,30.11,26.54,12.6,46.85,12,44.06,15.27,34.8,28,34.21,52.08,31.51,48.44,26.64,46.16,21.32,46.16Zm26.68,0c-5.25,0-10.07,2.23-12.79,5.79C35.58,37.8,39,27.78,41.85,21.79A41.15,41.15,0,0,1,48,12.16a41.15,41.15,0,0,1,6.15,9.63c2.86,6,6.27,16,6.64,30.16C58.07,48.38,53.25,46.16,48,46.16Zm26.68,0c-5.32,0-10.19,2.28-12.89,5.92C61.2,28,51.94,15.27,49.15,12c20.32.64,37.06,18.15,38.29,39.95C84.71,48.37,79.91,46.16,74.68,46.16Z"/></svg>