<svg id="white_svg_1px" xmlns="http://www.w3.org/2000/svg" viewBox="0 0 140 140"><defs><style>.cls-1{fill:#fff;}</style></defs><title>umbrella</title><g id="svg_1px" data-name="svg 1px"><path class="cls-1" d="M70.5,32.94V30a.5.5,0,0,0-1,0v2.94c-21.7.29-39.6,19.34-40,42.73a.5.5,0,0,0,.94.25c2.24-4.11,7.29-6.76,12.88-6.76S54,71.83,56.22,76a.49.49,0,0,0,.86,0l0,0h0c2.17-4,7-6.62,12.39-6.77v34a6.36,6.36,0,1,1-12.71,0,.5.5,0,0,0-1,0,7.36,7.36,0,1,0,14.71,0v-34c5.41.15,10.24,2.78,12.4,6.78a.49.49,0,0,0,.13.14l0,0a.5.5,0,0,0,.7-.19c2.23-4.13,7.29-6.79,12.9-6.79s10.64,2.66,12.88,6.76a.5.5,0,0,0,.94-.25C110.1,52.28,92.2,33.23,70.5,32.94ZM43.32,68.16c-5.23,0-10,2.21-12.76,5.75C31.79,52.11,48.54,34.6,68.85,34,66.06,37.27,56.8,50,56.21,74.08,53.51,70.44,48.64,68.16,43.32,68.16Zm26.68,0c-5.25,0-10.07,2.23-12.79,5.79C57.58,59.8,61,49.78,63.85,43.79A41.15,41.15,0,0,1,70,34.16a41.15,41.15,0,0,1,6.15,9.63c2.86,6,6.27,16,6.64,30.16C80.07,70.38,75.25,68.16,70,68.16Zm26.68,0c-5.32,0-10.19,2.28-12.89,5.92C83.2,50,73.94,37.27,71.15,34c20.32.64,37.06,18.15,38.29,39.95C106.71,70.37,101.91,68.16,96.68,68.16Z"/><path class="cls-1" d="M70,139.5A69.5,69.5,0,1,1,139.5,70,69.58,69.58,0,0,1,70,139.5Zm0-138A68.5,68.5,0,1,0,138.5,70,68.58,68.58,0,0,0,70,1.5Z"/></g></svg>