<svg id="blue_svg_2px" xmlns="http://www.w3.org/2000/svg" viewBox="0 0 140 140"><defs><style>.cls-1{fill:#00008f;}</style></defs><title>umbrella</title><g id="svg_2px" data-name="svg 2px"><path class="cls-1" d="M71,32.46V30a1,1,0,0,0-2,0v2.46C47.25,33,29.4,52.18,29,75.67a1,1,0,0,0,1.88.5c2.15-4,7-6.5,12.44-6.5s10.22,2.52,12.39,6.42a1,1,0,0,0,.42.54,1.05,1.05,0,0,0,.53.15.93.93,0,0,0,.81-.47l.06-.09h0C59.55,72.47,64,70,69,69.69v33.45a5.86,5.86,0,1,1-11.71,0,1,1,0,0,0-2,0,7.86,7.86,0,1,0,15.71,0V69.69c5,.29,9.45,2.78,11.46,6.5h0l0,.05.07.09.08.09.12.09.09.06.15.06.09,0a1,1,0,0,0,.25,0h0a1,1,0,0,0,.4-.1h0l0,0a1,1,0,0,0,.2-.14l0,0a1,1,0,0,0,.17-.22c2.14-4,7-6.53,12.46-6.53s10.29,2.55,12.44,6.5a1,1,0,0,0,1.88-.5C110.6,52.18,92.75,33,71,32.46ZM43.32,67.66a17,17,0,0,0-12.15,4.79C33,52,48.65,35.71,67.73,34.51c-3.4,4.29-11.18,16.39-12,38.25A16.9,16.9,0,0,0,43.32,67.66Zm26.68,0a17,17,0,0,0-12.25,4.89c.55-13.29,3.79-22.76,6.52-28.49A42.31,42.31,0,0,1,70,34.92a42.31,42.31,0,0,1,5.73,9.14c2.73,5.73,6,15.2,6.52,28.49A17,17,0,0,0,70,67.66Zm26.68,0a16.9,16.9,0,0,0-12.42,5.1c-.81-21.86-8.59-34-12-38.25C91.35,35.71,107,52,108.83,72.45A17,17,0,0,0,96.68,67.66Z"/><path class="cls-1" d="M70,140a70,70,0,1,1,70-70A70.08,70.08,0,0,1,70,140ZM70,2a68,68,0,1,0,68,68A68.08,68.08,0,0,0,70,2Z"/></g></svg>