<svg id="svg_1px" data-name="svg 1px" xmlns="http://www.w3.org/2000/svg" viewBox="0 0 96 96"><defs><style>.cls-1{fill:#fff;}</style></defs><title>wechat</title><path class="cls-1" d="M90.5,58.47c0-11-10-20.11-22.81-21.47-2-12.86-15.24-22.51-31-22.51C19.51,14.5,5.5,26.11,5.5,40.37c0,7.48,3.89,14.56,10.69,19.48l-2.48,9.83a.5.5,0,0,0,.73.56L24.9,64.32a36.73,36.73,0,0,0,11.84,1.92c1.08,0,2.17-.05,3.23-.14,3.73,8.18,13.27,14,24.43,14A30.74,30.74,0,0,0,74,78.59l8.56,4.84a.5.5,0,0,0,.25.06.5.5,0,0,0,.48-.62l-2-7.92C87.16,70.83,90.5,64.84,90.5,58.47ZM36.73,65.25A35.68,35.68,0,0,1,25,63.3a.5.5,0,0,0-.41,0L15,68.79l2.28-9a.5.5,0,0,0-.2-.53C10.34,54.5,6.5,47.62,6.5,40.37,6.5,26.66,20.06,15.5,36.73,15.5c15.13,0,27.87,9.16,29.93,21.42-.75-.05-1.51-.09-2.27-.09-14.4,0-26.11,9.71-26.11,21.64a18.22,18.22,0,0,0,1.27,6.66C38.62,65.2,37.68,65.25,36.73,65.25Zm43.73,9.08a.5.5,0,0,0-.2.53L82.06,82l-7.73-4.38a.5.5,0,0,0-.25-.06l-.16,0a29.7,29.7,0,0,1-9.53,1.54c-13.85,0-25.11-9.26-25.11-20.64S50.54,37.83,64.39,37.83,89.5,47.09,89.5,58.47C89.5,64.61,86.21,70.39,80.46,74.33Z"/><path class="cls-1" d="M26.49,26.68a4.56,4.56,0,1,0,4.6,4.56A4.58,4.58,0,0,0,26.49,26.68Zm0,8.12a3.56,3.56,0,1,1,3.6-3.56A3.58,3.58,0,0,1,26.49,34.8Z"/><path class="cls-1" d="M47,35.8a4.56,4.56,0,1,0-4.6-4.56A4.58,4.58,0,0,0,47,35.8Zm0-8.12a3.56,3.56,0,1,1-3.6,3.56A3.58,3.58,0,0,1,47,27.68Z"/><path class="cls-1" d="M56.2,49a3.54,3.54,0,1,0,3.57,3.54A3.56,3.56,0,0,0,56.2,49Zm0,6.09a2.54,2.54,0,1,1,2.57-2.54A2.56,2.56,0,0,1,56.2,55.1Z"/><path class="cls-1" d="M72.58,49a3.54,3.54,0,1,0,3.57,3.54A3.56,3.56,0,0,0,72.58,49Zm0,6.09a2.54,2.54,0,1,1,2.57-2.54A2.56,2.56,0,0,1,72.58,55.1Z"/></svg>