<svg id="svg_2px" data-name="svg 2px" xmlns="http://www.w3.org/2000/svg" viewBox="0 0 140 140"><defs><style>.cls-1{fill:#00008f;}</style></defs><title>wechat</title><path class="cls-1" d="M113,80.47c0-11.16-10-20.41-22.88-21.92C87.88,45.64,74.55,36,58.73,36,41.23,36,27,47.83,27,62.37c0,7.54,3.86,14.68,10.62,19.69l-2.4,9.5a1,1,0,0,0,1.46,1.11l10.26-5.81a37.25,37.25,0,0,0,11.78,1.88c1,0,2,0,2.93-.12,3.91,8.19,13.52,14,24.73,14A31.25,31.25,0,0,0,96,101.13l8.36,4.74a1,1,0,0,0,1.46-1.12l-1.92-7.59C109.69,93,113,86.9,113,80.47ZM58.73,86.75a35.2,35.2,0,0,1-11.56-1.92,1,1,0,0,0-.82.08l-8.62,4.88,2-7.89a1,1,0,0,0-.39-1.06C32.77,76.19,29,69.46,29,62.37,29,48.93,42.34,38,58.73,38c14.63,0,27,8.68,29.33,20.38-.55,0-1.11,0-1.67,0-14.67,0-26.61,9.93-26.61,22.14a18.65,18.65,0,0,0,1.07,6.21C60.15,86.72,59.44,86.75,58.73,86.75Zm43.45,9.17a1,1,0,0,0-.4,1.07l1.51,6-6.71-3.8a1,1,0,0,0-.81-.08,29.21,29.21,0,0,1-9.37,1.52c-13.57,0-24.61-9-24.61-20.14s11-20.14,24.61-20.14S111,69.37,111,80.47C111,86.44,107.79,92.07,102.18,95.92Z"/><path class="cls-1" d="M48.49,48.18a5.06,5.06,0,1,0,5.1,5.06A5.09,5.09,0,0,0,48.49,48.18Zm0,8.12a3.06,3.06,0,1,1,3.1-3.06A3.08,3.08,0,0,1,48.49,56.3Z"/><path class="cls-1" d="M69,58.3a5.06,5.06,0,1,0-5.1-5.06A5.08,5.08,0,0,0,69,58.3Zm0-8.12a3.06,3.06,0,1,1-3.1,3.06A3.08,3.08,0,0,1,69,50.18Z"/><path class="cls-1" d="M78.2,70.51a4,4,0,1,0,4.07,4A4.06,4.06,0,0,0,78.2,70.51Zm0,6.09a2,2,0,1,1,2.07-2A2.06,2.06,0,0,1,78.2,76.6Z"/><path class="cls-1" d="M94.58,70.51a4,4,0,1,0,4.07,4A4.06,4.06,0,0,0,94.58,70.51Zm0,6.09a2,2,0,1,1,2.07-2A2.06,2.06,0,0,1,94.58,76.6Z"/><path class="cls-1" d="M70,140a70,70,0,1,1,70-70A70.08,70.08,0,0,1,70,140ZM70,2a68,68,0,1,0,68,68A68.08,68.08,0,0,0,70,2Z"/></svg>