<svg id="svg_1px" data-name="svg 1px" xmlns="http://www.w3.org/2000/svg" viewBox="0 0 140 140"><defs><style>.cls-1{fill:#fff;}</style></defs><title>wechat</title><path class="cls-1" d="M112.5,80.47c0-11-10-20.11-22.81-21.47-2-12.86-15.24-22.51-31-22.51C41.51,36.5,27.5,48.11,27.5,62.37c0,7.48,3.89,14.56,10.69,19.48l-2.48,9.83a.5.5,0,0,0,.73.56L46.9,86.32a36.73,36.73,0,0,0,11.84,1.92c1.08,0,2.17-.05,3.23-.14,3.73,8.18,13.27,14,24.43,14A30.74,30.74,0,0,0,96,100.59l8.56,4.84a.5.5,0,0,0,.25.06.5.5,0,0,0,.48-.62l-2-7.92C109.16,92.83,112.5,86.84,112.5,80.47ZM58.73,87.25A35.68,35.68,0,0,1,47,85.3a.5.5,0,0,0-.41,0L37,90.79l2.28-9a.5.5,0,0,0-.2-.53C32.34,76.5,28.5,69.62,28.5,62.37c0-13.71,13.56-24.87,30.23-24.87,15.13,0,27.87,9.16,29.93,21.42-.75-.05-1.51-.09-2.27-.09-14.4,0-26.11,9.71-26.11,21.64a18.22,18.22,0,0,0,1.27,6.66C60.62,87.2,59.68,87.25,58.73,87.25Zm43.73,9.08a.5.5,0,0,0-.2.53l1.8,7.12-7.73-4.38a.5.5,0,0,0-.25-.06l-.16,0a29.7,29.7,0,0,1-9.53,1.54c-13.85,0-25.11-9.26-25.11-20.64S72.54,59.83,86.39,59.83s25.11,9.26,25.11,20.64C111.5,86.61,108.21,92.39,102.46,96.33Z"/><path class="cls-1" d="M48.49,48.68a4.56,4.56,0,1,0,4.6,4.56A4.58,4.58,0,0,0,48.49,48.68Zm0,8.12a3.56,3.56,0,1,1,3.6-3.56A3.58,3.58,0,0,1,48.49,56.8Z"/><path class="cls-1" d="M69,57.8a4.56,4.56,0,1,0-4.6-4.56A4.58,4.58,0,0,0,69,57.8Zm0-8.12a3.56,3.56,0,1,1-3.6,3.56A3.58,3.58,0,0,1,69,49.68Z"/><path class="cls-1" d="M78.2,71a3.54,3.54,0,1,0,3.57,3.54A3.56,3.56,0,0,0,78.2,71Zm0,6.09a2.54,2.54,0,1,1,2.57-2.54A2.56,2.56,0,0,1,78.2,77.1Z"/><path class="cls-1" d="M94.58,71a3.54,3.54,0,1,0,3.57,3.54A3.56,3.56,0,0,0,94.58,71Zm0,6.09a2.54,2.54,0,1,1,2.57-2.54A2.56,2.56,0,0,1,94.58,77.1Z"/><path class="cls-1" d="M70,139.5A69.5,69.5,0,1,1,139.5,70,69.58,69.58,0,0,1,70,139.5Zm0-138A68.5,68.5,0,1,0,138.5,70,68.58,68.58,0,0,0,70,1.5Z"/></svg>