<svg id="wechat_blue" data-name="svg 2px" xmlns="http://www.w3.org/2000/svg" viewBox="0 0 96 96"><defs><style>.cls-1{fill:#00008f;}</style></defs><title>wechat</title><path class="cls-1" d="M91,58.47c0-11.16-10-20.41-22.88-21.92C65.88,23.64,52.55,14,36.73,14,19.23,14,5,25.83,5,40.37c0,7.54,3.86,14.68,10.62,19.69l-2.4,9.5a1,1,0,0,0,1.46,1.11l10.26-5.81a37.25,37.25,0,0,0,11.78,1.88c1,0,2,0,2.93-.12,3.91,8.19,13.52,14,24.73,14A31.25,31.25,0,0,0,74,79.13l8.36,4.74a1,1,0,0,0,1.46-1.12l-1.92-7.59C87.69,71,91,64.9,91,58.47ZM36.73,64.75a35.2,35.2,0,0,1-11.56-1.92,1,1,0,0,0-.82.08l-8.62,4.88,2-7.89a1,1,0,0,0-.39-1.06C10.77,54.19,7,47.46,7,40.37,7,26.93,20.34,16,36.73,16c14.63,0,27,8.68,29.33,20.38-.55,0-1.11,0-1.67,0-14.67,0-26.61,9.93-26.61,22.14a18.65,18.65,0,0,0,1.07,6.21C38.15,64.72,37.44,64.75,36.73,64.75Zm43.45,9.17a1,1,0,0,0-.4,1.07l1.51,6-6.71-3.8a1,1,0,0,0-.81-.08,29.21,29.21,0,0,1-9.37,1.52c-13.57,0-24.61-9-24.61-20.14s11-20.14,24.61-20.14S89,47.37,89,58.47C89,64.44,85.79,70.07,80.18,73.92Z"/><path class="cls-1" d="M26.49,26.18a5.06,5.06,0,1,0,5.1,5.06A5.09,5.09,0,0,0,26.49,26.18Zm0,8.12a3.06,3.06,0,1,1,3.1-3.06A3.08,3.08,0,0,1,26.49,34.3Z"/><path class="cls-1" d="M47,36.3a5.06,5.06,0,1,0-5.1-5.06A5.08,5.08,0,0,0,47,36.3Zm0-8.12a3.06,3.06,0,1,1-3.1,3.06A3.08,3.08,0,0,1,47,28.18Z"/><path class="cls-1" d="M56.2,48.51a4,4,0,1,0,4.07,4A4.06,4.06,0,0,0,56.2,48.51Zm0,6.09a2,2,0,1,1,2.07-2A2.06,2.06,0,0,1,56.2,54.6Z"/><path class="cls-1" d="M72.58,48.51a4,4,0,1,0,4.07,4A4.06,4.06,0,0,0,72.58,48.51Zm0,6.09a2,2,0,1,1,2.07-2A2.06,2.06,0,0,1,72.58,54.6Z"/></svg>