<?xml version="1.0" encoding="utf-8"?>
<!-- Generator: Adobe Illustrator 19.0.0, SVG Export Plug-In . SVG Version: 6.00 Build 0)  -->
<svg version="1.1" xmlns="http://www.w3.org/2000/svg" xmlns:xlink="http://www.w3.org/1999/xlink" x="0px" y="0px"
	 viewBox="0 0 50 50" style="enable-background:new 0 0 50 50;" xml:space="preserve">
<style type="text/css">
	.st0{fill:#33CC33;}
	.st1{fill:#FFFFFF;}
	.st2{display:none;}
	.st3{display:inline;}
	.st4{font-family:'Raleway-Black';}
	.st5{font-size:12px;}
	.st6{display:inline;fill:#16365C;}
	.st7{display:inline;fill:#FFFFFF;}
	.st8{font-family:'Arial-Black';}
	.st9{font-size:38px;}
	.st10{fill:#16365C;}
	.st11{display:inline;fill:#00B0F0;}
	.st12{fill:#00B0F0;}
	.st13{display:inline;fill:#FFFF00;}
	.st14{fill:#FFFF00;}
	.st15{display:inline;fill:#FF9900;}
	.st16{fill:#FF9900;}
	.st17{display:inline;fill:#58267E;}
	.st18{fill:#58267E;}
	.st19{display:inline;fill:#FF3737;}
	.st20{fill:#FF3737;}
</style>
<g id="Layer_1_copy_9">
	<circle id="XMLID_31_" class="st0" cx="24.7" cy="24.5" r="24"/>
	<g id="XMLID_11_">
		<polygon id="XMLID_28_" class="st1" points="39,38 30.7,38 29.3,33 19.9,33 18.6,38 10.4,38 20.2,11 29.2,11 		"/>
		<polygon id="XMLID_34_" class="st0" points="27.6,29 27.6,29 27.8,29 24.6,18.2 21.4,29 21.7,29 21.7,29 		"/>
	</g>
</g>
<g id="Layer_3_copy" class="st2">
	<g id="XMLID_9_" class="st3">
		<g id="XMLID_13_">
			<path id="XMLID_18_" class="st1" d="M40.4,19c-5,0-9-4-9-9s4-9,9-9s9,4,9,9S45.4,19,40.4,19z"/>
			<path id="XMLID_15_" class="st0" d="M40.4,1.5c4.7,0,8.5,3.8,8.5,8.5s-3.8,8.5-8.5,8.5s-8.5-3.8-8.5-8.5S35.7,1.5,40.4,1.5
				 M40.4,0.5c-5.2,0-9.5,4.3-9.5,9.5c0,5.2,4.3,9.5,9.5,9.5c5.2,0,9.5-4.3,9.5-9.5C49.9,4.8,45.6,0.5,40.4,0.5L40.4,0.5z"/>
		</g>
		<text id="XMLID_12_" transform="matrix(1 0 0 1 34.2744 13.1812)" class="st0 st4 st5">rb</text>
	</g>
</g>
<g id="Layer_1_copy_10" class="st2">
	<circle id="XMLID_4_" class="st6" cx="24.7" cy="24.5" r="24"/>
	<text id="XMLID_5_" transform="matrix(1 0 0 1 10.4048 38)" class="st7 st8 st9">B</text>
</g>
<g id="Layer_3" class="st2">
	<g id="XMLID_10_" class="st3">
		<g id="XMLID_6_">
			<path id="XMLID_37_" class="st1" d="M40.4,19c-5,0-9-4-9-9s4-9,9-9s9,4,9,9S45.4,19,40.4,19z"/>
			<path id="XMLID_33_" class="st10" d="M40.4,1.5c4.7,0,8.5,3.8,8.5,8.5s-3.8,8.5-8.5,8.5s-8.5-3.8-8.5-8.5S35.7,1.5,40.4,1.5
				 M40.4,0.5c-5.2,0-9.5,4.3-9.5,9.5c0,5.2,4.3,9.5,9.5,9.5c5.2,0,9.5-4.3,9.5-9.5C49.9,4.8,45.6,0.5,40.4,0.5L40.4,0.5z"/>
		</g>
		<text id="XMLID_7_" transform="matrix(1 0 0 1 34.2744 13.1812)" class="st10 st4 st5">rb</text>
	</g>
</g>
<g id="Layer_1_copy_11" class="st2">
	<circle id="XMLID_24_" class="st11" cx="24.7" cy="24.5" r="24"/>
	<text id="XMLID_54_" transform="matrix(1 0 0 1 8.5715 38)" class="st7 st8 st9">C</text>
</g>
<g id="Layer_3_copy_2" class="st2">
	<g id="XMLID_21_" class="st3">
		<path id="XMLID_44_" class="st1" d="M40.4,19c-5,0-9-4-9-9s4-9,9-9s9,4,9,9S45.4,19,40.4,19z"/>
		<path id="XMLID_41_" class="st12" d="M40.4,1.5c4.7,0,8.5,3.8,8.5,8.5s-3.8,8.5-8.5,8.5s-8.5-3.8-8.5-8.5S35.7,1.5,40.4,1.5
			 M40.4,0.5c-5.2,0-9.5,4.3-9.5,9.5c0,5.2,4.3,9.5,9.5,9.5c5.2,0,9.5-4.3,9.5-9.5C49.9,4.8,45.6,0.5,40.4,0.5L40.4,0.5z"/>
	</g>
	<text id="XMLID_20_" transform="matrix(1 0 0 1 34.2744 13.1812)" class="st11 st4 st5">rb</text>
</g>
<g id="Layer_1_copy_12" class="st2">
	<circle id="XMLID_23_" class="st13" cx="24.7" cy="24.5" r="24"/>
	<text id="XMLID_55_" transform="matrix(1 0 0 1 8.5715 38)" class="st7 st8 st9">D</text>
</g>
<g id="Layer_3_copy_3" class="st2">
	<g id="XMLID_22_" class="st3">
		<path id="XMLID_51_" class="st1" d="M40.4,19c-5,0-9-4-9-9s4-9,9-9s9,4,9,9S45.4,19,40.4,19z"/>
		<path id="XMLID_48_" class="st14" d="M40.4,1.5c4.7,0,8.5,3.8,8.5,8.5s-3.8,8.5-8.5,8.5s-8.5-3.8-8.5-8.5S35.7,1.5,40.4,1.5
			 M40.4,0.5c-5.2,0-9.5,4.3-9.5,9.5c0,5.2,4.3,9.5,9.5,9.5c5.2,0,9.5-4.3,9.5-9.5C49.9,4.8,45.6,0.5,40.4,0.5L40.4,0.5z"/>
	</g>
	<text id="XMLID_19_" transform="matrix(1 0 0 1 34.2744 13.1812)" class="st13 st4 st5">rb</text>
</g>
<g id="Layer_1_copy_13" class="st2">
	<circle id="XMLID_25_" class="st15" cx="24.7" cy="24.5" r="24"/>
	<text id="XMLID_57_" transform="matrix(1 0 0 1 8.5715 38)" class="st7 st8 st9">E</text>
</g>
<g id="Layer_3_copy_4" class="st2">
	<g id="XMLID_29_" class="st3">
		<path id="XMLID_63_" class="st1" d="M40.4,19c-5,0-9-4-9-9s4-9,9-9s9,4,9,9S45.4,19,40.4,19z"/>
		<path id="XMLID_60_" class="st16" d="M40.4,1.5c4.7,0,8.5,3.8,8.5,8.5s-3.8,8.5-8.5,8.5s-8.5-3.8-8.5-8.5S35.7,1.5,40.4,1.5
			 M40.4,0.5c-5.2,0-9.5,4.3-9.5,9.5c0,5.2,4.3,9.5,9.5,9.5c5.2,0,9.5-4.3,9.5-9.5C49.9,4.8,45.6,0.5,40.4,0.5L40.4,0.5z"/>
	</g>
	<text id="XMLID_26_" transform="matrix(1 0 0 1 34.2744 13.1812)" class="st15 st4 st5">rb</text>
</g>
<g id="Layer_1_copy_14" class="st2">
	<circle id="XMLID_30_" class="st17" cx="24.7" cy="24.5" r="24"/>
	<text id="XMLID_58_" transform="matrix(1 0 0 1 8.5715 38)" class="st7 st8 st9">F</text>
</g>
<g id="Layer_3_copy_5" class="st2">
	<g id="XMLID_39_" class="st3">
		<path id="XMLID_71_" class="st1" d="M40.4,19c-5,0-9-4-9-9s4-9,9-9s9,4,9,9S45.4,19,40.4,19z"/>
		<path id="XMLID_68_" class="st18" d="M40.4,1.5c4.7,0,8.5,3.8,8.5,8.5s-3.8,8.5-8.5,8.5s-8.5-3.8-8.5-8.5S35.7,1.5,40.4,1.5
			 M40.4,0.5c-5.2,0-9.5,4.3-9.5,9.5c0,5.2,4.3,9.5,9.5,9.5c5.2,0,9.5-4.3,9.5-9.5C49.9,4.8,45.6,0.5,40.4,0.5L40.4,0.5z"/>
	</g>
	<text id="XMLID_38_" transform="matrix(1 0 0 1 34.2744 13.1812)" class="st17 st4 st5">rb</text>
</g>
<g id="Layer_1_copy_15" class="st2">
	<circle id="XMLID_45_" class="st19" cx="24.7" cy="24.5" r="24"/>
	<text id="XMLID_59_" transform="matrix(1 0 0 1 8.5715 38)" class="st7 st8 st9">G</text>
</g>
<g id="Layer_3_copy_6" class="st2">
	<g id="XMLID_52_" class="st3">
		<path id="XMLID_79_" class="st1" d="M40.4,19c-5,0-9-4-9-9s4-9,9-9s9,4,9,9S45.4,19,40.4,19z"/>
		<path id="XMLID_76_" class="st20" d="M40.4,1.5c4.7,0,8.5,3.8,8.5,8.5s-3.8,8.5-8.5,8.5s-8.5-3.8-8.5-8.5S35.7,1.5,40.4,1.5
			 M40.4,0.5c-5.2,0-9.5,4.3-9.5,9.5c0,5.2,4.3,9.5,9.5,9.5c5.2,0,9.5-4.3,9.5-9.5C49.9,4.8,45.6,0.5,40.4,0.5L40.4,0.5z"/>
	</g>
	<text id="XMLID_46_" transform="matrix(1 0 0 1 34.2744 13.1812)" class="st19 st4 st5">rb</text>
</g>
<g id="Layer_5" class="st2">
</g>
</svg>
