<?xml version="1.0" encoding="utf-8"?>
<!-- Generator: Adobe Illustrator 19.0.0, SVG Export Plug-In . SVG Version: 6.00 Build 0)  -->
<svg version="1.1" xmlns="http://www.w3.org/2000/svg" xmlns:xlink="http://www.w3.org/1999/xlink" x="0px" y="0px"
	 viewBox="0 0 50 50" style="enable-background:new 0 0 50 50;" xml:space="preserve">
<style type="text/css">
	.st0{display:none;}
	.st1{display:inline;fill:#33CC33;}
	.st2{display:inline;}
	.st3{fill:#FFFFFF;}
	.st4{fill:#33CC33;}
	.st5{font-family:'Raleway-Black';}
	.st6{font-size:12px;}
	.st7{display:inline;fill:#16365C;}
	.st8{display:inline;fill:#FFFFFF;}
	.st9{font-family:'Arial-Black';}
	.st10{font-size:38px;}
	.st11{fill:#16365C;}
	.st12{display:inline;fill:#00B0F0;}
	.st13{fill:#00B0F0;}
	.st14{display:inline;fill:#FFE600;}
	.st15{fill:#FFE600;}
	.st16{display:inline;fill:#FF9900;}
	.st17{fill:#FF9900;}
	.st18{fill:#58267E;}
	.st19{display:inline;fill:#FF3737;}
	.st20{fill:#FF3737;}
</style>
<g id="Layer_1_copy_9" class="st0">
	<circle id="XMLID_31_" class="st1" cx="24.7" cy="24.5" r="24"/>
	<g id="XMLID_11_" class="st2">
		<polygon id="XMLID_28_" class="st3" points="39,38 30.7,38 29.3,33 19.9,33 18.6,38 10.4,38 20.2,11 29.2,11 		"/>
		<polygon id="XMLID_34_" class="st4" points="27.6,29 27.6,29 27.8,29 24.6,18.2 21.4,29 21.7,29 21.7,29 		"/>
	</g>
</g>
<g id="Layer_3_copy" class="st0">
	<g id="XMLID_13_" class="st2">
		<path id="XMLID_18_" class="st3" d="M40.4,19c-5,0-9-4-9-9s4-9,9-9s9,4,9,9S45.4,19,40.4,19z"/>
		<path id="XMLID_15_" class="st4" d="M40.4,1.5c4.7,0,8.5,3.8,8.5,8.5s-3.8,8.5-8.5,8.5s-8.5-3.8-8.5-8.5S35.7,1.5,40.4,1.5
			 M40.4,0.5c-5.2,0-9.5,4.3-9.5,9.5c0,5.2,4.3,9.5,9.5,9.5c5.2,0,9.5-4.3,9.5-9.5C49.9,4.8,45.6,0.5,40.4,0.5L40.4,0.5z"/>
	</g>
	<text id="XMLID_12_" transform="matrix(1 0 0 1 34.2744 13.1812)" class="st1 st5 st6">rb</text>
</g>
<g id="Layer_1_copy_10" class="st0">
	<circle id="XMLID_4_" class="st7" cx="24.7" cy="24.5" r="24"/>
	<text id="XMLID_5_" transform="matrix(1 0 0 1 10.2212 38)" class="st8 st9 st10">B</text>
</g>
<g id="Layer_3" class="st0">
	<g id="XMLID_6_" class="st2">
		<path id="XMLID_37_" class="st3" d="M40.4,19c-5,0-9-4-9-9s4-9,9-9s9,4,9,9S45.4,19,40.4,19z"/>
		<path id="XMLID_33_" class="st11" d="M40.4,1.5c4.7,0,8.5,3.8,8.5,8.5s-3.8,8.5-8.5,8.5s-8.5-3.8-8.5-8.5S35.7,1.5,40.4,1.5
			 M40.4,0.5c-5.2,0-9.5,4.3-9.5,9.5c0,5.2,4.3,9.5,9.5,9.5c5.2,0,9.5-4.3,9.5-9.5C49.9,4.8,45.6,0.5,40.4,0.5L40.4,0.5z"/>
	</g>
	<g id="XMLID_9_" class="st2">
		<path id="XMLID_10_" class="st11" d="M39.1,8.8c-0.4,0-0.8,0-1.2,0.1c-0.4,0.1-0.6,0.3-0.8,0.5v3.7h-2.3V6.9h2.1v1.2
			c0.2-0.4,0.5-0.8,0.8-1s0.7-0.3,1.1-0.3c0.2,0,0.2,0,0.3,0V8.8z"/>
		<path id="XMLID_66_" class="st11" d="M43.9,13.3c-1,0-1.6-0.4-2-1.1v1h-2V4.4h2.3v3.4c0.2-0.3,0.4-0.6,0.8-0.8
			c0.3-0.2,0.7-0.3,1.2-0.3c0.4,0,0.7,0.1,1.1,0.3c0.3,0.2,0.6,0.4,0.9,0.7c0.2,0.3,0.4,0.6,0.6,1c0.1,0.4,0.2,0.8,0.2,1.3
			s-0.1,0.9-0.2,1.3c-0.1,0.4-0.4,0.7-0.6,1c-0.3,0.3-0.6,0.5-0.9,0.7C44.7,13.2,44.3,13.3,43.9,13.3z M43.2,11.4
			c0.4,0,0.7-0.1,0.9-0.4c0.2-0.2,0.3-0.6,0.3-1c0-0.2,0-0.4-0.1-0.5c-0.1-0.2-0.1-0.3-0.2-0.4c-0.1-0.1-0.2-0.2-0.4-0.3
			c-0.1-0.1-0.3-0.1-0.5-0.1c-0.2,0-0.5,0.1-0.7,0.3c-0.2,0.2-0.4,0.4-0.5,0.7v1.1C42.4,11.2,42.8,11.4,43.2,11.4z"/>
	</g>
</g>
<g id="Layer_1_copy_11" class="st0">
	<circle id="XMLID_24_" class="st12" cx="24.7" cy="24.5" r="24"/>
	<g id="XMLID_7_" class="st2">
		<path id="XMLID_74_" class="st3" d="M30.9,26.9l7.4,2.2c-0.5,2.1-1.3,3.8-2.3,5.2c-1.1,1.4-2.4,2.4-4,3.1c-1.6,0.7-3.6,1.1-6,1.1
			c-3,0-5.4-0.4-7.2-1.3c-1.9-0.9-3.5-2.4-4.9-4.5c-1.4-2.2-2-4.9-2-8.3c0-4.5,1.2-8,3.6-10.4c2.4-2.4,5.8-3.6,10.2-3.6
			c3.4,0,6.1,0.7,8.1,2.1c2,1.4,3.4,3.5,4.4,6.4l-7.4,1.7c-0.3-0.8-0.5-1.4-0.8-1.8c-0.5-0.6-1-1.1-1.7-1.5
			c-0.7-0.3-1.4-0.5-2.3-0.5c-1.9,0-3.4,0.8-4.4,2.3c-0.8,1.1-1.2,2.9-1.2,5.4c0,3,0.5,5.1,1.4,6.2c0.9,1.1,2.2,1.7,3.9,1.7
			c1.6,0,2.8-0.5,3.6-1.4C29.9,29.9,30.5,28.6,30.9,26.9z"/>
	</g>
</g>
<g id="Layer_3_copy_2" class="st0">
	<g id="XMLID_21_" class="st2">
		<path id="XMLID_44_" class="st3" d="M40.4,19c-5,0-9-4-9-9s4-9,9-9s9,4,9,9S45.4,19,40.4,19z"/>
		<path id="XMLID_41_" class="st13" d="M40.4,1.5c4.7,0,8.5,3.8,8.5,8.5s-3.8,8.5-8.5,8.5s-8.5-3.8-8.5-8.5S35.7,1.5,40.4,1.5
			 M40.4,0.5c-5.2,0-9.5,4.3-9.5,9.5c0,5.2,4.3,9.5,9.5,9.5c5.2,0,9.5-4.3,9.5-9.5C49.9,4.8,45.6,0.5,40.4,0.5L40.4,0.5z"/>
	</g>
	<g id="XMLID_54_" class="st2">
		<path id="XMLID_80_" class="st13" d="M39.1,8.8c-0.4,0-0.8,0-1.2,0.1c-0.4,0.1-0.6,0.3-0.8,0.5v3.7h-2.3V6.9h2.1v1.2
			c0.2-0.4,0.5-0.8,0.8-1s0.7-0.3,1.1-0.3c0.2,0,0.2,0,0.3,0V8.8z"/>
		<path id="XMLID_82_" class="st13" d="M43.9,13.3c-1,0-1.6-0.4-2-1.1v1h-2V4.4h2.3v3.4c0.2-0.3,0.4-0.6,0.8-0.8
			c0.3-0.2,0.7-0.3,1.2-0.3c0.4,0,0.7,0.1,1.1,0.3c0.3,0.2,0.6,0.4,0.9,0.7c0.2,0.3,0.4,0.6,0.6,1c0.1,0.4,0.2,0.8,0.2,1.3
			s-0.1,0.9-0.2,1.3c-0.1,0.4-0.4,0.7-0.6,1c-0.3,0.3-0.6,0.5-0.9,0.7C44.7,13.2,44.3,13.3,43.9,13.3z M43.2,11.4
			c0.4,0,0.7-0.1,0.9-0.4c0.2-0.2,0.3-0.6,0.3-1c0-0.2,0-0.4-0.1-0.5c-0.1-0.2-0.1-0.3-0.2-0.4c-0.1-0.1-0.2-0.2-0.4-0.3
			c-0.1-0.1-0.3-0.1-0.5-0.1c-0.2,0-0.5,0.1-0.7,0.3c-0.2,0.2-0.4,0.4-0.5,0.7v1.1C42.4,11.2,42.8,11.4,43.2,11.4z"/>
	</g>
</g>
<g id="Layer_1_copy_12" class="st0">
	<circle id="XMLID_23_" class="st14" cx="24.7" cy="24.5" r="24"/>
	<path id="XMLID_85_" class="st8" d="M13.5,10.8H26c2.5,0,4.5,0.3,6,1c1.5,0.7,2.8,1.6,3.8,2.9c1,1.2,1.7,2.7,2.2,4.4
		c0.4,1.7,0.7,3.4,0.7,5.3c0,2.9-0.3,5.2-1,6.8c-0.7,1.6-1.6,2.9-2.8,4c-1.2,1.1-2.4,1.8-3.8,2.2c-1.8,0.5-3.5,0.7-5,0.7H13.5V10.8z
		 M21.9,17v14.9h2.1c1.8,0,3-0.2,3.7-0.6c0.7-0.4,1.3-1.1,1.7-2c0.4-1,0.6-2.5,0.6-4.7c0-2.9-0.5-4.9-1.4-5.9
		C27.7,17.5,26.2,17,24,17H21.9z"/>
</g>
<g id="Layer_3_copy_3" class="st0">
	<g id="XMLID_22_" class="st2">
		<path id="XMLID_107_" class="st3" d="M40.4,19c-5,0-9-4-9-9s4-9,9-9s9,4,9,9S45.4,19,40.4,19z"/>
		<g id="XMLID_103_">
			<path id="XMLID_104_" class="st15" d="M40.4,1.5c4.7,0,8.5,3.8,8.5,8.5s-3.8,8.5-8.5,8.5s-8.5-3.8-8.5-8.5S35.7,1.5,40.4,1.5
				 M40.4,0.5c-5.2,0-9.5,4.3-9.5,9.5c0,5.2,4.3,9.5,9.5,9.5c5.2,0,9.5-4.3,9.5-9.5C49.9,4.8,45.6,0.5,40.4,0.5L40.4,0.5z"/>
		</g>
	</g>
	<g id="XMLID_55_" class="st2">
		<path id="XMLID_88_" class="st15" d="M39.1,8.8c-0.4,0-0.8,0-1.2,0.1c-0.4,0.1-0.6,0.3-0.8,0.5v3.7h-2.3V6.9h2.1v1.2
			c0.2-0.4,0.5-0.8,0.8-1s0.7-0.3,1.1-0.3c0.2,0,0.2,0,0.3,0V8.8z"/>
		<path id="XMLID_90_" class="st15" d="M43.9,13.3c-1,0-1.6-0.4-2-1.1v1h-2V4.4h2.3v3.4c0.2-0.3,0.4-0.6,0.8-0.8
			c0.3-0.2,0.7-0.3,1.2-0.3c0.4,0,0.7,0.1,1.1,0.3c0.3,0.2,0.6,0.4,0.9,0.7c0.2,0.3,0.4,0.6,0.6,1c0.1,0.4,0.2,0.8,0.2,1.3
			s-0.1,0.9-0.2,1.3c-0.1,0.4-0.4,0.7-0.6,1c-0.3,0.3-0.6,0.5-0.9,0.7C44.7,13.2,44.3,13.3,43.9,13.3z M43.2,11.4
			c0.4,0,0.7-0.1,0.9-0.4c0.2-0.2,0.3-0.6,0.3-1c0-0.2,0-0.4-0.1-0.5c-0.1-0.2-0.1-0.3-0.2-0.4c-0.1-0.1-0.2-0.2-0.4-0.3
			c-0.1-0.1-0.3-0.1-0.5-0.1c-0.2,0-0.5,0.1-0.7,0.3c-0.2,0.2-0.4,0.4-0.5,0.7v1.1C42.4,11.2,42.8,11.4,43.2,11.4z"/>
	</g>
</g>
<g id="Layer_1_copy_13" class="st0">
	<circle id="XMLID_25_" class="st16" cx="24.7" cy="24.5" r="24"/>
	<g id="XMLID_19_" class="st2">
		<path id="XMLID_20_" class="st3" d="M13.5,10.8h22.5v5.8H22v4.3H35v5.5H22v5.4h14.5V38H13.5V10.8z"/>
	</g>
</g>
<g id="Layer_3_copy_4" class="st0">
	<g id="XMLID_29_" class="st2">
		<path id="XMLID_63_" class="st3" d="M40.4,19c-5,0-9-4-9-9s4-9,9-9s9,4,9,9S45.4,19,40.4,19z"/>
		<path id="XMLID_60_" class="st17" d="M40.4,1.5c4.7,0,8.5,3.8,8.5,8.5s-3.8,8.5-8.5,8.5s-8.5-3.8-8.5-8.5S35.7,1.5,40.4,1.5
			 M40.4,0.5c-5.2,0-9.5,4.3-9.5,9.5c0,5.2,4.3,9.5,9.5,9.5c5.2,0,9.5-4.3,9.5-9.5C49.9,4.8,45.6,0.5,40.4,0.5L40.4,0.5z"/>
	</g>
	<g id="XMLID_48_" class="st2">
		<path id="XMLID_49_" class="st17" d="M39.1,8.8c-0.4,0-0.8,0-1.2,0.1c-0.4,0.1-0.6,0.3-0.8,0.5v3.7h-2.3V6.9h2.1v1.2
			c0.2-0.4,0.5-0.8,0.8-1s0.7-0.3,1.1-0.3c0.2,0,0.2,0,0.3,0V8.8z"/>
		<path id="XMLID_51_" class="st17" d="M43.9,13.3c-1,0-1.6-0.4-2-1.1v1h-2V4.4h2.3v3.4c0.2-0.3,0.4-0.6,0.8-0.8
			c0.3-0.2,0.7-0.3,1.2-0.3c0.4,0,0.7,0.1,1.1,0.3c0.3,0.2,0.6,0.4,0.9,0.7c0.2,0.3,0.4,0.6,0.6,1c0.1,0.4,0.2,0.8,0.2,1.3
			s-0.1,0.9-0.2,1.3c-0.1,0.4-0.4,0.7-0.6,1c-0.3,0.3-0.6,0.5-0.9,0.7C44.7,13.2,44.3,13.3,43.9,13.3z M43.2,11.4
			c0.4,0,0.7-0.1,0.9-0.4c0.2-0.2,0.3-0.6,0.3-1c0-0.2,0-0.4-0.1-0.5c-0.1-0.2-0.1-0.3-0.2-0.4c-0.1-0.1-0.2-0.2-0.4-0.3
			c-0.1-0.1-0.3-0.1-0.5-0.1c-0.2,0-0.5,0.1-0.7,0.3c-0.2,0.2-0.4,0.4-0.5,0.7v1.1C42.4,11.2,42.8,11.4,43.2,11.4z"/>
	</g>
</g>
<g id="Layer_1_copy_14">
	<circle id="XMLID_30_" class="st18" cx="24.7" cy="24.5" r="24"/>
	<g id="XMLID_26_">
		<path id="XMLID_94_" class="st3" d="M14.6,10.8h20.8v5.8H23.1v4.8h10.5v5.5H23.1V38h-8.4V10.8z"/>
	</g>
</g>
<g id="Layer_3_copy_5">
	<g id="XMLID_39_">
		<path id="XMLID_71_" class="st3" d="M40.4,19c-5,0-9-4-9-9s4-9,9-9s9,4,9,9S45.4,19,40.4,19z"/>
		<path id="XMLID_68_" class="st18" d="M40.4,1.5c4.7,0,8.5,3.8,8.5,8.5s-3.8,8.5-8.5,8.5s-8.5-3.8-8.5-8.5S35.7,1.5,40.4,1.5
			 M40.4,0.5c-5.2,0-9.5,4.3-9.5,9.5c0,5.2,4.3,9.5,9.5,9.5c5.2,0,9.5-4.3,9.5-9.5C49.9,4.8,45.6,0.5,40.4,0.5L40.4,0.5z"/>
	</g>
	<g id="XMLID_58_">
		<path id="XMLID_96_" class="st18" d="M39.1,8.8c-0.4,0-0.8,0-1.2,0.1c-0.4,0.1-0.6,0.3-0.8,0.5v3.7h-2.3V6.9h2.1v1.2
			c0.2-0.4,0.5-0.8,0.8-1s0.7-0.3,1.1-0.3c0.2,0,0.2,0,0.3,0V8.8z"/>
		<path id="XMLID_98_" class="st18" d="M43.9,13.3c-1,0-1.6-0.4-2-1.1v1h-2V4.4h2.3v3.4c0.2-0.3,0.4-0.6,0.8-0.8
			c0.3-0.2,0.7-0.3,1.2-0.3c0.4,0,0.7,0.1,1.1,0.3c0.3,0.2,0.6,0.4,0.9,0.7c0.2,0.3,0.4,0.6,0.6,1c0.1,0.4,0.2,0.8,0.2,1.3
			s-0.1,0.9-0.2,1.3c-0.1,0.4-0.4,0.7-0.6,1c-0.3,0.3-0.6,0.5-0.9,0.7C44.7,13.2,44.3,13.3,43.9,13.3z M43.2,11.4
			c0.4,0,0.7-0.1,0.9-0.4c0.2-0.2,0.3-0.6,0.3-1c0-0.2,0-0.4-0.1-0.5c-0.1-0.2-0.1-0.3-0.2-0.4c-0.1-0.1-0.2-0.2-0.4-0.3
			c-0.1-0.1-0.3-0.1-0.5-0.1c-0.2,0-0.5,0.1-0.7,0.3c-0.2,0.2-0.4,0.4-0.5,0.7v1.1C42.4,11.2,42.8,11.4,43.2,11.4z"/>
	</g>
</g>
<g id="Layer_1_copy_15" class="st0">
	<circle id="XMLID_45_" class="st19" cx="24.7" cy="24.5" r="24"/>
	<text id="XMLID_59_" transform="matrix(1 0 0 1 8.5715 38)" class="st8 st9 st10">G</text>
</g>
<g id="Layer_3_copy_6" class="st0">
	<g id="XMLID_52_" class="st2">
		<path id="XMLID_79_" class="st3" d="M40.4,19c-5,0-9-4-9-9s4-9,9-9s9,4,9,9S45.4,19,40.4,19z"/>
		<path id="XMLID_76_" class="st20" d="M40.4,1.5c4.7,0,8.5,3.8,8.5,8.5s-3.8,8.5-8.5,8.5s-8.5-3.8-8.5-8.5S35.7,1.5,40.4,1.5
			 M40.4,0.5c-5.2,0-9.5,4.3-9.5,9.5c0,5.2,4.3,9.5,9.5,9.5c5.2,0,9.5-4.3,9.5-9.5C49.9,4.8,45.6,0.5,40.4,0.5L40.4,0.5z"/>
	</g>
	<text id="XMLID_46_" transform="matrix(1 0 0 1 34.2744 13.1812)" class="st19 st5 st6">rb</text>
</g>
<g id="Layer_5" class="st0">
</g>
</svg>
