<?xml version="1.0" encoding="UTF-8"?>
<svg xmlns="http://www.w3.org/2000/svg" xmlns:xlink="http://www.w3.org/1999/xlink" width="70px" height="70px" viewBox="0 0 70 70" version="1.1">
<g id="surface1">
<path style=" stroke:none;fill-rule:nonzero;fill:rgb(100%,100%,100%);fill-opacity:1;" d="M 20.191406 17.5 L 25.578125 17.5 C 26.382812 17.5 26.921875 16.960938 26.921875 16.152344 L 26.921875 13.460938 L 43.078125 13.460938 L 43.078125 16.152344 C 43.078125 16.960938 43.617188 17.5 44.421875 17.5 L 49.808594 17.5 C 50.617188 17.5 51.152344 16.960938 51.152344 16.152344 L 51.152344 12.789062 C 51.152344 8.75 47.789062 5.382812 43.75 5.382812 L 26.117188 5.382812 C 22.078125 5.382812 18.847656 8.617188 18.847656 12.652344 L 18.847656 16.152344 C 18.847656 16.960938 19.382812 17.5 20.191406 17.5 Z M 61.921875 22.882812 L 8.078125 22.882812 C 5.117188 22.882812 2.691406 25.308594 2.691406 28.269531 L 2.691406 59.230469 C 2.691406 62.191406 5.117188 64.617188 8.078125 64.617188 L 61.921875 64.617188 C 64.882812 64.617188 67.308594 62.191406 67.308594 59.230469 L 67.308594 28.269531 C 67.308594 25.308594 64.882812 22.882812 61.921875 22.882812 Z M 61.921875 22.882812 "/>
</g>
</svg>
